{"glyphs":{"0":{"ha":915,"x_min":26,"x_max":863,"o":"m 553 740 q 779 671 696 740 q 863 482 863 601 q 790 242 863 358 q 595 53 717 125 q 336 -19 474 -19 q 110 50 194 -19 q 26 239 26 119 q 99 479 26 363 q 292 668 171 596 q 553 740 414 740 m 533 715 q 399 638 457 715 q 310 442 342 561 q 279 201 279 322 q 301 55 279 104 q 356 6 322 6 q 490 83 432 6 q 578 281 547 161 q 610 519 610 400 q 588 666 610 617 q 533 715 567 715 z "},"1":{"ha":543,"x_min":56,"x_max":522,"o":"m 301 0 l 56 0 l 228 576 q 58 536 183 563 l 63 565 q 306 638 211 597 q 494 736 401 679 l 522 736 l 301 0 z "},"2":{"ha":772,"x_min":-37,"x_max":701,"o":"m 456 740 q 635 699 569 740 q 701 589 701 657 q 656 481 701 532 q 546 389 610 429 q 382 296 482 349 q 246 218 279 240 q 288 213 264 218 q 338 201 313 208 q 474 179 421 179 q 571 197 533 179 q 608 246 608 214 q 564 307 608 282 l 578 325 q 638 272 619 301 q 656 201 656 243 q 629 99 656 147 q 548 22 603 51 q 411 -8 493 -8 q 344 -2 379 -8 q 274 11 308 4 q 188 28 225 22 q 110 33 151 33 q 38 26 68 33 q -37 0 7 18 l -31 29 q 39 83 -12 44 q 237 240 150 165 q 392 409 324 315 q 461 589 461 503 q 433 669 461 643 q 356 696 404 696 q 243 665 299 696 q 152 586 188 635 q 117 486 117 538 q 135 436 117 453 q 196 419 154 419 q 262 433 233 419 q 325 476 290 446 l 342 457 q 265 406 306 422 q 188 390 225 390 q 114 411 144 390 q 83 485 83 432 q 131 606 83 547 q 263 703 178 665 q 456 740 347 740 z "},"3":{"ha":749,"x_min":-126,"x_max":690,"o":"m 436 740 q 622 701 553 740 q 690 600 690 663 q 586 442 690 508 q 347 347 482 376 q 560 303 482 344 q 639 168 639 261 q 516 -24 639 61 q 213 -158 393 -110 q -126 -210 32 -207 l -119 -185 q 113 -131 -4 -178 q 307 0 229 -85 q 385 199 385 85 q 369 288 385 254 q 322 325 353 322 q 278 308 300 315 q 242 301 257 301 q 218 322 211 301 q 285 349 224 349 l 311 347 q 420 431 379 378 q 461 557 461 485 q 424 649 461 615 q 321 682 388 682 q 226 660 271 682 q 152 601 181 638 q 124 528 124 565 q 142 477 124 493 q 204 461 161 461 q 290 482 251 461 l 306 461 q 194 432 251 432 q 121 453 151 432 q 90 526 90 474 q 137 627 90 578 q 263 708 183 676 q 436 740 342 740 z "},"4":{"ha":763,"x_min":-86,"x_max":671,"o":"m 663 75 l 485 75 l 413 -196 l 167 -196 l 240 75 l -86 75 l -78 104 l 628 740 l 664 740 l 493 104 l 671 104 l 663 75 m 249 104 l 340 443 l -37 104 l 249 104 z "},"5":{"ha":667,"x_min":-129,"x_max":622,"o":"m 622 738 q 529 574 585 633 q 404 515 474 515 q 304 540 371 515 q 242 561 264 556 q 199 564 219 567 l 88 313 q 315 363 176 363 q 569 193 569 363 q 457 -14 569 75 q 181 -152 344 -103 q -129 -206 17 -201 l -122 -181 q 76 -135 -25 -181 q 245 -4 178 -89 q 313 190 313 81 q 285 288 313 254 q 193 321 257 321 q 68 283 133 321 l 54 290 l 236 719 q 288 717 264 721 q 351 703 313 713 q 410 690 379 696 q 468 685 440 685 q 549 699 517 685 q 606 747 582 713 l 622 738 z "},"6":{"ha":824,"x_min":31,"x_max":786,"o":"m 786 975 q 547 828 663 939 q 356 545 431 718 q 282 157 282 372 q 294 40 282 72 q 336 8 307 8 q 427 76 385 8 q 495 241 469 144 q 521 415 521 338 q 506 501 521 475 q 467 526 490 526 q 410 495 438 526 q 365 400 383 464 l 342 407 q 426 561 369 514 q 565 608 482 608 q 717 553 658 608 q 776 397 776 499 q 710 194 776 290 q 533 39 644 97 q 293 -19 422 -19 q 31 240 31 -19 q 153 593 31 426 q 451 869 275 760 q 778 1003 628 979 l 786 975 z "},"7":{"ha":714,"x_min":53,"x_max":806,"o":"m 806 719 q 578 458 649 547 q 458 268 507 368 q 372 17 410 168 q 355 -62 357 -43 q 350 -93 353 -81 q 302 -174 340 -143 q 200 -206 264 -206 q 90 -107 90 -206 q 100 -44 90 -81 q 196 138 124 43 q 355 317 268 233 q 572 517 442 401 q 726 657 672 604 q 626 592 703 643 q 500 515 544 536 q 401 494 456 494 q 347 501 371 494 q 292 519 324 507 q 246 535 265 529 q 203 540 226 540 q 139 522 164 540 q 114 465 114 504 q 265 338 114 372 l 258 314 q 53 517 53 356 q 110 666 53 604 q 285 728 168 728 q 361 721 325 728 q 450 699 397 714 q 553 674 511 682 q 647 667 596 667 q 715 678 686 667 q 765 719 743 689 l 806 719 z "},"8":{"ha":826,"x_min":-15,"x_max":856,"o":"m 856 853 q 549 572 856 711 l 576 547 q 690 433 651 485 q 729 306 729 381 q 666 141 729 215 q 498 24 603 67 q 276 -19 393 -19 q 67 27 150 -19 q -15 164 -15 74 q 89 349 -15 264 q 349 492 193 433 q 245 606 279 557 q 211 724 211 656 q 265 869 211 806 q 408 967 318 932 q 600 1003 497 1003 q 785 965 714 1003 q 856 853 856 926 m 529 590 q 594 715 569 640 q 618 867 618 789 q 560 978 618 978 q 497 949 528 978 q 448 876 467 921 q 429 783 429 831 q 456 680 429 725 q 529 590 482 635 m 314 6 q 401 39 358 6 q 471 126 444 72 q 497 239 497 181 q 463 363 497 311 q 365 476 429 414 q 269 330 307 419 q 232 140 232 240 q 251 40 232 75 q 314 6 269 6 z "},"9":{"ha":808,"x_min":17,"x_max":763,"o":"m 500 740 q 763 481 763 740 q 642 138 763 300 q 349 -131 522 -24 q 29 -261 175 -239 l 21 -233 q 253 -90 140 -199 q 439 188 367 18 q 511 564 511 357 q 499 681 511 649 q 457 713 486 713 q 366 644 408 713 q 298 480 324 576 q 272 306 272 383 q 288 220 272 246 q 326 194 303 194 q 383 226 356 194 q 428 321 410 257 l 451 314 q 367 160 424 207 q 228 113 311 113 q 76 167 135 113 q 17 324 17 222 q 83 527 17 431 q 260 682 149 624 q 500 740 371 740 z "},"\u0000":{"ha":0,"x_min":0,"x_max":0,"o":""},"\r":{"ha":357,"x_min":0,"x_max":0,"o":""}," ":{"ha":357,"x_min":0,"x_max":0,"o":""},"A":{"ha":929,"x_min":-133,"x_max":836,"o":"m 768 117 q 792 50 772 71 q 836 28 811 29 l 831 0 q 596 4 750 4 q 360 0 435 4 l 365 28 q 439 40 413 31 q 476 73 465 49 q 485 144 488 97 l 472 372 l 200 372 l 65 182 q 32 103 32 135 q 160 28 32 38 l 154 0 q -43 4 11 4 q -133 0 -90 4 l -128 28 q -55 72 -89 39 q 42 193 -21 106 l 608 990 q 661 988 642 988 q 713 990 682 988 l 768 117 m 471 400 l 454 731 l 219 400 l 471 400 z "},"Á":{"ha":929,"x_min":-133,"x_max":1057,"o":"m 768 117 q 792 50 772 71 q 836 28 811 29 l 831 0 q 596 4 750 4 q 360 0 435 4 l 365 28 q 439 40 413 31 q 476 73 465 49 q 485 144 488 97 l 472 372 l 200 372 l 65 182 q 32 103 32 135 q 160 28 32 38 l 154 0 q -43 4 11 4 q -133 0 -90 4 l -128 28 q -55 72 -89 39 q 42 193 -21 106 l 608 990 q 661 988 642 988 q 713 990 682 988 l 768 117 m 471 400 l 454 731 l 219 400 l 471 400 m 639 1089 q 724 1170 686 1131 q 771 1219 761 1210 q 838 1289 811 1264 q 897 1331 865 1314 q 961 1347 928 1347 q 1010 1335 988 1347 q 1047 1299 1033 1324 q 1057 1261 1057 1281 q 1038 1211 1057 1235 q 985 1169 1018 1188 q 835 1122 938 1144 q 649 1072 710 1092 l 639 1089 z "},"Ă":{"ha":929,"x_min":-133,"x_max":1028,"o":"m 768 117 q 792 50 772 71 q 836 28 811 29 l 831 0 q 596 4 750 4 q 360 0 435 4 l 365 28 q 439 40 413 31 q 476 73 465 49 q 485 144 488 97 l 472 372 l 200 372 l 65 182 q 32 103 32 135 q 160 28 32 38 l 154 0 q -43 4 11 4 q -133 0 -90 4 l -128 28 q -55 72 -89 39 q 42 193 -21 106 l 608 990 q 661 988 642 988 q 713 990 682 988 l 768 117 m 471 400 l 454 731 l 219 400 l 471 400 m 688 1225 q 866 1244 788 1225 q 1011 1303 944 1263 l 1028 1290 q 868 1127 969 1194 q 658 1060 767 1060 q 506 1122 563 1060 q 431 1286 449 1185 l 451 1297 q 550 1242 496 1260 q 688 1225 604 1225 z "},"Ắ":{"ha":929,"x_min":-133,"x_max":1118,"o":"m 768 117 q 792 50 772 71 q 836 28 811 29 l 831 0 q 596 4 750 4 q 360 0 435 4 l 365 28 q 439 40 413 31 q 476 73 465 49 q 485 144 488 97 l 472 372 l 200 372 l 65 182 q 32 103 32 135 q 160 28 32 38 l 154 0 q -43 4 11 4 q -133 0 -90 4 l -128 28 q -55 72 -89 39 q 42 193 -21 106 l 608 990 q 661 988 642 988 q 713 990 682 988 l 768 117 m 471 400 l 454 731 l 219 400 l 471 400 m 688 1225 q 866 1244 788 1225 q 1011 1303 944 1263 l 1028 1290 q 868 1127 969 1194 q 658 1060 767 1060 q 506 1122 563 1060 q 431 1286 449 1185 l 451 1297 q 550 1242 496 1260 q 688 1225 604 1225 m 700 1331 q 785 1412 747 1372 q 832 1461 822 1451 q 899 1531 872 1506 q 958 1572 926 1556 q 1022 1589 989 1589 q 1072 1577 1049 1589 q 1108 1540 1094 1565 q 1118 1503 1118 1522 q 1099 1453 1118 1476 q 1046 1411 1079 1429 q 896 1364 999 1386 q 710 1314 771 1333 l 700 1331 z "},"Ặ":{"ha":929,"x_min":-133,"x_max":1028,"o":"m 768 117 q 792 50 772 71 q 836 28 811 29 l 831 0 q 596 4 750 4 q 360 0 435 4 l 365 28 q 439 40 413 31 q 476 73 465 49 q 485 144 488 97 l 472 372 l 200 372 l 65 182 q 32 103 32 135 q 160 28 32 38 l 154 0 q -43 4 11 4 q -133 0 -90 4 l -128 28 q -55 72 -89 39 q 42 193 -21 106 l 608 990 q 661 988 642 988 q 713 990 682 988 l 768 117 m 471 400 l 454 731 l 219 400 l 471 400 m 688 1225 q 866 1244 788 1225 q 1011 1303 944 1263 l 1028 1290 q 868 1127 969 1194 q 658 1060 767 1060 q 506 1122 563 1060 q 431 1286 449 1185 l 451 1297 q 550 1242 496 1260 q 688 1225 604 1225 m 304 -265 q 228 -246 254 -265 q 201 -187 201 -226 q 239 -95 201 -128 q 342 -62 276 -62 q 418 -82 392 -62 q 444 -140 444 -101 q 407 -233 444 -200 q 304 -265 369 -265 z "},"Ằ":{"ha":929,"x_min":-133,"x_max":1028,"o":"m 768 117 q 792 50 772 71 q 836 28 811 29 l 831 0 q 596 4 750 4 q 360 0 435 4 l 365 28 q 439 40 413 31 q 476 73 465 49 q 485 144 488 97 l 472 372 l 200 372 l 65 182 q 32 103 32 135 q 160 28 32 38 l 154 0 q -43 4 11 4 q -133 0 -90 4 l -128 28 q -55 72 -89 39 q 42 193 -21 106 l 608 990 q 661 988 642 988 q 713 990 682 988 l 768 117 m 471 400 l 454 731 l 219 400 l 471 400 m 688 1225 q 866 1244 788 1225 q 1011 1303 944 1263 l 1028 1290 q 868 1127 969 1194 q 658 1060 767 1060 q 506 1122 563 1060 q 431 1286 449 1185 l 451 1297 q 550 1242 496 1260 q 688 1225 604 1225 m 803 1314 q 617 1356 715 1340 q 553 1368 576 1363 q 508 1385 529 1374 q 469 1420 483 1397 q 454 1468 454 1443 q 463 1504 454 1486 q 499 1542 475 1529 q 550 1556 522 1556 q 593 1546 575 1556 q 633 1520 617 1536 q 679 1468 649 1504 q 813 1331 738 1396 l 803 1314 z "},"Ẳ":{"ha":929,"x_min":-133,"x_max":1028,"o":"m 768 117 q 792 50 772 71 q 836 28 811 29 l 831 0 q 596 4 750 4 q 360 0 435 4 l 365 28 q 439 40 413 31 q 476 73 465 49 q 485 144 488 97 l 472 372 l 200 372 l 65 182 q 32 103 32 135 q 160 28 32 38 l 154 0 q -43 4 11 4 q -133 0 -90 4 l -128 28 q -55 72 -89 39 q 42 193 -21 106 l 608 990 q 661 988 642 988 q 713 990 682 988 l 768 117 m 471 400 l 454 731 l 219 400 l 471 400 m 688 1225 q 866 1244 788 1225 q 1011 1303 944 1263 l 1028 1290 q 868 1127 969 1194 q 658 1060 767 1060 q 506 1122 563 1060 q 431 1286 449 1185 l 451 1297 q 550 1242 496 1260 q 688 1225 604 1225 m 717 1338 q 739 1397 724 1375 q 781 1444 754 1419 q 823 1492 810 1471 q 836 1551 836 1514 q 749 1640 836 1640 q 686 1628 708 1640 q 744 1550 744 1604 q 717 1488 744 1511 q 649 1464 689 1464 q 593 1483 614 1464 q 572 1535 572 1503 q 656 1636 572 1597 q 814 1668 724 1668 q 941 1641 894 1668 q 988 1560 988 1614 q 958 1492 988 1514 q 871 1447 929 1469 q 783 1404 814 1426 q 744 1338 751 1382 l 717 1338 z "},"Ẵ":{"ha":929,"x_min":-133,"x_max":1103,"o":"m 768 117 q 792 50 772 71 q 836 28 811 29 l 831 0 q 596 4 750 4 q 360 0 435 4 l 365 28 q 439 40 413 31 q 476 73 465 49 q 485 144 488 97 l 472 372 l 200 372 l 65 182 q 32 103 32 135 q 160 28 32 38 l 154 0 q -43 4 11 4 q -133 0 -90 4 l -128 28 q -55 72 -89 39 q 42 193 -21 106 l 608 990 q 661 988 642 988 q 713 990 682 988 l 768 117 m 471 400 l 454 731 l 219 400 l 471 400 m 688 1225 q 866 1244 788 1225 q 1011 1303 944 1263 l 1028 1290 q 868 1127 969 1194 q 658 1060 767 1060 q 506 1122 563 1060 q 431 1286 449 1185 l 451 1297 q 550 1242 496 1260 q 688 1225 604 1225 m 685 1558 q 772 1544 738 1558 q 847 1501 807 1529 q 907 1467 883 1478 q 964 1457 931 1457 q 1024 1476 997 1457 q 1078 1538 1051 1494 l 1103 1531 q 989 1360 1060 1417 q 839 1304 918 1304 q 751 1319 786 1304 q 676 1361 717 1333 q 617 1395 640 1385 q 560 1406 593 1406 q 499 1387 526 1406 q 446 1325 472 1368 l 421 1332 q 535 1502 464 1446 q 685 1558 606 1558 z "},"Ǎ":{"ha":929,"x_min":-133,"x_max":1096,"o":"m 768 117 q 792 50 772 71 q 836 28 811 29 l 831 0 q 596 4 750 4 q 360 0 435 4 l 365 28 q 439 40 413 31 q 476 73 465 49 q 485 144 488 97 l 472 372 l 200 372 l 65 182 q 32 103 32 135 q 160 28 32 38 l 154 0 q -43 4 11 4 q -133 0 -90 4 l -128 28 q -55 72 -89 39 q 42 193 -21 106 l 608 990 q 661 988 642 988 q 713 990 682 988 l 768 117 m 471 400 l 454 731 l 219 400 l 471 400 m 776 1239 q 1089 1314 911 1285 l 1096 1294 q 863 1191 972 1256 q 686 1056 753 1126 l 661 1056 q 590 1196 633 1140 q 468 1294 547 1251 l 474 1314 q 642 1280 574 1297 q 776 1239 711 1263 z "},"Â":{"ha":929,"x_min":-133,"x_max":971,"o":"m 768 117 q 792 50 772 71 q 836 28 811 29 l 831 0 q 596 4 750 4 q 360 0 435 4 l 365 28 q 439 40 413 31 q 476 73 465 49 q 485 144 488 97 l 472 372 l 200 372 l 65 182 q 32 103 32 135 q 160 28 32 38 l 154 0 q -43 4 11 4 q -133 0 -90 4 l -128 28 q -55 72 -89 39 q 42 193 -21 106 l 608 990 q 661 988 642 988 q 713 990 682 988 l 768 117 m 471 400 l 454 731 l 219 400 l 471 400 m 663 1144 q 350 1069 528 1099 l 343 1089 q 576 1192 467 1128 q 753 1328 686 1257 l 778 1328 q 849 1188 806 1243 q 971 1089 892 1132 l 965 1069 q 797 1103 865 1086 q 663 1144 728 1121 z "},"Ấ":{"ha":929,"x_min":-133,"x_max":1133,"o":"m 768 117 q 792 50 772 71 q 836 28 811 29 l 831 0 q 596 4 750 4 q 360 0 435 4 l 365 28 q 439 40 413 31 q 476 73 465 49 q 485 144 488 97 l 472 372 l 200 372 l 65 182 q 32 103 32 135 q 160 28 32 38 l 154 0 q -43 4 11 4 q -133 0 -90 4 l -128 28 q -55 72 -89 39 q 42 193 -21 106 l 608 990 q 661 988 642 988 q 713 990 682 988 l 768 117 m 471 400 l 454 731 l 219 400 l 471 400 m 663 1144 q 350 1069 528 1099 l 343 1089 q 576 1192 467 1128 q 753 1328 686 1257 l 778 1328 q 849 1188 806 1243 q 971 1089 892 1132 l 965 1069 q 797 1103 865 1086 q 663 1144 728 1121 m 715 1394 q 800 1476 763 1436 q 847 1525 838 1515 q 915 1594 888 1569 q 974 1636 942 1619 q 1038 1653 1004 1653 q 1087 1641 1064 1653 q 1124 1604 1110 1629 q 1133 1567 1133 1586 q 1114 1517 1133 1540 q 1061 1475 1094 1493 q 911 1428 1014 1450 q 725 1378 786 1397 l 715 1394 z "},"Ậ":{"ha":929,"x_min":-133,"x_max":971,"o":"m 768 117 q 792 50 772 71 q 836 28 811 29 l 831 0 q 596 4 750 4 q 360 0 435 4 l 365 28 q 439 40 413 31 q 476 73 465 49 q 485 144 488 97 l 472 372 l 200 372 l 65 182 q 32 103 32 135 q 160 28 32 38 l 154 0 q -43 4 11 4 q -133 0 -90 4 l -128 28 q -55 72 -89 39 q 42 193 -21 106 l 608 990 q 661 988 642 988 q 713 990 682 988 l 768 117 m 471 400 l 454 731 l 219 400 l 471 400 m 663 1144 q 350 1069 528 1099 l 343 1089 q 576 1192 467 1128 q 753 1328 686 1257 l 778 1328 q 849 1188 806 1243 q 971 1089 892 1132 l 965 1069 q 797 1103 865 1086 q 663 1144 728 1121 m 304 -265 q 228 -246 254 -265 q 201 -187 201 -226 q 239 -95 201 -128 q 342 -62 276 -62 q 418 -82 392 -62 q 444 -140 444 -101 q 407 -233 444 -200 q 304 -265 369 -265 z "},"Ầ":{"ha":929,"x_min":-133,"x_max":971,"o":"m 768 117 q 792 50 772 71 q 836 28 811 29 l 831 0 q 596 4 750 4 q 360 0 435 4 l 365 28 q 439 40 413 31 q 476 73 465 49 q 485 144 488 97 l 472 372 l 200 372 l 65 182 q 32 103 32 135 q 160 28 32 38 l 154 0 q -43 4 11 4 q -133 0 -90 4 l -128 28 q -55 72 -89 39 q 42 193 -21 106 l 608 990 q 661 988 642 988 q 713 990 682 988 l 768 117 m 471 400 l 454 731 l 219 400 l 471 400 m 663 1144 q 350 1069 528 1099 l 343 1089 q 576 1192 467 1128 q 753 1328 686 1257 l 778 1328 q 849 1188 806 1243 q 971 1089 892 1132 l 965 1069 q 797 1103 865 1086 q 663 1144 728 1121 m 818 1378 q 632 1419 731 1404 q 568 1432 592 1426 q 524 1449 544 1438 q 484 1484 499 1461 q 469 1532 469 1507 q 478 1568 469 1550 q 514 1606 490 1593 q 565 1619 538 1619 q 608 1610 590 1619 q 648 1584 632 1600 q 694 1532 664 1568 q 828 1394 753 1460 l 818 1378 z "},"Ẩ":{"ha":929,"x_min":-133,"x_max":1275,"o":"m 768 117 q 792 50 772 71 q 836 28 811 29 l 831 0 q 596 4 750 4 q 360 0 435 4 l 365 28 q 439 40 413 31 q 476 73 465 49 q 485 144 488 97 l 472 372 l 200 372 l 65 182 q 32 103 32 135 q 160 28 32 38 l 154 0 q -43 4 11 4 q -133 0 -90 4 l -128 28 q -55 72 -89 39 q 42 193 -21 106 l 608 990 q 661 988 642 988 q 713 990 682 988 l 768 117 m 471 400 l 454 731 l 219 400 l 471 400 m 663 1144 q 350 1069 528 1099 l 343 1089 q 576 1192 467 1128 q 753 1328 686 1257 l 778 1328 q 849 1188 806 1243 q 971 1089 892 1132 l 965 1069 q 797 1103 865 1086 q 663 1144 728 1121 m 1004 1271 q 1026 1331 1011 1308 q 1068 1378 1042 1353 q 1110 1426 1097 1404 q 1124 1485 1124 1447 q 1036 1574 1124 1574 q 974 1561 996 1574 q 1032 1483 1032 1538 q 1004 1421 1032 1444 q 936 1397 976 1397 q 881 1417 901 1397 q 860 1468 860 1436 q 943 1569 860 1531 q 1101 1601 1011 1601 q 1228 1574 1182 1601 q 1275 1493 1275 1547 q 1246 1425 1275 1447 q 1158 1381 1217 1403 q 1070 1338 1101 1360 q 1032 1271 1039 1315 l 1004 1271 z "},"Ẫ":{"ha":929,"x_min":-133,"x_max":1118,"o":"m 768 117 q 792 50 772 71 q 836 28 811 29 l 831 0 q 596 4 750 4 q 360 0 435 4 l 365 28 q 439 40 413 31 q 476 73 465 49 q 485 144 488 97 l 472 372 l 200 372 l 65 182 q 32 103 32 135 q 160 28 32 38 l 154 0 q -43 4 11 4 q -133 0 -90 4 l -128 28 q -55 72 -89 39 q 42 193 -21 106 l 608 990 q 661 988 642 988 q 713 990 682 988 l 768 117 m 471 400 l 454 731 l 219 400 l 471 400 m 663 1144 q 350 1069 528 1099 l 343 1089 q 576 1192 467 1128 q 753 1328 686 1257 l 778 1328 q 849 1188 806 1243 q 971 1089 892 1132 l 965 1069 q 797 1103 865 1086 q 663 1144 728 1121 m 700 1622 q 788 1608 753 1622 q 863 1565 822 1593 q 922 1531 899 1542 q 979 1521 946 1521 q 1040 1540 1013 1521 q 1093 1601 1067 1558 l 1118 1594 q 1004 1424 1075 1481 q 854 1368 933 1368 q 767 1383 801 1368 q 692 1425 732 1397 q 632 1459 656 1449 q 575 1469 608 1469 q 515 1451 542 1469 q 461 1389 488 1432 l 436 1396 q 550 1566 479 1510 q 700 1622 621 1622 z "},"Ä":{"ha":929,"x_min":-133,"x_max":981,"o":"m 768 117 q 792 50 772 71 q 836 28 811 29 l 831 0 q 596 4 750 4 q 360 0 435 4 l 365 28 q 439 40 413 31 q 476 73 465 49 q 485 144 488 97 l 472 372 l 200 372 l 65 182 q 32 103 32 135 q 160 28 32 38 l 154 0 q -43 4 11 4 q -133 0 -90 4 l -128 28 q -55 72 -89 39 q 42 193 -21 106 l 608 990 q 661 988 642 988 q 713 990 682 988 l 768 117 m 471 400 l 454 731 l 219 400 l 471 400 m 381 1164 q 420 1266 381 1232 q 518 1300 460 1300 q 597 1271 571 1300 q 622 1192 622 1242 q 581 1092 622 1125 q 483 1058 540 1058 q 406 1086 431 1058 q 381 1164 381 1114 m 739 1164 q 778 1266 739 1232 q 876 1300 818 1300 q 955 1271 929 1300 q 981 1192 981 1242 q 940 1092 981 1125 q 842 1058 899 1058 q 764 1086 789 1058 q 739 1164 739 1114 z "},"Ạ":{"ha":929,"x_min":-133,"x_max":836,"o":"m 768 117 q 792 50 772 71 q 836 28 811 29 l 831 0 q 596 4 750 4 q 360 0 435 4 l 365 28 q 439 40 413 31 q 476 73 465 49 q 485 144 488 97 l 472 372 l 200 372 l 65 182 q 32 103 32 135 q 160 28 32 38 l 154 0 q -43 4 11 4 q -133 0 -90 4 l -128 28 q -55 72 -89 39 q 42 193 -21 106 l 608 990 q 661 988 642 988 q 713 990 682 988 l 768 117 m 471 400 l 454 731 l 219 400 l 471 400 m 304 -265 q 228 -246 254 -265 q 201 -187 201 -226 q 239 -95 201 -128 q 342 -62 276 -62 q 418 -82 392 -62 q 444 -140 444 -101 q 407 -233 444 -200 q 304 -265 369 -265 z "},"À":{"ha":929,"x_min":-133,"x_max":836,"o":"m 768 117 q 792 50 772 71 q 836 28 811 29 l 831 0 q 596 4 750 4 q 360 0 435 4 l 365 28 q 439 40 413 31 q 476 73 465 49 q 485 144 488 97 l 472 372 l 200 372 l 65 182 q 32 103 32 135 q 160 28 32 38 l 154 0 q -43 4 11 4 q -133 0 -90 4 l -128 28 q -55 72 -89 39 q 42 193 -21 106 l 608 990 q 661 988 642 988 q 713 990 682 988 l 768 117 m 471 400 l 454 731 l 219 400 l 471 400 m 742 1072 q 556 1114 654 1099 q 492 1126 515 1121 q 447 1143 468 1132 q 408 1178 422 1156 q 393 1226 393 1201 q 401 1263 393 1244 q 438 1301 414 1288 q 489 1314 461 1314 q 532 1304 514 1314 q 572 1278 556 1294 q 618 1226 588 1263 q 751 1089 676 1154 l 742 1072 z "},"Ả":{"ha":929,"x_min":-133,"x_max":919,"o":"m 768 117 q 792 50 772 71 q 836 28 811 29 l 831 0 q 596 4 750 4 q 360 0 435 4 l 365 28 q 439 40 413 31 q 476 73 465 49 q 485 144 488 97 l 472 372 l 200 372 l 65 182 q 32 103 32 135 q 160 28 32 38 l 154 0 q -43 4 11 4 q -133 0 -90 4 l -128 28 q -55 72 -89 39 q 42 193 -21 106 l 608 990 q 661 988 642 988 q 713 990 682 988 l 768 117 m 471 400 l 454 731 l 219 400 l 471 400 m 649 1026 q 671 1086 656 1064 q 713 1133 686 1108 q 755 1181 742 1160 q 768 1240 768 1203 q 681 1329 768 1329 q 618 1317 640 1329 q 676 1239 676 1293 q 649 1176 676 1200 q 581 1153 621 1153 q 525 1172 546 1153 q 504 1224 504 1192 q 588 1325 504 1286 q 746 1357 656 1357 q 873 1330 826 1357 q 919 1249 919 1303 q 890 1181 919 1203 q 803 1136 861 1158 q 715 1093 746 1115 q 676 1026 683 1071 l 649 1026 z "},"Ā":{"ha":929,"x_min":-133,"x_max":969,"o":"m 768 117 q 792 50 772 71 q 836 28 811 29 l 831 0 q 596 4 750 4 q 360 0 435 4 l 365 28 q 439 40 413 31 q 476 73 465 49 q 485 144 488 97 l 472 372 l 200 372 l 65 182 q 32 103 32 135 q 160 28 32 38 l 154 0 q -43 4 11 4 q -133 0 -90 4 l -128 28 q -55 72 -89 39 q 42 193 -21 106 l 608 990 q 661 988 642 988 q 713 990 682 988 l 768 117 m 471 400 l 454 731 l 219 400 l 471 400 m 961 1138 l 361 1138 l 369 1172 l 969 1172 l 961 1138 z "},"Ą":{"ha":929,"x_min":-133,"x_max":836,"o":"m 768 117 q 792 50 772 71 q 836 28 811 29 l 831 0 q 596 4 750 4 q 360 0 435 4 l 365 28 q 439 40 413 31 q 476 73 465 49 q 485 144 488 97 l 472 372 l 200 372 l 65 182 q 32 103 32 135 q 160 28 32 38 l 154 0 q -43 4 11 4 q -133 0 -90 4 l -128 28 q -55 72 -89 39 q 42 193 -21 106 l 608 990 q 661 988 642 988 q 713 990 682 988 l 768 117 m 471 400 l 454 731 l 219 400 l 471 400 m 763 4 q 663 -67 697 -22 q 628 -154 628 -112 q 668 -190 628 -190 q 767 -164 713 -190 l 782 -187 q 564 -261 676 -261 q 472 -239 506 -261 q 438 -176 438 -217 q 522 -70 438 -117 q 738 4 607 -24 l 763 4 z "},"Å":{"ha":929,"x_min":-133,"x_max":847,"o":"m 768 117 q 792 50 772 71 q 836 28 811 29 l 831 0 q 596 4 750 4 q 360 0 435 4 l 365 28 q 439 40 413 31 q 476 73 465 49 q 485 144 488 97 l 472 372 l 200 372 l 65 182 q 32 103 32 135 q 160 28 32 38 l 154 0 q -43 4 11 4 q -133 0 -90 4 l -128 28 q -55 72 -89 39 q 42 193 -21 106 l 608 990 q 661 988 642 988 q 713 990 682 988 l 768 117 m 471 400 l 454 731 l 219 400 l 471 400 m 700 1313 q 806 1278 764 1313 q 847 1189 847 1244 q 822 1110 847 1146 q 753 1052 796 1074 q 663 1031 711 1031 q 561 1065 601 1031 q 521 1156 521 1099 q 573 1267 521 1222 q 700 1313 625 1313 m 669 1060 q 768 1097 725 1060 q 811 1186 811 1135 q 776 1258 811 1233 q 696 1283 742 1283 q 599 1244 640 1283 q 558 1156 558 1206 q 592 1085 558 1111 q 669 1060 625 1060 z "},"Ã":{"ha":929,"x_min":-133,"x_max":1042,"o":"m 768 117 q 792 50 772 71 q 836 28 811 29 l 831 0 q 596 4 750 4 q 360 0 435 4 l 365 28 q 439 40 413 31 q 476 73 465 49 q 485 144 488 97 l 472 372 l 200 372 l 65 182 q 32 103 32 135 q 160 28 32 38 l 154 0 q -43 4 11 4 q -133 0 -90 4 l -128 28 q -55 72 -89 39 q 42 193 -21 106 l 608 990 q 661 988 642 988 q 713 990 682 988 l 768 117 m 471 400 l 454 731 l 219 400 l 471 400 m 624 1317 q 711 1302 676 1317 q 786 1260 746 1288 q 846 1226 822 1236 q 903 1215 869 1215 q 963 1234 936 1215 q 1017 1296 990 1253 l 1042 1289 q 928 1119 999 1175 q 778 1063 857 1063 q 690 1077 725 1063 q 615 1119 656 1092 q 556 1153 579 1143 q 499 1164 532 1164 q 438 1145 465 1164 q 385 1083 411 1126 l 360 1090 q 474 1260 403 1204 q 624 1317 544 1317 z "},"Æ":{"ha":1264,"x_min":-125,"x_max":1339,"o":"m 1051 979 q 1339 983 1251 979 q 1286 819 1321 933 q 1268 733 1274 778 l 1238 733 q 1247 832 1247 788 q 1218 924 1247 897 q 1125 951 1189 951 l 1065 951 q 992 944 1017 951 q 954 913 968 936 q 926 836 940 889 l 839 508 l 919 508 q 985 529 958 508 q 1027 581 1011 550 q 1063 664 1043 611 l 1093 664 q 1056 532 1071 596 l 1046 494 q 1010 325 1031 438 l 979 325 q 983 368 979 347 q 986 411 986 399 q 971 460 986 442 q 914 481 956 478 l 832 481 l 743 147 q 731 79 731 94 q 751 41 731 50 q 822 32 771 32 l 896 32 q 1006 55 963 32 q 1081 130 1049 78 q 1144 278 1113 182 l 1175 278 q 1146 178 1164 247 q 1110 0 1122 96 q 796 4 1015 4 q 313 0 474 4 l 318 28 q 393 39 368 31 q 433 71 418 47 q 461 147 447 94 l 550 481 l 331 481 l 42 131 q 11 91 21 106 q 1 65 1 76 q 88 28 1 33 l 88 0 q -32 4 50 4 q -125 0 -92 4 l -125 28 q -6 117 -82 31 l 654 917 q 629 945 650 938 q 563 956 608 953 l 569 983 l 708 981 l 785 1074 l 821 1074 l 744 981 q 1051 979 864 979 m 557 508 l 644 836 l 653 869 l 354 508 l 557 508 z "},"B":{"ha":986,"x_min":-67,"x_max":975,"o":"m 542 514 q 740 489 657 515 q 867 415 824 463 q 911 306 911 367 q 783 80 911 160 q 425 0 654 0 q 357 1 385 0 q 179 4 274 4 q -67 0 21 4 l -61 28 q 14 39 -11 31 q 53 71 39 47 q 82 147 68 94 l 265 836 q 278 903 278 886 q 257 942 278 931 q 183 956 236 954 l 190 983 q 432 979 275 979 l 564 981 q 639 982 590 982 q 975 794 975 982 q 924 657 975 719 q 775 556 874 594 q 542 514 676 518 m 625 956 q 581 936 596 956 q 551 857 567 917 l 463 522 l 483 522 q 603 567 553 522 q 678 683 653 611 q 703 838 703 756 q 686 924 703 893 q 625 956 669 956 m 408 32 q 515 76 467 32 q 590 190 563 119 q 617 333 617 260 q 585 453 617 407 q 483 499 554 499 l 457 499 l 364 147 q 353 85 353 108 q 408 32 353 32 z "},"C":{"ha":983,"x_min":51,"x_max":1067,"o":"m 1067 983 q 978 664 1021 864 l 947 664 q 961 783 961 738 q 938 885 961 846 q 875 947 911 929 q 785 964 839 964 q 581 874 676 964 q 428 632 485 783 q 371 310 371 481 q 419 101 371 169 q 553 33 467 33 q 649 55 600 33 q 733 114 697 76 q 797 202 769 154 q 858 333 824 250 l 889 333 q 807 0 824 93 l 776 0 q 781 47 781 29 q 763 83 781 83 q 735 71 751 83 q 457 -19 606 -19 q 151 72 250 -19 q 51 336 51 164 q 143 657 51 503 q 397 907 235 811 q 756 1003 558 1003 q 878 978 832 1003 q 961 913 925 954 q 981 900 972 900 q 1038 983 1008 900 l 1067 983 z "},"Ć":{"ha":983,"x_min":51,"x_max":1106,"o":"m 1067 983 q 978 664 1021 864 l 947 664 q 961 783 961 738 q 938 885 961 846 q 875 947 911 929 q 785 964 839 964 q 581 874 676 964 q 428 632 485 783 q 371 310 371 481 q 419 101 371 169 q 553 33 467 33 q 649 55 600 33 q 733 114 697 76 q 797 202 769 154 q 858 333 824 250 l 889 333 q 807 0 824 93 l 776 0 q 781 47 781 29 q 763 83 781 83 q 735 71 751 83 q 457 -19 606 -19 q 151 72 250 -19 q 51 336 51 164 q 143 657 51 503 q 397 907 235 811 q 756 1003 558 1003 q 878 978 832 1003 q 961 913 925 954 q 981 900 972 900 q 1038 983 1008 900 l 1067 983 m 688 1089 q 772 1170 735 1131 q 819 1219 810 1210 q 887 1289 860 1264 q 946 1331 914 1314 q 1010 1347 976 1347 q 1059 1335 1036 1347 q 1096 1299 1082 1324 q 1106 1261 1106 1281 q 1086 1211 1106 1235 q 1033 1169 1067 1188 q 883 1122 986 1144 q 697 1072 758 1092 l 688 1089 z "},"Č":{"ha":983,"x_min":51,"x_max":1144,"o":"m 1067 983 q 978 664 1021 864 l 947 664 q 961 783 961 738 q 938 885 961 846 q 875 947 911 929 q 785 964 839 964 q 581 874 676 964 q 428 632 485 783 q 371 310 371 481 q 419 101 371 169 q 553 33 467 33 q 649 55 600 33 q 733 114 697 76 q 797 202 769 154 q 858 333 824 250 l 889 333 q 807 0 824 93 l 776 0 q 781 47 781 29 q 763 83 781 83 q 735 71 751 83 q 457 -19 606 -19 q 151 72 250 -19 q 51 336 51 164 q 143 657 51 503 q 397 907 235 811 q 756 1003 558 1003 q 878 978 832 1003 q 961 913 925 954 q 981 900 972 900 q 1038 983 1008 900 l 1067 983 m 825 1239 q 1138 1314 960 1285 l 1144 1294 q 911 1191 1021 1256 q 735 1056 801 1126 l 710 1056 q 639 1196 682 1140 q 517 1294 596 1251 l 522 1314 q 691 1280 622 1297 q 825 1239 760 1263 z "},"Ç":{"ha":983,"x_min":51,"x_max":1067,"o":"m 1067 983 q 978 664 1021 864 l 947 664 q 961 783 961 738 q 938 885 961 846 q 875 947 911 929 q 785 964 839 964 q 581 874 676 964 q 428 632 485 783 q 371 310 371 481 q 419 101 371 169 q 553 33 467 33 q 649 55 600 33 q 733 114 697 76 q 797 202 769 154 q 858 333 824 250 l 889 333 q 807 0 824 93 l 776 0 q 781 47 781 29 q 763 83 781 83 q 735 71 751 83 q 457 -19 606 -19 q 151 72 250 -19 q 51 336 51 164 q 143 657 51 503 q 397 907 235 811 q 756 1003 558 1003 q 878 978 832 1003 q 961 913 925 954 q 981 900 972 900 q 1038 983 1008 900 l 1067 983 m 450 -79 q 536 -62 493 -62 q 614 -81 585 -62 q 643 -136 643 -99 q 569 -231 643 -200 q 392 -261 494 -261 q 301 -253 344 -261 q 231 -236 257 -246 l 239 -214 q 292 -223 258 -218 q 351 -228 325 -228 q 431 -215 396 -228 q 465 -169 465 -203 q 426 -137 465 -137 q 383 -147 404 -137 l 451 10 l 489 10 l 450 -79 z "},"Ĉ":{"ha":983,"x_min":51,"x_max":1067,"o":"m 1067 983 q 978 664 1021 864 l 947 664 q 961 783 961 738 q 938 885 961 846 q 875 947 911 929 q 785 964 839 964 q 581 874 676 964 q 428 632 485 783 q 371 310 371 481 q 419 101 371 169 q 553 33 467 33 q 649 55 600 33 q 733 114 697 76 q 797 202 769 154 q 858 333 824 250 l 889 333 q 807 0 824 93 l 776 0 q 781 47 781 29 q 763 83 781 83 q 735 71 751 83 q 457 -19 606 -19 q 151 72 250 -19 q 51 336 51 164 q 143 657 51 503 q 397 907 235 811 q 756 1003 558 1003 q 878 978 832 1003 q 961 913 925 954 q 981 900 972 900 q 1038 983 1008 900 l 1067 983 m 711 1144 q 399 1069 576 1099 l 392 1089 q 625 1192 515 1128 q 801 1328 735 1257 l 826 1328 q 897 1188 854 1243 q 1019 1089 940 1132 l 1014 1069 q 845 1103 914 1086 q 711 1144 776 1121 z "},"Ċ":{"ha":983,"x_min":51,"x_max":1067,"o":"m 1067 983 q 978 664 1021 864 l 947 664 q 961 783 961 738 q 938 885 961 846 q 875 947 911 929 q 785 964 839 964 q 581 874 676 964 q 428 632 485 783 q 371 310 371 481 q 419 101 371 169 q 553 33 467 33 q 649 55 600 33 q 733 114 697 76 q 797 202 769 154 q 858 333 824 250 l 889 333 q 807 0 824 93 l 776 0 q 781 47 781 29 q 763 83 781 83 q 735 71 751 83 q 457 -19 606 -19 q 151 72 250 -19 q 51 336 51 164 q 143 657 51 503 q 397 907 235 811 q 756 1003 558 1003 q 878 978 832 1003 q 961 913 925 954 q 981 900 972 900 q 1038 983 1008 900 l 1067 983 m 583 1147 q 630 1257 583 1219 q 753 1294 676 1294 q 845 1271 814 1294 q 876 1200 876 1247 q 828 1096 876 1136 q 706 1056 779 1056 q 615 1079 646 1056 q 583 1147 583 1103 z "},"D":{"ha":1114,"x_min":-60,"x_max":1099,"o":"m 1099 635 q 1026 339 1099 485 q 796 97 954 193 q 396 0 638 0 q 333 1 358 0 q 176 4 256 4 q -60 0 24 4 l -56 28 q 16 39 -8 31 q 55 72 40 47 q 83 147 69 96 l 265 836 q 274 890 274 868 q 253 937 274 921 q 185 956 233 953 l 189 983 q 404 979 260 979 l 456 979 q 661 983 572 983 q 984 895 869 983 q 1099 635 1099 807 m 407 25 q 622 126 529 25 q 763 381 714 228 q 813 685 813 535 q 636 958 813 958 q 592 950 606 958 q 571 922 578 942 q 547 839 564 903 l 365 144 q 349 61 349 81 q 361 33 349 40 q 407 25 374 25 z "},"Ð":{"ha":1114,"x_min":-60,"x_max":1099,"o":"m 1099 635 q 1026 339 1099 485 q 796 97 954 193 q 396 0 638 0 q 333 1 358 0 q 176 4 256 4 q -60 0 24 4 l -56 28 q 16 39 -8 31 q 55 72 40 47 q 83 147 69 96 l 265 836 q 274 890 274 868 q 253 937 274 921 q 185 956 233 953 l 189 983 q 404 979 260 979 l 456 979 q 661 983 572 983 q 984 895 869 983 q 1099 635 1099 807 m 407 25 q 622 126 529 25 q 763 381 714 228 q 813 685 813 535 q 636 958 813 958 q 592 950 606 958 q 571 922 578 942 q 547 839 564 903 l 365 144 q 349 61 349 81 q 361 33 349 40 q 407 25 374 25 m 626 474 l 26 474 l 35 508 l 635 508 l 626 474 z "},"Ď":{"ha":1114,"x_min":-60,"x_max":1099,"o":"m 1099 635 q 1026 339 1099 485 q 796 97 954 193 q 396 0 638 0 q 333 1 358 0 q 176 4 256 4 q -60 0 24 4 l -56 28 q 16 39 -8 31 q 55 72 40 47 q 83 147 69 96 l 265 836 q 274 890 274 868 q 253 937 274 921 q 185 956 233 953 l 189 983 q 404 979 260 979 l 456 979 q 661 983 572 983 q 984 895 869 983 q 1099 635 1099 807 m 407 25 q 622 126 529 25 q 763 381 714 228 q 813 685 813 535 q 636 958 813 958 q 592 950 606 958 q 571 922 578 942 q 547 839 564 903 l 365 144 q 349 61 349 81 q 361 33 349 40 q 407 25 374 25 m 769 1239 q 1082 1314 904 1285 l 1089 1294 q 856 1191 965 1256 q 679 1056 746 1126 l 654 1056 q 583 1196 626 1140 q 461 1294 540 1251 l 467 1314 q 635 1280 567 1297 q 769 1239 704 1263 z "},"Đ":{"ha":1114,"x_min":-60,"x_max":1099,"o":"m 1099 635 q 1026 339 1099 485 q 796 97 954 193 q 396 0 638 0 q 333 1 358 0 q 176 4 256 4 q -60 0 24 4 l -56 28 q 16 39 -8 31 q 55 72 40 47 q 83 147 69 96 l 265 836 q 274 890 274 868 q 253 937 274 921 q 185 956 233 953 l 189 983 q 404 979 260 979 l 456 979 q 661 983 572 983 q 984 895 869 983 q 1099 635 1099 807 m 407 25 q 622 126 529 25 q 763 381 714 228 q 813 685 813 535 q 636 958 813 958 q 592 950 606 958 q 571 922 578 942 q 547 839 564 903 l 365 144 q 349 61 349 81 q 361 33 349 40 q 407 25 374 25 m 626 474 l 26 474 l 35 508 l 635 508 l 626 474 z "},"E":{"ha":885,"x_min":-67,"x_max":960,"o":"m 672 979 q 960 983 872 979 q 907 819 925 892 q 889 733 899 789 l 858 733 q 818 902 860 853 q 690 951 776 951 l 686 951 q 613 944 638 951 q 575 913 589 936 q 547 836 561 889 l 460 508 l 485 508 q 604 554 550 508 q 683 664 658 600 l 714 664 q 676 532 692 596 l 667 494 q 649 419 657 457 q 631 325 640 382 l 600 325 q 568 433 600 385 q 465 481 536 481 l 453 481 l 364 147 q 351 79 351 94 q 372 41 351 50 q 443 32 392 32 l 461 32 q 630 87 561 32 q 765 278 699 142 l 796 278 q 767 178 785 247 q 731 0 743 96 q 417 4 636 4 q -67 0 94 4 l -61 28 q 14 39 -11 31 q 53 71 39 47 q 82 147 68 94 l 265 836 q 276 903 276 883 q 256 943 276 933 q 183 956 236 953 l 190 983 q 672 979 350 979 z "},"É":{"ha":885,"x_min":-67,"x_max":996,"o":"m 672 979 q 960 983 872 979 q 907 819 925 892 q 889 733 899 789 l 858 733 q 818 902 860 853 q 690 951 776 951 l 686 951 q 613 944 638 951 q 575 913 589 936 q 547 836 561 889 l 460 508 l 485 508 q 604 554 550 508 q 683 664 658 600 l 714 664 q 676 532 692 596 l 667 494 q 649 419 657 457 q 631 325 640 382 l 600 325 q 568 433 600 385 q 465 481 536 481 l 453 481 l 364 147 q 351 79 351 94 q 372 41 351 50 q 443 32 392 32 l 461 32 q 630 87 561 32 q 765 278 699 142 l 796 278 q 767 178 785 247 q 731 0 743 96 q 417 4 636 4 q -67 0 94 4 l -61 28 q 14 39 -11 31 q 53 71 39 47 q 82 147 68 94 l 265 836 q 276 903 276 883 q 256 943 276 933 q 183 956 236 953 l 190 983 q 672 979 350 979 m 578 1089 q 663 1170 625 1131 q 710 1219 700 1210 q 777 1289 750 1264 q 836 1331 804 1314 q 900 1347 867 1347 q 949 1335 926 1347 q 986 1299 972 1324 q 996 1261 996 1281 q 976 1211 996 1235 q 924 1169 957 1188 q 774 1122 876 1144 q 588 1072 649 1092 l 578 1089 z "},"Ĕ":{"ha":885,"x_min":-67,"x_max":967,"o":"m 672 979 q 960 983 872 979 q 907 819 925 892 q 889 733 899 789 l 858 733 q 818 902 860 853 q 690 951 776 951 l 686 951 q 613 944 638 951 q 575 913 589 936 q 547 836 561 889 l 460 508 l 485 508 q 604 554 550 508 q 683 664 658 600 l 714 664 q 676 532 692 596 l 667 494 q 649 419 657 457 q 631 325 640 382 l 600 325 q 568 433 600 385 q 465 481 536 481 l 453 481 l 364 147 q 351 79 351 94 q 372 41 351 50 q 443 32 392 32 l 461 32 q 630 87 561 32 q 765 278 699 142 l 796 278 q 767 178 785 247 q 731 0 743 96 q 417 4 636 4 q -67 0 94 4 l -61 28 q 14 39 -11 31 q 53 71 39 47 q 82 147 68 94 l 265 836 q 276 903 276 883 q 256 943 276 933 q 183 956 236 953 l 190 983 q 672 979 350 979 m 626 1225 q 805 1244 726 1225 q 950 1303 883 1263 l 967 1290 q 807 1127 908 1194 q 597 1060 706 1060 q 444 1122 501 1060 q 369 1286 388 1185 l 390 1297 q 489 1242 435 1260 q 626 1225 543 1225 z "},"Ě":{"ha":885,"x_min":-67,"x_max":1035,"o":"m 672 979 q 960 983 872 979 q 907 819 925 892 q 889 733 899 789 l 858 733 q 818 902 860 853 q 690 951 776 951 l 686 951 q 613 944 638 951 q 575 913 589 936 q 547 836 561 889 l 460 508 l 485 508 q 604 554 550 508 q 683 664 658 600 l 714 664 q 676 532 692 596 l 667 494 q 649 419 657 457 q 631 325 640 382 l 600 325 q 568 433 600 385 q 465 481 536 481 l 453 481 l 364 147 q 351 79 351 94 q 372 41 351 50 q 443 32 392 32 l 461 32 q 630 87 561 32 q 765 278 699 142 l 796 278 q 767 178 785 247 q 731 0 743 96 q 417 4 636 4 q -67 0 94 4 l -61 28 q 14 39 -11 31 q 53 71 39 47 q 82 147 68 94 l 265 836 q 276 903 276 883 q 256 943 276 933 q 183 956 236 953 l 190 983 q 672 979 350 979 m 715 1239 q 1028 1314 850 1285 l 1035 1294 q 801 1191 911 1256 q 625 1056 692 1126 l 600 1056 q 529 1196 572 1140 q 407 1294 486 1251 l 413 1314 q 581 1280 513 1297 q 715 1239 650 1263 z "},"Ê":{"ha":885,"x_min":-67,"x_max":960,"o":"m 672 979 q 960 983 872 979 q 907 819 925 892 q 889 733 899 789 l 858 733 q 818 902 860 853 q 690 951 776 951 l 686 951 q 613 944 638 951 q 575 913 589 936 q 547 836 561 889 l 460 508 l 485 508 q 604 554 550 508 q 683 664 658 600 l 714 664 q 676 532 692 596 l 667 494 q 649 419 657 457 q 631 325 640 382 l 600 325 q 568 433 600 385 q 465 481 536 481 l 453 481 l 364 147 q 351 79 351 94 q 372 41 351 50 q 443 32 392 32 l 461 32 q 630 87 561 32 q 765 278 699 142 l 796 278 q 767 178 785 247 q 731 0 743 96 q 417 4 636 4 q -67 0 94 4 l -61 28 q 14 39 -11 31 q 53 71 39 47 q 82 147 68 94 l 265 836 q 276 903 276 883 q 256 943 276 933 q 183 956 236 953 l 190 983 q 672 979 350 979 m 601 1144 q 289 1069 467 1099 l 282 1089 q 515 1192 406 1128 q 692 1328 625 1257 l 717 1328 q 788 1188 744 1243 q 910 1089 831 1132 l 904 1069 q 735 1103 804 1086 q 601 1144 667 1121 z "},"Ế":{"ha":885,"x_min":-67,"x_max":1072,"o":"m 672 979 q 960 983 872 979 q 907 819 925 892 q 889 733 899 789 l 858 733 q 818 902 860 853 q 690 951 776 951 l 686 951 q 613 944 638 951 q 575 913 589 936 q 547 836 561 889 l 460 508 l 485 508 q 604 554 550 508 q 683 664 658 600 l 714 664 q 676 532 692 596 l 667 494 q 649 419 657 457 q 631 325 640 382 l 600 325 q 568 433 600 385 q 465 481 536 481 l 453 481 l 364 147 q 351 79 351 94 q 372 41 351 50 q 443 32 392 32 l 461 32 q 630 87 561 32 q 765 278 699 142 l 796 278 q 767 178 785 247 q 731 0 743 96 q 417 4 636 4 q -67 0 94 4 l -61 28 q 14 39 -11 31 q 53 71 39 47 q 82 147 68 94 l 265 836 q 276 903 276 883 q 256 943 276 933 q 183 956 236 953 l 190 983 q 672 979 350 979 m 601 1144 q 289 1069 467 1099 l 282 1089 q 515 1192 406 1128 q 692 1328 625 1257 l 717 1328 q 788 1188 744 1243 q 910 1089 831 1132 l 904 1069 q 735 1103 804 1086 q 601 1144 667 1121 m 654 1394 q 739 1476 701 1436 q 786 1525 776 1515 q 853 1594 826 1569 q 913 1636 881 1619 q 976 1653 943 1653 q 1026 1641 1003 1653 q 1063 1604 1049 1629 q 1072 1567 1072 1586 q 1053 1517 1072 1540 q 1000 1475 1033 1493 q 850 1428 953 1450 q 664 1378 725 1397 l 654 1394 z "},"Ệ":{"ha":885,"x_min":-67,"x_max":960,"o":"m 672 979 q 960 983 872 979 q 907 819 925 892 q 889 733 899 789 l 858 733 q 818 902 860 853 q 690 951 776 951 l 686 951 q 613 944 638 951 q 575 913 589 936 q 547 836 561 889 l 460 508 l 485 508 q 604 554 550 508 q 683 664 658 600 l 714 664 q 676 532 692 596 l 667 494 q 649 419 657 457 q 631 325 640 382 l 600 325 q 568 433 600 385 q 465 481 536 481 l 453 481 l 364 147 q 351 79 351 94 q 372 41 351 50 q 443 32 392 32 l 461 32 q 630 87 561 32 q 765 278 699 142 l 796 278 q 767 178 785 247 q 731 0 743 96 q 417 4 636 4 q -67 0 94 4 l -61 28 q 14 39 -11 31 q 53 71 39 47 q 82 147 68 94 l 265 836 q 276 903 276 883 q 256 943 276 933 q 183 956 236 953 l 190 983 q 672 979 350 979 m 344 -265 q 268 -246 294 -265 q 242 -187 242 -226 q 279 -95 242 -128 q 382 -62 317 -62 q 458 -82 432 -62 q 485 -140 485 -101 q 447 -233 485 -200 q 344 -265 410 -265 m 601 1144 q 289 1069 467 1099 l 282 1089 q 515 1192 406 1128 q 692 1328 625 1257 l 717 1328 q 788 1188 744 1243 q 910 1089 831 1132 l 904 1069 q 735 1103 804 1086 q 601 1144 667 1121 z "},"Ề":{"ha":885,"x_min":-67,"x_max":960,"o":"m 672 979 q 960 983 872 979 q 907 819 925 892 q 889 733 899 789 l 858 733 q 818 902 860 853 q 690 951 776 951 l 686 951 q 613 944 638 951 q 575 913 589 936 q 547 836 561 889 l 460 508 l 485 508 q 604 554 550 508 q 683 664 658 600 l 714 664 q 676 532 692 596 l 667 494 q 649 419 657 457 q 631 325 640 382 l 600 325 q 568 433 600 385 q 465 481 536 481 l 453 481 l 364 147 q 351 79 351 94 q 372 41 351 50 q 443 32 392 32 l 461 32 q 630 87 561 32 q 765 278 699 142 l 796 278 q 767 178 785 247 q 731 0 743 96 q 417 4 636 4 q -67 0 94 4 l -61 28 q 14 39 -11 31 q 53 71 39 47 q 82 147 68 94 l 265 836 q 276 903 276 883 q 256 943 276 933 q 183 956 236 953 l 190 983 q 672 979 350 979 m 601 1144 q 289 1069 467 1099 l 282 1089 q 515 1192 406 1128 q 692 1328 625 1257 l 717 1328 q 788 1188 744 1243 q 910 1089 831 1132 l 904 1069 q 735 1103 804 1086 q 601 1144 667 1121 m 757 1378 q 571 1419 669 1404 q 507 1432 531 1426 q 463 1449 483 1438 q 423 1484 438 1461 q 408 1532 408 1507 q 417 1568 408 1550 q 453 1606 429 1593 q 504 1619 476 1619 q 547 1610 529 1619 q 587 1584 571 1600 q 633 1532 603 1568 q 767 1394 692 1460 l 757 1378 z "},"Ể":{"ha":885,"x_min":-67,"x_max":1214,"o":"m 672 979 q 960 983 872 979 q 907 819 925 892 q 889 733 899 789 l 858 733 q 818 902 860 853 q 690 951 776 951 l 686 951 q 613 944 638 951 q 575 913 589 936 q 547 836 561 889 l 460 508 l 485 508 q 604 554 550 508 q 683 664 658 600 l 714 664 q 676 532 692 596 l 667 494 q 649 419 657 457 q 631 325 640 382 l 600 325 q 568 433 600 385 q 465 481 536 481 l 453 481 l 364 147 q 351 79 351 94 q 372 41 351 50 q 443 32 392 32 l 461 32 q 630 87 561 32 q 765 278 699 142 l 796 278 q 767 178 785 247 q 731 0 743 96 q 417 4 636 4 q -67 0 94 4 l -61 28 q 14 39 -11 31 q 53 71 39 47 q 82 147 68 94 l 265 836 q 276 903 276 883 q 256 943 276 933 q 183 956 236 953 l 190 983 q 672 979 350 979 m 601 1144 q 289 1069 467 1099 l 282 1089 q 515 1192 406 1128 q 692 1328 625 1257 l 717 1328 q 788 1188 744 1243 q 910 1089 831 1132 l 904 1069 q 735 1103 804 1086 q 601 1144 667 1121 m 943 1271 q 965 1331 950 1308 q 1007 1378 981 1353 q 1049 1426 1036 1404 q 1063 1485 1063 1447 q 975 1574 1063 1574 q 913 1561 935 1574 q 971 1483 971 1538 q 943 1421 971 1444 q 875 1397 915 1397 q 819 1417 840 1397 q 799 1468 799 1436 q 882 1569 799 1531 q 1040 1601 950 1601 q 1167 1574 1121 1601 q 1214 1493 1214 1547 q 1185 1425 1214 1447 q 1097 1381 1156 1403 q 1009 1338 1040 1360 q 971 1271 978 1315 l 943 1271 z "},"Ễ":{"ha":885,"x_min":-67,"x_max":1057,"o":"m 672 979 q 960 983 872 979 q 907 819 925 892 q 889 733 899 789 l 858 733 q 818 902 860 853 q 690 951 776 951 l 686 951 q 613 944 638 951 q 575 913 589 936 q 547 836 561 889 l 460 508 l 485 508 q 604 554 550 508 q 683 664 658 600 l 714 664 q 676 532 692 596 l 667 494 q 649 419 657 457 q 631 325 640 382 l 600 325 q 568 433 600 385 q 465 481 536 481 l 453 481 l 364 147 q 351 79 351 94 q 372 41 351 50 q 443 32 392 32 l 461 32 q 630 87 561 32 q 765 278 699 142 l 796 278 q 767 178 785 247 q 731 0 743 96 q 417 4 636 4 q -67 0 94 4 l -61 28 q 14 39 -11 31 q 53 71 39 47 q 82 147 68 94 l 265 836 q 276 903 276 883 q 256 943 276 933 q 183 956 236 953 l 190 983 q 672 979 350 979 m 601 1144 q 289 1069 467 1099 l 282 1089 q 515 1192 406 1128 q 692 1328 625 1257 l 717 1328 q 788 1188 744 1243 q 910 1089 831 1132 l 904 1069 q 735 1103 804 1086 q 601 1144 667 1121 m 639 1622 q 726 1608 692 1622 q 801 1565 761 1593 q 861 1531 838 1542 q 918 1521 885 1521 q 978 1540 951 1521 q 1032 1601 1006 1558 l 1057 1594 q 943 1424 1014 1481 q 793 1368 872 1368 q 706 1383 740 1368 q 631 1425 671 1397 q 571 1459 594 1449 q 514 1469 547 1469 q 453 1451 481 1469 q 400 1389 426 1432 l 375 1396 q 489 1566 418 1510 q 639 1622 560 1622 z "},"Ë":{"ha":885,"x_min":-67,"x_max":960,"o":"m 672 979 q 960 983 872 979 q 907 819 925 892 q 889 733 899 789 l 858 733 q 818 902 860 853 q 690 951 776 951 l 686 951 q 613 944 638 951 q 575 913 589 936 q 547 836 561 889 l 460 508 l 485 508 q 604 554 550 508 q 683 664 658 600 l 714 664 q 676 532 692 596 l 667 494 q 649 419 657 457 q 631 325 640 382 l 600 325 q 568 433 600 385 q 465 481 536 481 l 453 481 l 364 147 q 351 79 351 94 q 372 41 351 50 q 443 32 392 32 l 461 32 q 630 87 561 32 q 765 278 699 142 l 796 278 q 767 178 785 247 q 731 0 743 96 q 417 4 636 4 q -67 0 94 4 l -61 28 q 14 39 -11 31 q 53 71 39 47 q 82 147 68 94 l 265 836 q 276 903 276 883 q 256 943 276 933 q 183 956 236 953 l 190 983 q 672 979 350 979 m 319 1164 q 359 1266 319 1232 q 457 1300 399 1300 q 535 1271 510 1300 q 561 1192 561 1242 q 520 1092 561 1125 q 422 1058 479 1058 q 344 1086 369 1058 q 319 1164 319 1114 m 678 1164 q 717 1266 678 1232 q 815 1300 757 1300 q 894 1271 868 1300 q 919 1192 919 1242 q 878 1092 919 1125 q 781 1058 838 1058 q 703 1086 728 1058 q 678 1164 678 1114 z "},"Ė":{"ha":885,"x_min":-67,"x_max":960,"o":"m 672 979 q 960 983 872 979 q 907 819 925 892 q 889 733 899 789 l 858 733 q 818 902 860 853 q 690 951 776 951 l 686 951 q 613 944 638 951 q 575 913 589 936 q 547 836 561 889 l 460 508 l 485 508 q 604 554 550 508 q 683 664 658 600 l 714 664 q 676 532 692 596 l 667 494 q 649 419 657 457 q 631 325 640 382 l 600 325 q 568 433 600 385 q 465 481 536 481 l 453 481 l 364 147 q 351 79 351 94 q 372 41 351 50 q 443 32 392 32 l 461 32 q 630 87 561 32 q 765 278 699 142 l 796 278 q 767 178 785 247 q 731 0 743 96 q 417 4 636 4 q -67 0 94 4 l -61 28 q 14 39 -11 31 q 53 71 39 47 q 82 147 68 94 l 265 836 q 276 903 276 883 q 256 943 276 933 q 183 956 236 953 l 190 983 q 672 979 350 979 m 474 1147 q 520 1257 474 1219 q 643 1294 567 1294 q 735 1271 704 1294 q 767 1200 767 1247 q 718 1096 767 1136 q 596 1056 669 1056 q 505 1079 536 1056 q 474 1147 474 1103 z "},"Ẹ":{"ha":885,"x_min":-67,"x_max":960,"o":"m 672 979 q 960 983 872 979 q 907 819 925 892 q 889 733 899 789 l 858 733 q 818 902 860 853 q 690 951 776 951 l 686 951 q 613 944 638 951 q 575 913 589 936 q 547 836 561 889 l 460 508 l 485 508 q 604 554 550 508 q 683 664 658 600 l 714 664 q 676 532 692 596 l 667 494 q 649 419 657 457 q 631 325 640 382 l 600 325 q 568 433 600 385 q 465 481 536 481 l 453 481 l 364 147 q 351 79 351 94 q 372 41 351 50 q 443 32 392 32 l 461 32 q 630 87 561 32 q 765 278 699 142 l 796 278 q 767 178 785 247 q 731 0 743 96 q 417 4 636 4 q -67 0 94 4 l -61 28 q 14 39 -11 31 q 53 71 39 47 q 82 147 68 94 l 265 836 q 276 903 276 883 q 256 943 276 933 q 183 956 236 953 l 190 983 q 672 979 350 979 m 344 -265 q 268 -246 294 -265 q 242 -187 242 -226 q 279 -95 242 -128 q 382 -62 317 -62 q 458 -82 432 -62 q 485 -140 485 -101 q 447 -233 485 -200 q 344 -265 410 -265 z "},"È":{"ha":885,"x_min":-67,"x_max":960,"o":"m 672 979 q 960 983 872 979 q 907 819 925 892 q 889 733 899 789 l 858 733 q 818 902 860 853 q 690 951 776 951 l 686 951 q 613 944 638 951 q 575 913 589 936 q 547 836 561 889 l 460 508 l 485 508 q 604 554 550 508 q 683 664 658 600 l 714 664 q 676 532 692 596 l 667 494 q 649 419 657 457 q 631 325 640 382 l 600 325 q 568 433 600 385 q 465 481 536 481 l 453 481 l 364 147 q 351 79 351 94 q 372 41 351 50 q 443 32 392 32 l 461 32 q 630 87 561 32 q 765 278 699 142 l 796 278 q 767 178 785 247 q 731 0 743 96 q 417 4 636 4 q -67 0 94 4 l -61 28 q 14 39 -11 31 q 53 71 39 47 q 82 147 68 94 l 265 836 q 276 903 276 883 q 256 943 276 933 q 183 956 236 953 l 190 983 q 672 979 350 979 m 681 1072 q 494 1114 593 1099 q 431 1126 454 1121 q 386 1143 407 1132 q 347 1178 361 1156 q 332 1226 332 1201 q 340 1263 332 1244 q 376 1301 353 1288 q 428 1314 400 1314 q 471 1304 453 1314 q 510 1278 494 1294 q 557 1226 526 1263 q 690 1089 615 1154 l 681 1072 z "},"Ẻ":{"ha":885,"x_min":-67,"x_max":960,"o":"m 672 979 q 960 983 872 979 q 907 819 925 892 q 889 733 899 789 l 858 733 q 818 902 860 853 q 690 951 776 951 l 686 951 q 613 944 638 951 q 575 913 589 936 q 547 836 561 889 l 460 508 l 485 508 q 604 554 550 508 q 683 664 658 600 l 714 664 q 676 532 692 596 l 667 494 q 649 419 657 457 q 631 325 640 382 l 600 325 q 568 433 600 385 q 465 481 536 481 l 453 481 l 364 147 q 351 79 351 94 q 372 41 351 50 q 443 32 392 32 l 461 32 q 630 87 561 32 q 765 278 699 142 l 796 278 q 767 178 785 247 q 731 0 743 96 q 417 4 636 4 q -67 0 94 4 l -61 28 q 14 39 -11 31 q 53 71 39 47 q 82 147 68 94 l 265 836 q 276 903 276 883 q 256 943 276 933 q 183 956 236 953 l 190 983 q 672 979 350 979 m 588 1026 q 610 1086 594 1064 q 651 1133 625 1108 q 694 1181 681 1160 q 707 1240 707 1203 q 619 1329 707 1329 q 557 1317 579 1329 q 615 1239 615 1293 q 588 1176 615 1200 q 519 1153 560 1153 q 464 1172 485 1153 q 443 1224 443 1192 q 526 1325 443 1286 q 685 1357 594 1357 q 812 1330 765 1357 q 858 1249 858 1303 q 829 1181 858 1203 q 742 1136 800 1158 q 653 1093 685 1115 q 615 1026 622 1071 l 588 1026 z "},"Ē":{"ha":885,"x_min":-67,"x_max":960,"o":"m 672 979 q 960 983 872 979 q 907 819 925 892 q 889 733 899 789 l 858 733 q 818 902 860 853 q 690 951 776 951 l 686 951 q 613 944 638 951 q 575 913 589 936 q 547 836 561 889 l 460 508 l 485 508 q 604 554 550 508 q 683 664 658 600 l 714 664 q 676 532 692 596 l 667 494 q 649 419 657 457 q 631 325 640 382 l 600 325 q 568 433 600 385 q 465 481 536 481 l 453 481 l 364 147 q 351 79 351 94 q 372 41 351 50 q 443 32 392 32 l 461 32 q 630 87 561 32 q 765 278 699 142 l 796 278 q 767 178 785 247 q 731 0 743 96 q 417 4 636 4 q -67 0 94 4 l -61 28 q 14 39 -11 31 q 53 71 39 47 q 82 147 68 94 l 265 836 q 276 903 276 883 q 256 943 276 933 q 183 956 236 953 l 190 983 q 672 979 350 979 m 900 1138 l 300 1138 l 308 1172 l 908 1172 l 900 1138 z "},"Ę":{"ha":885,"x_min":-67,"x_max":960,"o":"m 672 979 q 960 983 872 979 q 907 819 925 892 q 889 733 899 789 l 858 733 q 818 902 860 853 q 690 951 776 951 l 686 951 q 613 944 638 951 q 575 913 589 936 q 547 836 561 889 l 460 508 l 485 508 q 604 554 550 508 q 683 664 658 600 l 714 664 q 676 532 692 596 l 667 494 q 649 419 657 457 q 631 325 640 382 l 600 325 q 568 433 600 385 q 465 481 536 481 l 453 481 l 364 147 q 351 79 351 94 q 372 41 351 50 q 443 32 392 32 l 461 32 q 630 87 561 32 q 765 278 699 142 l 796 278 q 767 178 785 247 q 731 0 743 96 q 417 4 636 4 q -67 0 94 4 l -61 28 q 14 39 -11 31 q 53 71 39 47 q 82 147 68 94 l 265 836 q 276 903 276 883 q 256 943 276 933 q 183 956 236 953 l 190 983 q 672 979 350 979 m 728 4 q 628 -67 663 -22 q 593 -154 593 -112 q 633 -190 593 -190 q 732 -164 678 -190 l 747 -187 q 529 -261 642 -261 q 437 -239 471 -261 q 403 -176 403 -217 q 488 -70 403 -117 q 703 4 572 -24 l 728 4 z "},"Ẽ":{"ha":885,"x_min":-67,"x_max":981,"o":"m 672 979 q 960 983 872 979 q 907 819 925 892 q 889 733 899 789 l 858 733 q 818 902 860 853 q 690 951 776 951 l 686 951 q 613 944 638 951 q 575 913 589 936 q 547 836 561 889 l 460 508 l 485 508 q 604 554 550 508 q 683 664 658 600 l 714 664 q 676 532 692 596 l 667 494 q 649 419 657 457 q 631 325 640 382 l 600 325 q 568 433 600 385 q 465 481 536 481 l 453 481 l 364 147 q 351 79 351 94 q 372 41 351 50 q 443 32 392 32 l 461 32 q 630 87 561 32 q 765 278 699 142 l 796 278 q 767 178 785 247 q 731 0 743 96 q 417 4 636 4 q -67 0 94 4 l -61 28 q 14 39 -11 31 q 53 71 39 47 q 82 147 68 94 l 265 836 q 276 903 276 883 q 256 943 276 933 q 183 956 236 953 l 190 983 q 672 979 350 979 m 563 1317 q 650 1302 615 1317 q 725 1260 685 1288 q 785 1226 761 1236 q 842 1215 808 1215 q 902 1234 875 1215 q 956 1296 929 1253 l 981 1289 q 867 1119 938 1175 q 717 1063 796 1063 q 629 1077 664 1063 q 554 1119 594 1092 q 494 1153 518 1143 q 438 1164 471 1164 q 377 1145 404 1164 q 324 1083 350 1126 l 299 1090 q 413 1260 342 1204 q 563 1317 483 1317 z "},"Ʒ":{"ha":857,"x_min":-40,"x_max":946,"o":"m 939 956 l 638 525 q 758 427 719 481 q 797 297 797 374 q 736 135 797 207 q 571 22 675 63 q 340 -19 467 -19 q 199 -5 256 -19 q 99 31 143 10 q 39 51 54 51 q 15 37 25 51 q -8 -10 4 22 l -40 -10 q 65 393 8 135 l 97 393 q 78 254 78 318 q 133 85 78 147 q 301 22 189 22 q 423 64 368 22 q 509 172 478 106 q 540 307 540 239 q 492 454 540 400 q 344 528 443 508 l 351 556 l 631 951 l 561 951 q 424 923 496 951 q 285 827 353 894 q 175 650 218 760 l 143 650 q 221 983 178 746 q 510 979 306 979 q 946 983 810 979 l 939 956 z "},"Ǯ":{"ha":857,"x_min":-40,"x_max":1032,"o":"m 939 956 l 638 525 q 758 427 719 481 q 797 297 797 374 q 736 135 797 207 q 571 22 675 63 q 340 -19 467 -19 q 199 -5 256 -19 q 99 31 143 10 q 39 51 54 51 q 15 37 25 51 q -8 -10 4 22 l -40 -10 q 65 393 8 135 l 97 393 q 78 254 78 318 q 133 85 78 147 q 301 22 189 22 q 423 64 368 22 q 509 172 478 106 q 540 307 540 239 q 492 454 540 400 q 344 528 443 508 l 351 556 l 631 951 l 561 951 q 424 923 496 951 q 285 827 353 894 q 175 650 218 760 l 143 650 q 221 983 178 746 q 510 979 306 979 q 946 983 810 979 l 939 956 m 713 1239 q 1025 1314 847 1285 l 1032 1294 q 799 1191 908 1256 q 622 1056 689 1126 l 597 1056 q 526 1196 569 1140 q 404 1294 483 1251 l 410 1314 q 578 1280 510 1297 q 713 1239 647 1263 z "},"F":{"ha":838,"x_min":-67,"x_max":960,"o":"m 672 979 q 960 983 872 979 q 907 819 929 906 q 875 692 885 738 l 844 692 q 846 740 846 710 q 801 903 846 854 q 676 951 757 951 l 672 951 q 607 944 629 951 q 572 913 585 936 q 547 836 560 889 l 460 508 l 499 508 q 613 550 561 508 q 697 664 665 592 l 728 664 q 681 494 703 586 q 638 283 663 419 l 607 283 q 574 430 607 379 q 479 481 540 481 l 453 481 l 364 147 q 354 86 354 113 q 379 42 354 53 q 474 28 404 31 l 468 0 q 192 4 375 4 q -67 0 17 4 l -61 28 q 14 39 -11 31 q 53 71 39 47 q 82 147 68 94 l 265 836 q 276 903 276 883 q 256 943 276 933 q 183 956 236 953 l 190 983 q 672 979 350 979 z "},"G":{"ha":1057,"x_min":42,"x_max":1085,"o":"m 494 8 q 567 28 540 8 q 596 64 586 42 q 619 139 606 86 l 651 261 q 664 333 664 307 q 639 380 664 368 q 547 394 614 392 l 554 422 q 818 418 649 418 q 1047 422 972 418 l 1040 394 q 991 383 1007 392 q 963 352 975 375 q 938 275 951 329 l 864 0 l 836 0 q 824 61 838 43 q 782 79 810 79 q 727 69 756 79 q 657 38 699 58 q 640 29 649 33 q 622 21 632 25 q 532 -10 574 -1 q 444 -19 490 -19 q 149 64 256 -19 q 42 299 42 147 q 133 624 42 460 q 385 895 224 788 q 747 1003 547 1003 q 880 980 831 1003 q 975 913 929 957 q 999 900 988 900 q 1026 919 1013 900 q 1054 983 1039 939 l 1085 983 q 996 664 1039 864 l 965 664 q 972 768 972 724 q 968 823 972 800 q 953 869 964 846 q 872 950 926 922 q 739 978 818 978 q 518 857 613 978 q 374 565 424 736 q 324 253 324 394 q 366 69 324 129 q 494 8 408 8 z "},"Ǵ":{"ha":1057,"x_min":42,"x_max":1135,"o":"m 494 8 q 567 28 540 8 q 596 64 586 42 q 619 139 606 86 l 651 261 q 664 333 664 307 q 639 380 664 368 q 547 394 614 392 l 554 422 q 818 418 649 418 q 1047 422 972 418 l 1040 394 q 991 383 1007 392 q 963 352 975 375 q 938 275 951 329 l 864 0 l 836 0 q 824 61 838 43 q 782 79 810 79 q 727 69 756 79 q 657 38 699 58 q 640 29 649 33 q 622 21 632 25 q 532 -10 574 -1 q 444 -19 490 -19 q 149 64 256 -19 q 42 299 42 147 q 133 624 42 460 q 385 895 224 788 q 747 1003 547 1003 q 880 980 831 1003 q 975 913 929 957 q 999 900 988 900 q 1026 919 1013 900 q 1054 983 1039 939 l 1085 983 q 996 664 1039 864 l 965 664 q 972 768 972 724 q 968 823 972 800 q 953 869 964 846 q 872 950 926 922 q 739 978 818 978 q 518 857 613 978 q 374 565 424 736 q 324 253 324 394 q 366 69 324 129 q 494 8 408 8 m 717 1089 q 801 1170 764 1131 q 849 1219 839 1210 q 916 1289 889 1264 q 975 1331 943 1314 q 1039 1347 1006 1347 q 1088 1335 1065 1347 q 1125 1299 1111 1324 q 1135 1261 1135 1281 q 1115 1211 1135 1235 q 1063 1169 1096 1188 q 913 1122 1015 1144 q 726 1072 788 1092 l 717 1089 z "},"Ğ":{"ha":1057,"x_min":42,"x_max":1106,"o":"m 494 8 q 567 28 540 8 q 596 64 586 42 q 619 139 606 86 l 651 261 q 664 333 664 307 q 639 380 664 368 q 547 394 614 392 l 554 422 q 818 418 649 418 q 1047 422 972 418 l 1040 394 q 991 383 1007 392 q 963 352 975 375 q 938 275 951 329 l 864 0 l 836 0 q 824 61 838 43 q 782 79 810 79 q 727 69 756 79 q 657 38 699 58 q 640 29 649 33 q 622 21 632 25 q 532 -10 574 -1 q 444 -19 490 -19 q 149 64 256 -19 q 42 299 42 147 q 133 624 42 460 q 385 895 224 788 q 747 1003 547 1003 q 880 980 831 1003 q 975 913 929 957 q 999 900 988 900 q 1026 919 1013 900 q 1054 983 1039 939 l 1085 983 q 996 664 1039 864 l 965 664 q 972 768 972 724 q 968 823 972 800 q 953 869 964 846 q 872 950 926 922 q 739 978 818 978 q 518 857 613 978 q 374 565 424 736 q 324 253 324 394 q 366 69 324 129 q 494 8 408 8 m 765 1225 q 944 1244 865 1225 q 1089 1303 1022 1263 l 1106 1290 q 946 1127 1047 1194 q 736 1060 844 1060 q 583 1122 640 1060 q 508 1286 526 1185 l 529 1297 q 628 1242 574 1260 q 765 1225 682 1225 z "},"Ǧ":{"ha":1057,"x_min":42,"x_max":1174,"o":"m 494 8 q 567 28 540 8 q 596 64 586 42 q 619 139 606 86 l 651 261 q 664 333 664 307 q 639 380 664 368 q 547 394 614 392 l 554 422 q 818 418 649 418 q 1047 422 972 418 l 1040 394 q 991 383 1007 392 q 963 352 975 375 q 938 275 951 329 l 864 0 l 836 0 q 824 61 838 43 q 782 79 810 79 q 727 69 756 79 q 657 38 699 58 q 640 29 649 33 q 622 21 632 25 q 532 -10 574 -1 q 444 -19 490 -19 q 149 64 256 -19 q 42 299 42 147 q 133 624 42 460 q 385 895 224 788 q 747 1003 547 1003 q 880 980 831 1003 q 975 913 929 957 q 999 900 988 900 q 1026 919 1013 900 q 1054 983 1039 939 l 1085 983 q 996 664 1039 864 l 965 664 q 972 768 972 724 q 968 823 972 800 q 953 869 964 846 q 872 950 926 922 q 739 978 818 978 q 518 857 613 978 q 374 565 424 736 q 324 253 324 394 q 366 69 324 129 q 494 8 408 8 m 854 1239 q 1167 1314 989 1285 l 1174 1294 q 940 1191 1050 1256 q 764 1056 831 1126 l 739 1056 q 668 1196 711 1140 q 546 1294 625 1251 l 551 1314 q 720 1280 651 1297 q 854 1239 789 1263 z "},"Ĝ":{"ha":1057,"x_min":42,"x_max":1085,"o":"m 494 8 q 567 28 540 8 q 596 64 586 42 q 619 139 606 86 l 651 261 q 664 333 664 307 q 639 380 664 368 q 547 394 614 392 l 554 422 q 818 418 649 418 q 1047 422 972 418 l 1040 394 q 991 383 1007 392 q 963 352 975 375 q 938 275 951 329 l 864 0 l 836 0 q 824 61 838 43 q 782 79 810 79 q 727 69 756 79 q 657 38 699 58 q 640 29 649 33 q 622 21 632 25 q 532 -10 574 -1 q 444 -19 490 -19 q 149 64 256 -19 q 42 299 42 147 q 133 624 42 460 q 385 895 224 788 q 747 1003 547 1003 q 880 980 831 1003 q 975 913 929 957 q 999 900 988 900 q 1026 919 1013 900 q 1054 983 1039 939 l 1085 983 q 996 664 1039 864 l 965 664 q 972 768 972 724 q 968 823 972 800 q 953 869 964 846 q 872 950 926 922 q 739 978 818 978 q 518 857 613 978 q 374 565 424 736 q 324 253 324 394 q 366 69 324 129 q 494 8 408 8 m 740 1144 q 428 1069 606 1099 l 421 1089 q 654 1192 544 1128 q 831 1328 764 1257 l 856 1328 q 926 1188 883 1243 q 1049 1089 969 1132 l 1043 1069 q 874 1103 943 1086 q 740 1144 806 1121 z "},"Ģ":{"ha":1057,"x_min":42,"x_max":1085,"o":"m 494 8 q 567 28 540 8 q 596 64 586 42 q 619 139 606 86 l 651 261 q 664 333 664 307 q 639 380 664 368 q 547 394 614 392 l 554 422 q 818 418 649 418 q 1047 422 972 418 l 1040 394 q 991 383 1007 392 q 963 352 975 375 q 938 275 951 329 l 864 0 l 836 0 q 824 61 838 43 q 782 79 810 79 q 727 69 756 79 q 657 38 699 58 q 640 29 649 33 q 622 21 632 25 q 532 -10 574 -1 q 444 -19 490 -19 q 149 64 256 -19 q 42 299 42 147 q 133 624 42 460 q 385 895 224 788 q 747 1003 547 1003 q 880 980 831 1003 q 975 913 929 957 q 999 900 988 900 q 1026 919 1013 900 q 1054 983 1039 939 l 1085 983 q 996 664 1039 864 l 965 664 q 972 768 972 724 q 968 823 972 800 q 953 869 964 846 q 872 950 926 922 q 739 978 818 978 q 518 857 613 978 q 374 565 424 736 q 324 253 324 394 q 366 69 324 129 q 494 8 408 8 m 468 -58 q 543 -81 511 -58 q 575 -147 575 -103 q 511 -281 575 -231 q 347 -335 447 -332 l 347 -306 q 456 -284 413 -304 q 510 -231 499 -264 q 417 -256 471 -256 q 319 -182 319 -256 q 363 -92 319 -126 q 468 -58 406 -58 z "},"Ġ":{"ha":1057,"x_min":42,"x_max":1085,"o":"m 494 8 q 567 28 540 8 q 596 64 586 42 q 619 139 606 86 l 651 261 q 664 333 664 307 q 639 380 664 368 q 547 394 614 392 l 554 422 q 818 418 649 418 q 1047 422 972 418 l 1040 394 q 991 383 1007 392 q 963 352 975 375 q 938 275 951 329 l 864 0 l 836 0 q 824 61 838 43 q 782 79 810 79 q 727 69 756 79 q 657 38 699 58 q 640 29 649 33 q 622 21 632 25 q 532 -10 574 -1 q 444 -19 490 -19 q 149 64 256 -19 q 42 299 42 147 q 133 624 42 460 q 385 895 224 788 q 747 1003 547 1003 q 880 980 831 1003 q 975 913 929 957 q 999 900 988 900 q 1026 919 1013 900 q 1054 983 1039 939 l 1085 983 q 996 664 1039 864 l 965 664 q 972 768 972 724 q 968 823 972 800 q 953 869 964 846 q 872 950 926 922 q 739 978 818 978 q 518 857 613 978 q 374 565 424 736 q 324 253 324 394 q 366 69 324 129 q 494 8 408 8 m 613 1147 q 659 1257 613 1219 q 782 1294 706 1294 q 874 1271 843 1294 q 906 1200 906 1247 q 857 1096 906 1136 q 735 1056 808 1056 q 644 1079 675 1056 q 613 1147 613 1103 z "},"Ǥ":{"ha":1057,"x_min":42,"x_max":1085,"o":"m 565 464 q 829 460 660 460 q 1058 464 983 460 l 1051 436 q 1002 425 1018 433 q 974 393 986 417 q 949 317 963 369 l 938 275 l 1033 275 l 1028 247 l 931 247 l 864 0 l 836 0 q 824 61 838 43 q 782 79 810 79 q 727 69 756 79 q 657 38 699 58 q 640 29 649 33 q 622 21 632 25 q 532 -10 574 -1 q 444 -19 490 -19 q 149 64 256 -19 q 42 299 42 147 q 133 624 42 460 q 385 895 224 788 q 747 1003 547 1003 q 880 980 831 1003 q 975 913 929 957 q 999 900 988 900 q 1026 919 1013 900 q 1054 983 1039 939 l 1085 983 q 996 664 1039 864 l 965 664 q 972 768 972 724 q 968 823 972 800 q 953 869 964 846 q 872 950 926 922 q 739 978 818 978 q 518 857 613 978 q 374 565 424 736 q 324 253 324 394 q 366 69 324 129 q 494 8 408 8 q 567 28 540 8 q 596 64 586 42 q 619 139 606 86 l 647 247 l 521 247 l 526 275 l 656 275 l 663 303 q 675 374 675 349 q 650 421 675 408 q 558 436 625 433 l 565 464 z "},"H":{"ha":1175,"x_min":-65,"x_max":1286,"o":"m 1024 979 q 1286 983 1200 979 l 1279 956 q 1203 944 1228 953 q 1165 913 1179 936 q 1136 836 1150 889 l 953 147 q 940 79 940 94 q 960 40 940 50 q 1035 28 981 31 l 1029 0 q 768 4 946 4 q 522 0 608 4 l 528 28 q 603 39 578 31 q 642 71 628 47 q 671 147 657 94 l 760 481 l 453 481 l 364 147 q 351 79 351 94 q 372 40 351 50 q 446 28 392 31 l 440 0 q 194 4 356 4 q -65 0 19 4 l -58 28 q 15 39 -10 31 q 53 72 39 47 q 82 147 68 96 l 265 836 q 276 903 276 883 q 256 943 276 933 q 183 956 236 953 l 190 983 q 450 979 271 979 q 697 983 599 979 l 690 956 q 615 944 639 953 q 576 913 590 936 q 547 836 561 889 l 460 508 l 767 508 l 854 836 q 867 903 867 881 q 846 943 867 933 q 772 956 825 953 l 779 983 q 1024 979 863 979 z "},"Ħ":{"ha":1175,"x_min":-65,"x_max":1286,"o":"m 1024 979 q 1286 983 1200 979 l 1279 956 q 1203 944 1228 953 q 1165 913 1179 936 q 1136 836 1150 889 l 953 147 q 940 79 940 94 q 960 40 940 50 q 1035 28 981 31 l 1029 0 q 768 4 946 4 q 522 0 608 4 l 528 28 q 603 39 578 31 q 642 71 628 47 q 671 147 657 94 l 760 481 l 453 481 l 364 147 q 351 79 351 94 q 372 40 351 50 q 446 28 392 31 l 440 0 q 194 4 356 4 q -65 0 19 4 l -58 28 q 15 39 -10 31 q 53 72 39 47 q 82 147 68 96 l 265 836 q 276 903 276 883 q 256 943 276 933 q 183 956 236 953 l 190 983 q 450 979 271 979 q 697 983 599 979 l 690 956 q 615 944 639 953 q 576 913 590 936 q 547 836 561 889 l 460 508 l 767 508 l 854 836 q 867 903 867 881 q 846 943 867 933 q 772 956 825 953 l 779 983 q 1024 979 863 979 m 1257 713 l 86 713 l 93 740 l 1264 740 l 1257 713 z "},"Ȟ":{"ha":1175,"x_min":-65,"x_max":1286,"o":"m 1024 979 q 1286 983 1200 979 l 1279 956 q 1203 944 1228 953 q 1165 913 1179 936 q 1136 836 1150 889 l 953 147 q 940 79 940 94 q 960 40 940 50 q 1035 28 981 31 l 1029 0 q 768 4 946 4 q 522 0 608 4 l 528 28 q 603 39 578 31 q 642 71 628 47 q 671 147 657 94 l 760 481 l 453 481 l 364 147 q 351 79 351 94 q 372 40 351 50 q 446 28 392 31 l 440 0 q 194 4 356 4 q -65 0 19 4 l -58 28 q 15 39 -10 31 q 53 72 39 47 q 82 147 68 96 l 265 836 q 276 903 276 883 q 256 943 276 933 q 183 956 236 953 l 190 983 q 450 979 271 979 q 697 983 599 979 l 690 956 q 615 944 639 953 q 576 913 590 936 q 547 836 561 889 l 460 508 l 767 508 l 854 836 q 867 903 867 881 q 846 943 867 933 q 772 956 825 953 l 779 983 q 1024 979 863 979 m 861 1239 q 1174 1314 996 1285 l 1181 1294 q 947 1191 1057 1256 q 771 1056 838 1126 l 746 1056 q 675 1196 718 1140 q 553 1294 632 1251 l 558 1314 q 727 1280 658 1297 q 861 1239 796 1263 z "},"Ĥ":{"ha":1175,"x_min":-65,"x_max":1286,"o":"m 1024 979 q 1286 983 1200 979 l 1279 956 q 1203 944 1228 953 q 1165 913 1179 936 q 1136 836 1150 889 l 953 147 q 940 79 940 94 q 960 40 940 50 q 1035 28 981 31 l 1029 0 q 768 4 946 4 q 522 0 608 4 l 528 28 q 603 39 578 31 q 642 71 628 47 q 671 147 657 94 l 760 481 l 453 481 l 364 147 q 351 79 351 94 q 372 40 351 50 q 446 28 392 31 l 440 0 q 194 4 356 4 q -65 0 19 4 l -58 28 q 15 39 -10 31 q 53 72 39 47 q 82 147 68 96 l 265 836 q 276 903 276 883 q 256 943 276 933 q 183 956 236 953 l 190 983 q 450 979 271 979 q 697 983 599 979 l 690 956 q 615 944 639 953 q 576 913 590 936 q 547 836 561 889 l 460 508 l 767 508 l 854 836 q 867 903 867 881 q 846 943 867 933 q 772 956 825 953 l 779 983 q 1024 979 863 979 m 747 1144 q 435 1069 613 1099 l 428 1089 q 661 1192 551 1128 q 838 1328 771 1257 l 863 1328 q 933 1188 890 1243 q 1056 1089 976 1132 l 1050 1069 q 881 1103 950 1086 q 747 1144 813 1121 z "},"I":{"ha":586,"x_min":-65,"x_max":697,"o":"m 364 147 q 351 79 351 94 q 372 40 351 50 q 446 28 392 31 l 440 0 q 181 4 351 4 q -65 0 17 4 l -58 28 q 15 39 -10 31 q 53 72 39 47 q 82 147 68 96 l 265 836 q 276 903 276 883 q 256 943 276 933 q 183 956 236 953 l 190 983 q 436 979 268 979 q 697 983 593 979 l 690 956 q 615 944 639 953 q 576 913 590 936 q 547 836 561 889 l 364 147 z "},"Ĳ":{"ha":1219,"x_min":0,"x_max":1361,"o":"m 1353 1014 q 1361 997 1361 1006 q 1260 925 1361 964 q 1141 759 1189 861 q 1053 508 1093 657 l 1192 508 l 1188 481 l 1044 481 l 1031 426 l 944 90 q 792 -165 904 -68 q 476 -261 679 -261 q 310 -232 372 -261 q 247 -137 247 -203 q 285 -50 247 -83 q 392 -17 322 -17 q 492 -43 453 -17 q 532 -118 532 -69 q 442 -235 532 -197 q 474 -237 456 -237 q 542 -210 514 -237 q 591 -129 569 -183 q 642 28 613 -75 l 738 364 q 779 481 754 422 l 589 481 l 593 508 l 792 508 q 894 663 835 596 q 1026 783 954 729 q 1206 903 1097 836 q 1102 871 1149 889 q 999 825 1056 853 q 865 772 921 789 q 732 754 808 754 q 647 762 686 754 q 540 786 607 769 q 442 810 483 801 q 358 818 401 818 q 258 747 258 818 q 306 670 258 699 q 450 642 353 642 q 578 653 529 642 q 681 690 626 665 l 690 665 q 579 624 632 638 l 429 147 q 415 79 415 106 q 437 40 415 50 q 511 28 458 31 l 506 0 q 246 4 417 4 q 0 0 82 4 l 7 28 q 78 39 54 31 q 116 71 101 47 q 147 147 131 94 l 299 631 q 176 705 219 654 q 132 832 132 756 q 200 974 132 921 q 399 1026 268 1026 q 544 1009 483 1026 q 686 957 606 992 q 818 908 761 925 q 950 892 875 892 q 1103 903 1021 892 q 1247 940 1185 915 q 1335 1021 1300 1021 q 1353 1014 1346 1021 z "},"Í":{"ha":586,"x_min":-65,"x_max":865,"o":"m 364 147 q 351 79 351 94 q 372 40 351 50 q 446 28 392 31 l 440 0 q 181 4 351 4 q -65 0 17 4 l -58 28 q 15 39 -10 31 q 53 72 39 47 q 82 147 68 96 l 265 836 q 276 903 276 883 q 256 943 276 933 q 183 956 236 953 l 190 983 q 436 979 268 979 q 697 983 593 979 l 690 956 q 615 944 639 953 q 576 913 590 936 q 547 836 561 889 l 364 147 m 447 1089 q 532 1170 494 1131 q 579 1219 569 1210 q 647 1289 619 1264 q 706 1331 674 1314 q 769 1347 736 1347 q 819 1335 796 1347 q 856 1299 842 1324 q 865 1261 865 1281 q 846 1211 865 1235 q 793 1169 826 1188 q 643 1122 746 1144 q 457 1072 518 1092 l 447 1089 z "},"Ĭ":{"ha":586,"x_min":-65,"x_max":836,"o":"m 364 147 q 351 79 351 94 q 372 40 351 50 q 446 28 392 31 l 440 0 q 181 4 351 4 q -65 0 17 4 l -58 28 q 15 39 -10 31 q 53 72 39 47 q 82 147 68 96 l 265 836 q 276 903 276 883 q 256 943 276 933 q 183 956 236 953 l 190 983 q 436 979 268 979 q 697 983 593 979 l 690 956 q 615 944 639 953 q 576 913 590 936 q 547 836 561 889 l 364 147 m 496 1225 q 674 1244 596 1225 q 819 1303 753 1263 l 836 1290 q 676 1127 778 1194 q 467 1060 575 1060 q 314 1122 371 1060 q 239 1286 257 1185 l 260 1297 q 358 1242 304 1260 q 496 1225 413 1225 z "},"Î":{"ha":586,"x_min":-65,"x_max":779,"o":"m 364 147 q 351 79 351 94 q 372 40 351 50 q 446 28 392 31 l 440 0 q 181 4 351 4 q -65 0 17 4 l -58 28 q 15 39 -10 31 q 53 72 39 47 q 82 147 68 96 l 265 836 q 276 903 276 883 q 256 943 276 933 q 183 956 236 953 l 190 983 q 436 979 268 979 q 697 983 593 979 l 690 956 q 615 944 639 953 q 576 913 590 936 q 547 836 561 889 l 364 147 m 471 1144 q 158 1069 336 1099 l 151 1089 q 385 1192 275 1128 q 561 1328 494 1257 l 586 1328 q 657 1188 614 1243 q 779 1089 700 1132 l 774 1069 q 605 1103 674 1086 q 471 1144 536 1121 z "},"Ï":{"ha":586,"x_min":-65,"x_max":789,"o":"m 364 147 q 351 79 351 94 q 372 40 351 50 q 446 28 392 31 l 440 0 q 181 4 351 4 q -65 0 17 4 l -58 28 q 15 39 -10 31 q 53 72 39 47 q 82 147 68 96 l 265 836 q 276 903 276 883 q 256 943 276 933 q 183 956 236 953 l 190 983 q 436 979 268 979 q 697 983 593 979 l 690 956 q 615 944 639 953 q 576 913 590 936 q 547 836 561 889 l 364 147 m 189 1164 q 228 1266 189 1232 q 326 1300 268 1300 q 405 1271 379 1300 q 431 1192 431 1242 q 390 1092 431 1125 q 292 1058 349 1058 q 214 1086 239 1058 q 189 1164 189 1114 m 547 1164 q 587 1266 547 1232 q 685 1300 626 1300 q 763 1271 738 1300 q 789 1192 789 1242 q 748 1092 789 1125 q 650 1058 707 1058 q 572 1086 597 1058 q 547 1164 547 1114 z "},"İ":{"ha":586,"x_min":-65,"x_max":697,"o":"m 364 147 q 351 79 351 94 q 372 40 351 50 q 446 28 392 31 l 440 0 q 181 4 351 4 q -65 0 17 4 l -58 28 q 15 39 -10 31 q 53 72 39 47 q 82 147 68 96 l 265 836 q 276 903 276 883 q 256 943 276 933 q 183 956 236 953 l 190 983 q 436 979 268 979 q 697 983 593 979 l 690 956 q 615 944 639 953 q 576 913 590 936 q 547 836 561 889 l 364 147 m 343 1147 q 390 1257 343 1219 q 513 1294 436 1294 q 605 1271 574 1294 q 636 1200 636 1247 q 588 1096 636 1136 q 465 1056 539 1056 q 374 1079 406 1056 q 343 1147 343 1103 z "},"Ị":{"ha":586,"x_min":-65,"x_max":697,"o":"m 364 147 q 351 79 351 94 q 372 40 351 50 q 446 28 392 31 l 440 0 q 181 4 351 4 q -65 0 17 4 l -58 28 q 15 39 -10 31 q 53 72 39 47 q 82 147 68 96 l 265 836 q 276 903 276 883 q 256 943 276 933 q 183 956 236 953 l 190 983 q 436 979 268 979 q 697 983 593 979 l 690 956 q 615 944 639 953 q 576 913 590 936 q 547 836 561 889 l 364 147 m 138 -265 q 61 -246 88 -265 q 35 -187 35 -226 q 72 -95 35 -128 q 175 -62 110 -62 q 251 -82 225 -62 q 278 -140 278 -101 q 240 -233 278 -200 q 138 -265 203 -265 z "},"Ì":{"ha":586,"x_min":-65,"x_max":697,"o":"m 364 147 q 351 79 351 94 q 372 40 351 50 q 446 28 392 31 l 440 0 q 181 4 351 4 q -65 0 17 4 l -58 28 q 15 39 -10 31 q 53 72 39 47 q 82 147 68 96 l 265 836 q 276 903 276 883 q 256 943 276 933 q 183 956 236 953 l 190 983 q 436 979 268 979 q 697 983 593 979 l 690 956 q 615 944 639 953 q 576 913 590 936 q 547 836 561 889 l 364 147 m 550 1072 q 364 1114 463 1099 q 300 1126 324 1121 q 256 1143 276 1132 q 216 1178 231 1156 q 201 1226 201 1201 q 210 1263 201 1244 q 246 1301 222 1288 q 297 1314 269 1314 q 340 1304 322 1314 q 380 1278 364 1294 q 426 1226 396 1263 q 560 1089 485 1154 l 550 1072 z "},"Ỉ":{"ha":586,"x_min":-65,"x_max":728,"o":"m 364 147 q 351 79 351 94 q 372 40 351 50 q 446 28 392 31 l 440 0 q 181 4 351 4 q -65 0 17 4 l -58 28 q 15 39 -10 31 q 53 72 39 47 q 82 147 68 96 l 265 836 q 276 903 276 883 q 256 943 276 933 q 183 956 236 953 l 190 983 q 436 979 268 979 q 697 983 593 979 l 690 956 q 615 944 639 953 q 576 913 590 936 q 547 836 561 889 l 364 147 m 457 1026 q 479 1086 464 1064 q 521 1133 494 1108 q 563 1181 550 1160 q 576 1240 576 1203 q 489 1329 576 1329 q 426 1317 449 1329 q 485 1239 485 1293 q 457 1176 485 1200 q 389 1153 429 1153 q 333 1172 354 1153 q 313 1224 313 1192 q 396 1325 313 1286 q 554 1357 464 1357 q 681 1330 635 1357 q 728 1249 728 1303 q 699 1181 728 1203 q 611 1136 669 1158 q 523 1093 554 1115 q 485 1026 492 1071 l 457 1026 z "},"Ī":{"ha":586,"x_min":-65,"x_max":778,"o":"m 364 147 q 351 79 351 94 q 372 40 351 50 q 446 28 392 31 l 440 0 q 181 4 351 4 q -65 0 17 4 l -58 28 q 15 39 -10 31 q 53 72 39 47 q 82 147 68 96 l 265 836 q 276 903 276 883 q 256 943 276 933 q 183 956 236 953 l 190 983 q 436 979 268 979 q 697 983 593 979 l 690 956 q 615 944 639 953 q 576 913 590 936 q 547 836 561 889 l 364 147 m 769 1138 l 169 1138 l 178 1172 l 778 1172 l 769 1138 z "},"Į":{"ha":586,"x_min":-65,"x_max":697,"o":"m 364 147 q 351 79 351 94 q 372 40 351 50 q 446 28 392 31 l 440 0 q 181 4 351 4 q -65 0 17 4 l -58 28 q 15 39 -10 31 q 53 72 39 47 q 82 147 68 96 l 265 836 q 276 903 276 883 q 256 943 276 933 q 183 956 236 953 l 190 983 q 436 979 268 979 q 697 983 593 979 l 690 956 q 615 944 639 953 q 576 913 590 936 q 547 836 561 889 l 364 147 m 424 4 q 324 -67 358 -22 q 289 -154 289 -112 q 329 -190 289 -190 q 428 -164 374 -190 l 443 -187 q 225 -261 338 -261 q 133 -239 167 -261 q 99 -176 99 -217 q 183 -70 99 -117 q 399 4 268 -24 l 424 4 z "},"Ĩ":{"ha":586,"x_min":-65,"x_max":850,"o":"m 364 147 q 351 79 351 94 q 372 40 351 50 q 446 28 392 31 l 440 0 q 181 4 351 4 q -65 0 17 4 l -58 28 q 15 39 -10 31 q 53 72 39 47 q 82 147 68 96 l 265 836 q 276 903 276 883 q 256 943 276 933 q 183 956 236 953 l 190 983 q 436 979 268 979 q 697 983 593 979 l 690 956 q 615 944 639 953 q 576 913 590 936 q 547 836 561 889 l 364 147 m 432 1317 q 519 1302 485 1317 q 594 1260 554 1288 q 654 1226 631 1236 q 711 1215 678 1215 q 772 1234 744 1215 q 825 1296 799 1253 l 850 1289 q 736 1119 807 1175 q 586 1063 665 1063 q 499 1077 533 1063 q 424 1119 464 1092 q 364 1153 388 1143 q 307 1164 340 1164 q 247 1145 274 1164 q 193 1083 219 1126 l 168 1090 q 282 1260 211 1204 q 432 1317 353 1317 z "},"J":{"ha":993,"x_min":21,"x_max":1135,"o":"m 1126 1014 q 1135 997 1135 1006 q 1033 925 1135 964 q 915 759 963 861 q 826 508 867 657 l 965 508 l 961 481 l 818 481 l 804 426 l 718 90 q 565 -165 678 -68 q 250 -261 453 -261 q 83 -232 146 -261 q 21 -137 21 -203 q 58 -50 21 -83 q 165 -17 96 -17 q 266 -43 226 -17 q 306 -118 306 -69 q 215 -235 306 -197 q 247 -237 229 -237 q 315 -210 288 -237 q 365 -129 343 -183 q 415 28 386 -75 l 511 364 q 553 481 528 422 l 363 481 l 367 508 l 565 508 q 668 663 608 596 q 799 783 728 729 q 979 903 871 836 q 889 870 929 889 q 800 825 849 851 q 687 772 733 789 q 575 754 640 754 q 502 763 536 754 q 414 790 468 772 q 306 818 343 818 q 249 801 271 818 q 226 747 226 783 q 418 636 226 647 l 415 611 q 194 676 275 619 q 114 832 114 733 q 169 974 114 922 q 335 1026 225 1026 q 447 1010 400 1026 q 561 960 494 994 q 676 909 626 926 q 793 892 725 892 q 910 903 847 892 q 1021 940 974 915 q 1108 1021 1074 1021 q 1126 1014 1119 1021 z "},"Ĵ":{"ha":993,"x_min":21,"x_max":1135,"o":"m 1126 1014 q 1135 997 1135 1006 q 1033 925 1135 964 q 915 759 963 861 q 826 508 867 657 l 965 508 l 961 481 l 818 481 l 804 426 l 718 90 q 565 -165 678 -68 q 250 -261 453 -261 q 83 -232 146 -261 q 21 -137 21 -203 q 58 -50 21 -83 q 165 -17 96 -17 q 266 -43 226 -17 q 306 -118 306 -69 q 215 -235 306 -197 q 247 -237 229 -237 q 315 -210 288 -237 q 365 -129 343 -183 q 415 28 386 -75 l 511 364 q 553 481 528 422 l 363 481 l 367 508 l 565 508 q 668 663 608 596 q 799 783 728 729 q 979 903 871 836 q 889 870 929 889 q 800 825 849 851 q 687 772 733 789 q 575 754 640 754 q 502 763 536 754 q 414 790 468 772 q 306 818 343 818 q 249 801 271 818 q 226 747 226 783 q 418 636 226 647 l 415 611 q 194 676 275 619 q 114 832 114 733 q 169 974 114 922 q 335 1026 225 1026 q 447 1010 400 1026 q 561 960 494 994 q 676 909 626 926 q 793 892 725 892 q 910 903 847 892 q 1021 940 974 915 q 1108 1021 1074 1021 q 1126 1014 1119 1021 m 776 1144 q 464 1069 642 1099 l 457 1089 q 690 1192 581 1128 q 867 1328 800 1257 l 892 1328 q 963 1188 919 1243 q 1085 1089 1006 1132 l 1079 1069 q 910 1103 979 1086 q 776 1144 842 1121 z "},"K":{"ha":1088,"x_min":-65,"x_max":1140,"o":"m 865 796 q 904 900 865 851 q 1008 972 943 949 q 972 979 994 979 q 924 969 943 979 q 888 940 904 960 q 851 874 865 914 q 818 769 836 833 q 778 651 796 694 q 731 569 761 607 q 654 518 700 532 q 840 465 785 510 q 894 339 894 421 q 889 275 894 304 l 867 136 q 873 109 864 119 q 897 99 882 99 q 957 165 935 99 l 981 236 l 1008 236 l 972 129 q 894 17 947 54 q 775 -19 842 -19 q 635 22 685 -19 q 586 131 586 63 q 589 165 586 153 l 628 385 q 633 439 633 413 q 627 474 633 460 q 607 499 621 489 q 519 483 551 483 q 494 490 500 483 q 490 513 488 497 q 502 534 493 528 q 529 540 511 540 q 608 526 557 540 q 700 571 665 535 q 753 653 735 607 q 792 776 771 699 q 826 888 811 849 q 867 957 842 928 q 976 1003 907 1003 q 1094 960 1049 1003 q 1140 847 1140 917 q 1098 731 1140 782 q 983 681 1056 681 q 900 710 935 681 q 865 796 865 740 m 364 147 q 351 79 351 94 q 372 40 351 50 q 446 28 392 31 l 440 0 q 194 4 356 4 q -65 0 19 4 l -58 28 q 15 39 -10 31 q 53 72 39 47 q 82 147 68 96 l 265 836 q 276 903 276 883 q 256 943 276 933 q 183 956 236 953 l 190 983 q 450 979 271 979 q 697 983 599 979 l 690 956 q 615 944 639 953 q 576 913 590 936 q 547 836 561 889 l 364 147 z "},"Ǩ":{"ha":1088,"x_min":-65,"x_max":1140,"o":"m 865 796 q 904 900 865 851 q 1008 972 943 949 q 972 979 994 979 q 924 969 943 979 q 888 940 904 960 q 851 874 865 914 q 818 769 836 833 q 778 651 796 694 q 731 569 761 607 q 654 518 700 532 q 840 465 785 510 q 894 339 894 421 q 889 275 894 304 l 867 136 q 873 109 864 119 q 897 99 882 99 q 957 165 935 99 l 981 236 l 1008 236 l 972 129 q 894 17 947 54 q 775 -19 842 -19 q 635 22 685 -19 q 586 131 586 63 q 589 165 586 153 l 628 385 q 633 439 633 413 q 627 474 633 460 q 607 499 621 489 q 519 483 551 483 q 494 490 500 483 q 490 513 488 497 q 502 534 493 528 q 529 540 511 540 q 608 526 557 540 q 700 571 665 535 q 753 653 735 607 q 792 776 771 699 q 826 888 811 849 q 867 957 842 928 q 976 1003 907 1003 q 1094 960 1049 1003 q 1140 847 1140 917 q 1098 731 1140 782 q 983 681 1056 681 q 900 710 935 681 q 865 796 865 740 m 364 147 q 351 79 351 94 q 372 40 351 50 q 446 28 392 31 l 440 0 q 194 4 356 4 q -65 0 19 4 l -58 28 q 15 39 -10 31 q 53 72 39 47 q 82 147 68 96 l 265 836 q 276 903 276 883 q 256 943 276 933 q 183 956 236 953 l 190 983 q 450 979 271 979 q 697 983 599 979 l 690 956 q 615 944 639 953 q 576 913 590 936 q 547 836 561 889 l 364 147 m 760 1239 q 1072 1314 894 1285 l 1079 1294 q 846 1191 956 1256 q 669 1056 736 1126 l 644 1056 q 574 1196 617 1140 q 451 1294 531 1251 l 457 1314 q 626 1280 557 1297 q 760 1239 694 1263 z "},"Ķ":{"ha":1088,"x_min":-65,"x_max":1140,"o":"m 865 796 q 904 900 865 851 q 1008 972 943 949 q 972 979 994 979 q 924 969 943 979 q 888 940 904 960 q 851 874 865 914 q 818 769 836 833 q 778 651 796 694 q 731 569 761 607 q 654 518 700 532 q 840 465 785 510 q 894 339 894 421 q 889 275 894 304 l 867 136 q 873 109 864 119 q 897 99 882 99 q 957 165 935 99 l 981 236 l 1008 236 l 972 129 q 894 17 947 54 q 775 -19 842 -19 q 635 22 685 -19 q 586 131 586 63 q 589 165 586 153 l 628 385 q 633 439 633 413 q 627 474 633 460 q 607 499 621 489 q 519 483 551 483 q 494 490 500 483 q 490 513 488 497 q 502 534 493 528 q 529 540 511 540 q 608 526 557 540 q 700 571 665 535 q 753 653 735 607 q 792 776 771 699 q 826 888 811 849 q 867 957 842 928 q 976 1003 907 1003 q 1094 960 1049 1003 q 1140 847 1140 917 q 1098 731 1140 782 q 983 681 1056 681 q 900 710 935 681 q 865 796 865 740 m 364 147 q 351 79 351 94 q 372 40 351 50 q 446 28 392 31 l 440 0 q 194 4 356 4 q -65 0 19 4 l -58 28 q 15 39 -10 31 q 53 72 39 47 q 82 147 68 96 l 265 836 q 276 903 276 883 q 256 943 276 933 q 183 956 236 953 l 190 983 q 450 979 271 979 q 697 983 599 979 l 690 956 q 615 944 639 953 q 576 913 590 936 q 547 836 561 889 l 364 147 m 422 -58 q 497 -81 465 -58 q 529 -147 529 -103 q 465 -281 529 -231 q 301 -335 401 -332 l 301 -306 q 410 -284 367 -304 q 464 -231 453 -264 q 371 -256 425 -256 q 274 -182 274 -256 q 317 -92 274 -126 q 422 -58 360 -58 z "},"L":{"ha":857,"x_min":-67,"x_max":806,"o":"m 806 292 q 772 178 792 254 q 736 0 749 96 q 422 4 642 4 q -67 0 94 4 l -61 28 q 14 39 -11 31 q 53 71 39 47 q 82 147 68 94 l 265 836 q 276 903 276 883 q 256 943 276 933 q 183 956 236 953 l 190 983 q 453 979 271 979 q 696 983 599 979 l 689 956 q 613 944 638 953 q 574 913 589 936 q 546 836 560 889 l 363 147 q 350 79 350 94 q 370 41 350 50 q 442 32 390 32 l 467 32 q 634 95 547 32 q 775 292 721 158 l 806 292 z "},"Ĺ":{"ha":857,"x_min":-67,"x_max":854,"o":"m 806 292 q 772 178 792 254 q 736 0 749 96 q 422 4 642 4 q -67 0 94 4 l -61 28 q 14 39 -11 31 q 53 71 39 47 q 82 147 68 94 l 265 836 q 276 903 276 883 q 256 943 276 933 q 183 956 236 953 l 190 983 q 453 979 271 979 q 696 983 599 979 l 689 956 q 613 944 638 953 q 574 913 589 936 q 546 836 560 889 l 363 147 q 350 79 350 94 q 370 41 350 50 q 442 32 390 32 l 467 32 q 634 95 547 32 q 775 292 721 158 l 806 292 m 436 1089 q 521 1170 483 1131 q 568 1219 558 1210 q 635 1289 608 1264 q 694 1331 663 1314 q 758 1347 725 1347 q 808 1335 785 1347 q 844 1299 831 1324 q 854 1261 854 1281 q 835 1211 854 1235 q 782 1169 815 1188 q 632 1122 735 1144 q 446 1072 507 1092 l 436 1089 z "},"Ľ":{"ha":857,"x_min":-67,"x_max":946,"o":"m 806 292 q 772 178 792 254 q 736 0 749 96 q 422 4 642 4 q -67 0 94 4 l -61 28 q 14 39 -11 31 q 53 71 39 47 q 82 147 68 94 l 265 836 q 276 903 276 883 q 256 943 276 933 q 183 956 236 953 l 190 983 q 453 979 271 979 q 696 983 599 979 l 689 956 q 613 944 638 953 q 574 913 589 936 q 546 836 560 889 l 363 147 q 350 79 350 94 q 370 41 350 50 q 442 32 390 32 l 467 32 q 634 95 547 32 q 775 292 721 158 l 806 292 m 688 674 q 741 829 724 761 q 758 928 758 897 q 751 948 758 942 q 726 954 744 954 l 731 983 l 789 982 q 944 999 867 982 q 946 982 946 996 q 882 848 946 932 q 707 668 818 764 l 688 674 z "},"Ļ":{"ha":857,"x_min":-67,"x_max":806,"o":"m 806 292 q 772 178 792 254 q 736 0 749 96 q 422 4 642 4 q -67 0 94 4 l -61 28 q 14 39 -11 31 q 53 71 39 47 q 82 147 68 94 l 265 836 q 276 903 276 883 q 256 943 276 933 q 183 956 236 953 l 190 983 q 453 979 271 979 q 696 983 599 979 l 689 956 q 613 944 638 953 q 574 913 589 936 q 546 836 560 889 l 363 147 q 350 79 350 94 q 370 41 350 50 q 442 32 390 32 l 467 32 q 634 95 547 32 q 775 292 721 158 l 806 292 m 403 -58 q 478 -81 446 -58 q 510 -147 510 -103 q 446 -281 510 -231 q 282 -335 382 -332 l 282 -306 q 390 -284 347 -304 q 444 -231 433 -264 q 351 -256 406 -256 q 254 -182 254 -256 q 297 -92 254 -126 q 403 -58 340 -58 z "},"Ŀ":{"ha":885,"x_min":-67,"x_max":897,"o":"m 806 292 q 772 178 792 254 q 736 0 749 96 q 422 4 642 4 q -67 0 94 4 l -61 28 q 14 39 -11 31 q 53 71 39 47 q 82 147 68 94 l 265 836 q 276 903 276 883 q 256 943 276 933 q 183 956 236 953 l 190 983 q 453 979 271 979 q 696 983 599 979 l 689 956 q 613 944 638 953 q 574 913 589 936 q 546 836 560 889 l 363 147 q 350 79 350 94 q 370 41 350 50 q 442 32 390 32 l 467 32 q 634 95 547 32 q 775 292 721 158 l 806 292 m 632 496 q 676 601 632 560 q 788 643 721 643 q 869 619 840 643 q 897 549 897 596 q 876 479 897 513 q 819 425 856 446 q 740 404 783 404 q 660 428 688 404 q 632 496 632 451 z "},"Ł":{"ha":858,"x_min":-65,"x_max":807,"o":"m 807 292 q 774 178 793 254 q 738 0 750 96 q 424 4 643 4 q -65 0 96 4 l -60 28 q 15 39 -10 31 q 55 71 40 47 q 83 147 69 94 l 138 349 l 24 292 l 32 324 l 146 381 l 267 836 q 278 903 278 883 q 258 943 278 933 q 185 956 238 953 l 192 983 q 454 979 274 979 q 697 983 599 979 l 690 956 q 615 944 639 953 q 576 913 590 936 q 547 836 561 889 l 465 529 l 719 657 l 711 625 l 457 497 l 364 147 q 351 79 351 94 q 372 41 351 50 q 443 32 392 32 l 468 32 q 635 95 549 32 q 776 292 722 158 l 807 292 z "},"M":{"ha":1318,"x_min":-65,"x_max":1429,"o":"m 1172 979 q 1429 983 1325 979 l 1422 956 q 1347 944 1371 953 q 1308 913 1322 936 q 1279 836 1293 889 l 1096 147 q 1085 81 1085 100 q 1105 40 1085 50 q 1178 28 1125 31 l 1172 0 q 917 4 1071 4 q 667 0 746 4 l 672 28 q 748 39 724 31 q 787 71 772 47 q 815 147 801 94 l 1017 896 l 440 -7 l 410 -7 l 286 804 l 125 190 q 115 124 115 151 q 238 28 115 32 l 232 0 q 67 4 182 4 q -65 0 -19 4 l -60 28 q 40 75 6 31 q 94 190 75 119 l 267 836 q 278 903 278 883 q 258 943 278 933 q 185 956 238 953 l 192 983 q 426 979 269 979 q 554 983 500 979 l 635 350 l 1036 979 l 1172 979 z "},"N":{"ha":1196,"x_min":-118,"x_max":1351,"o":"m 1189 1047 q 1306 1005 1261 1047 q 1351 899 1351 963 q 1307 793 1351 833 q 1196 753 1263 753 q 1106 780 1139 753 q 1072 856 1072 807 q 1113 959 1072 917 q 1217 1013 1154 1001 q 1182 1024 1206 1024 q 1118 1003 1149 1024 q 1064 947 1088 982 q 936 624 1003 856 q 785 -7 869 393 l 754 -7 l 390 654 q 287 219 336 394 q 193 -15 238 44 q 128 -79 163 -56 q 44 -103 94 -103 q -73 -60 -28 -103 q -118 46 -118 -18 q -74 151 -118 111 q 38 192 -29 192 q 128 165 94 192 q 161 89 161 138 q 120 -15 161 28 q 17 -68 79 -57 q 51 -79 28 -79 q 171 -1 121 -79 q 278 291 222 81 q 399 835 333 501 l 399 836 q 407 899 407 876 q 385 942 407 932 q 300 956 363 953 l 307 983 q 431 979 350 979 q 543 983 496 979 l 847 393 q 1039 958 951 831 q 1189 1047 1100 1047 z "},"Ń":{"ha":1196,"x_min":-118,"x_max":1351,"o":"m 1189 1047 q 1306 1005 1261 1047 q 1351 899 1351 963 q 1307 793 1351 833 q 1196 753 1263 753 q 1106 780 1139 753 q 1072 856 1072 807 q 1113 959 1072 917 q 1217 1013 1154 1001 q 1182 1024 1206 1024 q 1118 1003 1149 1024 q 1064 947 1088 982 q 936 624 1003 856 q 785 -7 869 393 l 754 -7 l 390 654 q 287 219 336 394 q 193 -15 238 44 q 128 -79 163 -56 q 44 -103 94 -103 q -73 -60 -28 -103 q -118 46 -118 -18 q -74 151 -118 111 q 38 192 -29 192 q 128 165 94 192 q 161 89 161 138 q 120 -15 161 28 q 17 -68 79 -57 q 51 -79 28 -79 q 171 -1 121 -79 q 278 291 222 81 q 399 835 333 501 l 399 836 q 407 899 407 876 q 385 942 407 932 q 300 956 363 953 l 307 983 q 431 979 350 979 q 543 983 496 979 l 847 393 q 1039 958 951 831 q 1189 1047 1100 1047 m 722 1089 q 807 1170 769 1131 q 854 1219 844 1210 q 922 1289 894 1264 q 981 1331 949 1314 q 1044 1347 1011 1347 q 1094 1335 1071 1347 q 1131 1299 1117 1324 q 1140 1261 1140 1281 q 1121 1211 1140 1235 q 1068 1169 1101 1188 q 918 1122 1021 1144 q 732 1072 793 1092 l 722 1089 z "},"Ň":{"ha":1196,"x_min":-118,"x_max":1351,"o":"m 1189 1047 q 1306 1005 1261 1047 q 1351 899 1351 963 q 1307 793 1351 833 q 1196 753 1263 753 q 1106 780 1139 753 q 1072 856 1072 807 q 1113 959 1072 917 q 1217 1013 1154 1001 q 1182 1024 1206 1024 q 1118 1003 1149 1024 q 1064 947 1088 982 q 936 624 1003 856 q 785 -7 869 393 l 754 -7 l 390 654 q 287 219 336 394 q 193 -15 238 44 q 128 -79 163 -56 q 44 -103 94 -103 q -73 -60 -28 -103 q -118 46 -118 -18 q -74 151 -118 111 q 38 192 -29 192 q 128 165 94 192 q 161 89 161 138 q 120 -15 161 28 q 17 -68 79 -57 q 51 -79 28 -79 q 171 -1 121 -79 q 278 291 222 81 q 399 835 333 501 l 399 836 q 407 899 407 876 q 385 942 407 932 q 300 956 363 953 l 307 983 q 431 979 350 979 q 543 983 496 979 l 847 393 q 1039 958 951 831 q 1189 1047 1100 1047 m 860 1239 q 1172 1314 994 1285 l 1179 1294 q 946 1191 1056 1256 q 769 1056 836 1126 l 744 1056 q 674 1196 717 1140 q 551 1294 631 1251 l 557 1314 q 726 1280 657 1297 q 860 1239 794 1263 z "},"Ņ":{"ha":1196,"x_min":-118,"x_max":1351,"o":"m 1189 1047 q 1306 1005 1261 1047 q 1351 899 1351 963 q 1307 793 1351 833 q 1196 753 1263 753 q 1106 780 1139 753 q 1072 856 1072 807 q 1113 959 1072 917 q 1217 1013 1154 1001 q 1182 1024 1206 1024 q 1118 1003 1149 1024 q 1064 947 1088 982 q 936 624 1003 856 q 785 -7 869 393 l 754 -7 l 390 654 q 287 219 336 394 q 193 -15 238 44 q 128 -79 163 -56 q 44 -103 94 -103 q -73 -60 -28 -103 q -118 46 -118 -18 q -74 151 -118 111 q 38 192 -29 192 q 128 165 94 192 q 161 89 161 138 q 120 -15 161 28 q 17 -68 79 -57 q 51 -79 28 -79 q 171 -1 121 -79 q 278 291 222 81 q 399 835 333 501 l 399 836 q 407 899 407 876 q 385 942 407 932 q 300 956 363 953 l 307 983 q 431 979 350 979 q 543 983 496 979 l 847 393 q 1039 958 951 831 q 1189 1047 1100 1047 m 463 -58 q 538 -81 506 -58 q 569 -147 569 -103 q 506 -281 569 -231 q 342 -335 442 -332 l 342 -306 q 450 -284 407 -304 q 504 -231 493 -264 q 411 -256 465 -256 q 314 -182 314 -256 q 357 -92 314 -126 q 463 -58 400 -58 z "},"Ŋ":{"ha":1021,"x_min":-62,"x_max":1143,"o":"m 1017 979 q 1143 983 1096 979 l 1136 956 q 1060 944 1085 953 q 1022 913 1036 936 q 993 836 1007 889 l 771 -7 q 698 -196 746 -131 q 550 -261 650 -261 q 413 -231 471 -261 q 356 -137 356 -201 q 393 -50 356 -83 q 500 -17 431 -17 q 601 -43 561 -17 q 640 -118 640 -69 q 547 -235 640 -196 q 565 -237 558 -237 q 681 -173 643 -237 q 740 -7 719 -108 l 254 658 l 117 147 q 104 81 104 104 q 125 41 104 51 q 199 28 146 31 l 193 0 q 69 4 143 4 q -62 0 -17 4 l -57 28 q 19 39 -6 31 q 58 71 43 47 q 86 147 72 94 l 269 836 q 281 900 281 878 q 257 942 281 931 q 171 956 233 953 l 178 983 q 301 979 221 979 q 414 983 367 979 l 843 382 l 963 836 q 974 903 974 883 q 953 943 974 933 q 881 956 933 953 l 888 983 q 1017 979 936 979 z "},"Ñ":{"ha":1196,"x_min":-118,"x_max":1351,"o":"m 1189 1047 q 1306 1005 1261 1047 q 1351 899 1351 963 q 1307 793 1351 833 q 1196 753 1263 753 q 1106 780 1139 753 q 1072 856 1072 807 q 1113 959 1072 917 q 1217 1013 1154 1001 q 1182 1024 1206 1024 q 1118 1003 1149 1024 q 1064 947 1088 982 q 936 624 1003 856 q 785 -7 869 393 l 754 -7 l 390 654 q 287 219 336 394 q 193 -15 238 44 q 128 -79 163 -56 q 44 -103 94 -103 q -73 -60 -28 -103 q -118 46 -118 -18 q -74 151 -118 111 q 38 192 -29 192 q 128 165 94 192 q 161 89 161 138 q 120 -15 161 28 q 17 -68 79 -57 q 51 -79 28 -79 q 171 -1 121 -79 q 278 291 222 81 q 399 835 333 501 l 399 836 q 407 899 407 876 q 385 942 407 932 q 300 956 363 953 l 307 983 q 431 979 350 979 q 543 983 496 979 l 847 393 q 1039 958 951 831 q 1189 1047 1100 1047 m 707 1317 q 794 1302 760 1317 q 869 1260 829 1288 q 929 1226 906 1236 q 986 1215 953 1215 q 1047 1234 1019 1215 q 1100 1296 1074 1253 l 1125 1289 q 1011 1119 1082 1175 q 861 1063 940 1063 q 774 1077 808 1063 q 699 1119 739 1092 q 639 1153 663 1143 q 582 1164 615 1164 q 522 1145 549 1164 q 468 1083 494 1126 l 443 1090 q 557 1260 486 1204 q 707 1317 628 1317 z "},"O":{"ha":1124,"x_min":47,"x_max":1121,"o":"m 47 314 q 132 632 47 471 q 368 898 217 793 q 710 1003 519 1003 q 1012 915 903 1003 q 1121 668 1121 828 q 1035 351 1121 511 q 798 85 950 190 q 457 -19 646 -19 q 156 68 264 -19 q 47 314 47 156 m 697 978 q 528 878 610 978 q 397 619 447 778 q 347 296 347 461 q 381 83 347 161 q 469 6 415 6 q 638 106 557 6 q 769 364 719 206 q 819 688 819 522 q 785 900 819 822 q 697 978 751 978 z "},"Ó":{"ha":1124,"x_min":47,"x_max":1121,"o":"m 47 314 q 132 632 47 471 q 368 898 217 793 q 710 1003 519 1003 q 1012 915 903 1003 q 1121 668 1121 828 q 1035 351 1121 511 q 798 85 950 190 q 457 -19 646 -19 q 156 68 264 -19 q 47 314 47 156 m 697 978 q 528 878 610 978 q 397 619 447 778 q 347 296 347 461 q 381 83 347 161 q 469 6 415 6 q 638 106 557 6 q 769 364 719 206 q 819 688 819 522 q 785 900 819 822 q 697 978 751 978 m 686 1089 q 771 1170 733 1131 q 818 1219 808 1210 q 885 1289 858 1264 q 944 1331 913 1314 q 1008 1347 975 1347 q 1058 1335 1035 1347 q 1094 1299 1081 1324 q 1104 1261 1104 1281 q 1085 1211 1104 1235 q 1032 1169 1065 1188 q 882 1122 985 1144 q 696 1072 757 1092 l 686 1089 z "},"Ŏ":{"ha":1124,"x_min":47,"x_max":1121,"o":"m 47 314 q 132 632 47 471 q 368 898 217 793 q 710 1003 519 1003 q 1012 915 903 1003 q 1121 668 1121 828 q 1035 351 1121 511 q 798 85 950 190 q 457 -19 646 -19 q 156 68 264 -19 q 47 314 47 156 m 697 978 q 528 878 610 978 q 397 619 447 778 q 347 296 347 461 q 381 83 347 161 q 469 6 415 6 q 638 106 557 6 q 769 364 719 206 q 819 688 819 522 q 785 900 819 822 q 697 978 751 978 m 735 1225 q 913 1244 835 1225 q 1058 1303 992 1263 l 1075 1290 q 915 1127 1017 1194 q 706 1060 814 1060 q 553 1122 610 1060 q 478 1286 496 1185 l 499 1297 q 597 1242 543 1260 q 735 1225 651 1225 z "},"Ô":{"ha":1124,"x_min":47,"x_max":1121,"o":"m 47 314 q 132 632 47 471 q 368 898 217 793 q 710 1003 519 1003 q 1012 915 903 1003 q 1121 668 1121 828 q 1035 351 1121 511 q 798 85 950 190 q 457 -19 646 -19 q 156 68 264 -19 q 47 314 47 156 m 697 978 q 528 878 610 978 q 397 619 447 778 q 347 296 347 461 q 381 83 347 161 q 469 6 415 6 q 638 106 557 6 q 769 364 719 206 q 819 688 819 522 q 785 900 819 822 q 697 978 751 978 m 710 1144 q 397 1069 575 1099 l 390 1089 q 624 1192 514 1128 q 800 1328 733 1257 l 825 1328 q 896 1188 853 1243 q 1018 1089 939 1132 l 1013 1069 q 844 1103 913 1086 q 710 1144 775 1121 z "},"Ố":{"ha":1124,"x_min":47,"x_max":1181,"o":"m 47 314 q 132 632 47 471 q 368 898 217 793 q 710 1003 519 1003 q 1012 915 903 1003 q 1121 668 1121 828 q 1035 351 1121 511 q 798 85 950 190 q 457 -19 646 -19 q 156 68 264 -19 q 47 314 47 156 m 697 978 q 528 878 610 978 q 397 619 447 778 q 347 296 347 461 q 381 83 347 161 q 469 6 415 6 q 638 106 557 6 q 769 364 719 206 q 819 688 819 522 q 785 900 819 822 q 697 978 751 978 m 710 1144 q 397 1069 575 1099 l 390 1089 q 624 1192 514 1128 q 800 1328 733 1257 l 825 1328 q 896 1188 853 1243 q 1018 1089 939 1132 l 1013 1069 q 844 1103 913 1086 q 710 1144 775 1121 m 763 1394 q 847 1476 810 1436 q 894 1525 885 1515 q 962 1594 935 1569 q 1021 1636 989 1619 q 1085 1653 1051 1653 q 1134 1641 1111 1653 q 1171 1604 1157 1629 q 1181 1567 1181 1586 q 1161 1517 1181 1540 q 1108 1475 1142 1493 q 958 1428 1061 1450 q 772 1378 833 1397 l 763 1394 z "},"Ộ":{"ha":1124,"x_min":47,"x_max":1121,"o":"m 47 314 q 132 632 47 471 q 368 898 217 793 q 710 1003 519 1003 q 1012 915 903 1003 q 1121 668 1121 828 q 1035 351 1121 511 q 798 85 950 190 q 457 -19 646 -19 q 156 68 264 -19 q 47 314 47 156 m 697 978 q 528 878 610 978 q 397 619 447 778 q 347 296 347 461 q 381 83 347 161 q 469 6 415 6 q 638 106 557 6 q 769 364 719 206 q 819 688 819 522 q 785 900 819 822 q 697 978 751 978 m 710 1144 q 397 1069 575 1099 l 390 1089 q 624 1192 514 1128 q 800 1328 733 1257 l 825 1328 q 896 1188 853 1243 q 1018 1089 939 1132 l 1013 1069 q 844 1103 913 1086 q 710 1144 775 1121 m 422 -265 q 346 -246 372 -265 q 319 -187 319 -226 q 357 -95 319 -128 q 460 -62 394 -62 q 536 -82 510 -62 q 563 -140 563 -101 q 525 -233 563 -200 q 422 -265 488 -265 z "},"Ồ":{"ha":1124,"x_min":47,"x_max":1121,"o":"m 47 314 q 132 632 47 471 q 368 898 217 793 q 710 1003 519 1003 q 1012 915 903 1003 q 1121 668 1121 828 q 1035 351 1121 511 q 798 85 950 190 q 457 -19 646 -19 q 156 68 264 -19 q 47 314 47 156 m 697 978 q 528 878 610 978 q 397 619 447 778 q 347 296 347 461 q 381 83 347 161 q 469 6 415 6 q 638 106 557 6 q 769 364 719 206 q 819 688 819 522 q 785 900 819 822 q 697 978 751 978 m 710 1144 q 397 1069 575 1099 l 390 1089 q 624 1192 514 1128 q 800 1328 733 1257 l 825 1328 q 896 1188 853 1243 q 1018 1089 939 1132 l 1013 1069 q 844 1103 913 1086 q 710 1144 775 1121 m 865 1378 q 679 1419 778 1404 q 615 1432 639 1426 q 571 1449 592 1438 q 531 1484 546 1461 q 517 1532 517 1507 q 525 1568 517 1550 q 561 1606 538 1593 q 613 1619 585 1619 q 656 1610 638 1619 q 695 1584 679 1600 q 742 1532 711 1568 q 875 1394 800 1460 l 865 1378 z "},"Ổ":{"ha":1124,"x_min":47,"x_max":1322,"o":"m 47 314 q 132 632 47 471 q 368 898 217 793 q 710 1003 519 1003 q 1012 915 903 1003 q 1121 668 1121 828 q 1035 351 1121 511 q 798 85 950 190 q 457 -19 646 -19 q 156 68 264 -19 q 47 314 47 156 m 697 978 q 528 878 610 978 q 397 619 447 778 q 347 296 347 461 q 381 83 347 161 q 469 6 415 6 q 638 106 557 6 q 769 364 719 206 q 819 688 819 522 q 785 900 819 822 q 697 978 751 978 m 710 1144 q 397 1069 575 1099 l 390 1089 q 624 1192 514 1128 q 800 1328 733 1257 l 825 1328 q 896 1188 853 1243 q 1018 1089 939 1132 l 1013 1069 q 844 1103 913 1086 q 710 1144 775 1121 m 1051 1271 q 1074 1331 1058 1308 q 1115 1378 1089 1353 q 1158 1426 1144 1404 q 1171 1485 1171 1447 q 1083 1574 1171 1574 q 1021 1561 1043 1574 q 1079 1483 1079 1538 q 1051 1421 1079 1444 q 983 1397 1024 1397 q 928 1417 949 1397 q 907 1468 907 1436 q 990 1569 907 1531 q 1149 1601 1058 1601 q 1276 1574 1229 1601 q 1322 1493 1322 1547 q 1293 1425 1322 1447 q 1206 1381 1264 1403 q 1117 1338 1149 1360 q 1079 1271 1086 1315 l 1051 1271 z "},"Ỗ":{"ha":1124,"x_min":47,"x_max":1165,"o":"m 47 314 q 132 632 47 471 q 368 898 217 793 q 710 1003 519 1003 q 1012 915 903 1003 q 1121 668 1121 828 q 1035 351 1121 511 q 798 85 950 190 q 457 -19 646 -19 q 156 68 264 -19 q 47 314 47 156 m 697 978 q 528 878 610 978 q 397 619 447 778 q 347 296 347 461 q 381 83 347 161 q 469 6 415 6 q 638 106 557 6 q 769 364 719 206 q 819 688 819 522 q 785 900 819 822 q 697 978 751 978 m 710 1144 q 397 1069 575 1099 l 390 1089 q 624 1192 514 1128 q 800 1328 733 1257 l 825 1328 q 896 1188 853 1243 q 1018 1089 939 1132 l 1013 1069 q 844 1103 913 1086 q 710 1144 775 1121 m 747 1622 q 835 1608 800 1622 q 910 1565 869 1593 q 969 1531 946 1542 q 1026 1521 993 1521 q 1087 1540 1060 1521 q 1140 1601 1114 1558 l 1165 1594 q 1051 1424 1122 1481 q 901 1368 981 1368 q 814 1383 849 1368 q 739 1425 779 1397 q 679 1459 703 1449 q 622 1469 656 1469 q 562 1451 589 1469 q 508 1389 535 1432 l 483 1396 q 597 1566 526 1510 q 747 1622 668 1622 z "},"Ö":{"ha":1124,"x_min":47,"x_max":1121,"o":"m 47 314 q 132 632 47 471 q 368 898 217 793 q 710 1003 519 1003 q 1012 915 903 1003 q 1121 668 1121 828 q 1035 351 1121 511 q 798 85 950 190 q 457 -19 646 -19 q 156 68 264 -19 q 47 314 47 156 m 697 978 q 528 878 610 978 q 397 619 447 778 q 347 296 347 461 q 381 83 347 161 q 469 6 415 6 q 638 106 557 6 q 769 364 719 206 q 819 688 819 522 q 785 900 819 822 q 697 978 751 978 m 428 1164 q 467 1266 428 1232 q 565 1300 507 1300 q 644 1271 618 1300 q 669 1192 669 1242 q 628 1092 669 1125 q 531 1058 588 1058 q 453 1086 478 1058 q 428 1164 428 1114 m 786 1164 q 826 1266 786 1232 q 924 1300 865 1300 q 1002 1271 976 1300 q 1028 1192 1028 1242 q 987 1092 1028 1125 q 889 1058 946 1058 q 811 1086 836 1058 q 786 1164 786 1114 z "},"Ọ":{"ha":1124,"x_min":47,"x_max":1121,"o":"m 47 314 q 132 632 47 471 q 368 898 217 793 q 710 1003 519 1003 q 1012 915 903 1003 q 1121 668 1121 828 q 1035 351 1121 511 q 798 85 950 190 q 457 -19 646 -19 q 156 68 264 -19 q 47 314 47 156 m 697 978 q 528 878 610 978 q 397 619 447 778 q 347 296 347 461 q 381 83 347 161 q 469 6 415 6 q 638 106 557 6 q 769 364 719 206 q 819 688 819 522 q 785 900 819 822 q 697 978 751 978 m 422 -265 q 346 -246 372 -265 q 319 -187 319 -226 q 357 -95 319 -128 q 460 -62 394 -62 q 536 -82 510 -62 q 563 -140 563 -101 q 525 -233 563 -200 q 422 -265 488 -265 z "},"Ò":{"ha":1124,"x_min":47,"x_max":1121,"o":"m 47 314 q 132 632 47 471 q 368 898 217 793 q 710 1003 519 1003 q 1012 915 903 1003 q 1121 668 1121 828 q 1035 351 1121 511 q 798 85 950 190 q 457 -19 646 -19 q 156 68 264 -19 q 47 314 47 156 m 697 978 q 528 878 610 978 q 397 619 447 778 q 347 296 347 461 q 381 83 347 161 q 469 6 415 6 q 638 106 557 6 q 769 364 719 206 q 819 688 819 522 q 785 900 819 822 q 697 978 751 978 m 789 1072 q 603 1114 701 1099 q 539 1126 563 1121 q 494 1143 515 1132 q 455 1178 469 1156 q 440 1226 440 1201 q 449 1263 440 1244 q 485 1301 461 1288 q 536 1314 508 1314 q 579 1304 561 1314 q 619 1278 603 1294 q 665 1226 635 1263 q 799 1089 724 1154 l 789 1072 z "},"Ỏ":{"ha":1124,"x_min":47,"x_max":1121,"o":"m 47 314 q 132 632 47 471 q 368 898 217 793 q 710 1003 519 1003 q 1012 915 903 1003 q 1121 668 1121 828 q 1035 351 1121 511 q 798 85 950 190 q 457 -19 646 -19 q 156 68 264 -19 q 47 314 47 156 m 697 978 q 528 878 610 978 q 397 619 447 778 q 347 296 347 461 q 381 83 347 161 q 469 6 415 6 q 638 106 557 6 q 769 364 719 206 q 819 688 819 522 q 785 900 819 822 q 697 978 751 978 m 703 1096 q 725 1156 710 1133 q 767 1203 740 1178 q 809 1251 796 1229 q 822 1310 822 1272 q 735 1399 822 1399 q 672 1386 694 1399 q 731 1308 731 1363 q 703 1246 731 1269 q 635 1222 675 1222 q 579 1242 600 1222 q 558 1293 558 1261 q 642 1394 558 1356 q 800 1426 710 1426 q 927 1399 881 1426 q 974 1318 974 1372 q 944 1250 974 1272 q 857 1206 915 1228 q 769 1163 800 1185 q 731 1096 738 1140 l 703 1096 z "},"Ơ":{"ha":1124,"x_min":47,"x_max":1308,"o":"m 1197 1217 q 1276 1185 1243 1217 q 1308 1103 1308 1154 q 1222 982 1308 1021 q 1119 952 1182 964 q 975 942 1056 940 q 1083 829 1046 899 q 1121 668 1121 760 q 1035 351 1121 511 q 798 85 950 190 q 457 -19 646 -19 q 156 68 264 -19 q 47 314 47 156 q 132 632 47 471 q 368 898 217 793 q 710 1003 519 1003 q 906 974 822 1003 q 992 969 953 969 q 1171 994 1086 969 q 1113 1042 1136 1013 q 1090 1111 1090 1072 q 1122 1188 1090 1158 q 1197 1217 1153 1217 m 469 6 q 638 106 557 6 q 769 364 719 206 q 819 688 819 522 q 785 900 819 822 q 697 978 751 978 q 528 878 610 978 q 397 619 447 778 q 347 296 347 461 q 381 83 347 161 q 469 6 415 6 z "},"Ớ":{"ha":1124,"x_min":47,"x_max":1308,"o":"m 1197 1217 q 1276 1185 1243 1217 q 1308 1103 1308 1154 q 1222 982 1308 1021 q 1119 952 1182 964 q 975 942 1056 940 q 1083 829 1046 899 q 1121 668 1121 760 q 1035 351 1121 511 q 798 85 950 190 q 457 -19 646 -19 q 156 68 264 -19 q 47 314 47 156 q 132 632 47 471 q 368 898 217 793 q 710 1003 519 1003 q 906 974 822 1003 q 992 969 953 969 q 1171 994 1086 969 q 1113 1042 1136 1013 q 1090 1111 1090 1072 q 1122 1188 1090 1158 q 1197 1217 1153 1217 m 469 6 q 638 106 557 6 q 769 364 719 206 q 819 688 819 522 q 785 900 819 822 q 697 978 751 978 q 528 878 610 978 q 397 619 447 778 q 347 296 347 461 q 381 83 347 161 q 469 6 415 6 m 686 1089 q 771 1170 733 1131 q 818 1219 808 1210 q 885 1289 858 1264 q 944 1331 913 1314 q 1008 1347 975 1347 q 1058 1335 1035 1347 q 1094 1299 1081 1324 q 1104 1261 1104 1281 q 1085 1211 1104 1235 q 1032 1169 1065 1188 q 882 1122 985 1144 q 696 1072 757 1092 l 686 1089 z "},"Ợ":{"ha":1124,"x_min":47,"x_max":1308,"o":"m 1197 1217 q 1276 1185 1243 1217 q 1308 1103 1308 1154 q 1222 982 1308 1021 q 1119 952 1182 964 q 975 942 1056 940 q 1083 829 1046 899 q 1121 668 1121 760 q 1035 351 1121 511 q 798 85 950 190 q 457 -19 646 -19 q 156 68 264 -19 q 47 314 47 156 q 132 632 47 471 q 368 898 217 793 q 710 1003 519 1003 q 906 974 822 1003 q 992 969 953 969 q 1171 994 1086 969 q 1113 1042 1136 1013 q 1090 1111 1090 1072 q 1122 1188 1090 1158 q 1197 1217 1153 1217 m 469 6 q 638 106 557 6 q 769 364 719 206 q 819 688 819 522 q 785 900 819 822 q 697 978 751 978 q 528 878 610 978 q 397 619 447 778 q 347 296 347 461 q 381 83 347 161 q 469 6 415 6 m 422 -265 q 346 -246 372 -265 q 319 -187 319 -226 q 357 -95 319 -128 q 460 -62 394 -62 q 536 -82 510 -62 q 563 -140 563 -101 q 525 -233 563 -200 q 422 -265 488 -265 z "},"Ờ":{"ha":1124,"x_min":47,"x_max":1308,"o":"m 1197 1217 q 1276 1185 1243 1217 q 1308 1103 1308 1154 q 1222 982 1308 1021 q 1119 952 1182 964 q 975 942 1056 940 q 1083 829 1046 899 q 1121 668 1121 760 q 1035 351 1121 511 q 798 85 950 190 q 457 -19 646 -19 q 156 68 264 -19 q 47 314 47 156 q 132 632 47 471 q 368 898 217 793 q 710 1003 519 1003 q 906 974 822 1003 q 992 969 953 969 q 1171 994 1086 969 q 1113 1042 1136 1013 q 1090 1111 1090 1072 q 1122 1188 1090 1158 q 1197 1217 1153 1217 m 469 6 q 638 106 557 6 q 769 364 719 206 q 819 688 819 522 q 785 900 819 822 q 697 978 751 978 q 528 878 610 978 q 397 619 447 778 q 347 296 347 461 q 381 83 347 161 q 469 6 415 6 m 789 1072 q 603 1114 701 1099 q 539 1126 563 1121 q 494 1143 515 1132 q 455 1178 469 1156 q 440 1226 440 1201 q 449 1263 440 1244 q 485 1301 461 1288 q 536 1314 508 1314 q 579 1304 561 1314 q 619 1278 603 1294 q 665 1226 635 1263 q 799 1089 724 1154 l 789 1072 z "},"Ở":{"ha":1124,"x_min":47,"x_max":1308,"o":"m 1197 1217 q 1276 1185 1243 1217 q 1308 1103 1308 1154 q 1222 982 1308 1021 q 1119 952 1182 964 q 975 942 1056 940 q 1083 829 1046 899 q 1121 668 1121 760 q 1035 351 1121 511 q 798 85 950 190 q 457 -19 646 -19 q 156 68 264 -19 q 47 314 47 156 q 132 632 47 471 q 368 898 217 793 q 710 1003 519 1003 q 906 974 822 1003 q 992 969 953 969 q 1171 994 1086 969 q 1113 1042 1136 1013 q 1090 1111 1090 1072 q 1122 1188 1090 1158 q 1197 1217 1153 1217 m 469 6 q 638 106 557 6 q 769 364 719 206 q 819 688 819 522 q 785 900 819 822 q 697 978 751 978 q 528 878 610 978 q 397 619 447 778 q 347 296 347 461 q 381 83 347 161 q 469 6 415 6 m 696 1026 q 718 1086 703 1064 q 760 1133 733 1108 q 802 1181 789 1160 q 815 1240 815 1203 q 728 1329 815 1329 q 665 1317 688 1329 q 724 1239 724 1293 q 696 1176 724 1200 q 628 1153 668 1153 q 572 1172 593 1153 q 551 1224 551 1192 q 635 1325 551 1286 q 793 1357 703 1357 q 920 1330 874 1357 q 967 1249 967 1303 q 938 1181 967 1203 q 850 1136 908 1158 q 762 1093 793 1115 q 724 1026 731 1071 l 696 1026 z "},"Ỡ":{"ha":1124,"x_min":47,"x_max":1308,"o":"m 1197 1217 q 1276 1185 1243 1217 q 1308 1103 1308 1154 q 1222 982 1308 1021 q 1119 952 1182 964 q 975 942 1056 940 q 1083 829 1046 899 q 1121 668 1121 760 q 1035 351 1121 511 q 798 85 950 190 q 457 -19 646 -19 q 156 68 264 -19 q 47 314 47 156 q 132 632 47 471 q 368 898 217 793 q 710 1003 519 1003 q 906 974 822 1003 q 992 969 953 969 q 1171 994 1086 969 q 1113 1042 1136 1013 q 1090 1111 1090 1072 q 1122 1188 1090 1158 q 1197 1217 1153 1217 m 469 6 q 638 106 557 6 q 769 364 719 206 q 819 688 819 522 q 785 900 819 822 q 697 978 751 978 q 528 878 610 978 q 397 619 447 778 q 347 296 347 461 q 381 83 347 161 q 469 6 415 6 m 671 1317 q 758 1302 724 1317 q 833 1260 793 1288 q 893 1226 869 1236 q 950 1215 917 1215 q 1010 1234 983 1215 q 1064 1296 1038 1253 l 1089 1289 q 975 1119 1046 1175 q 825 1063 904 1063 q 738 1077 772 1063 q 663 1119 703 1092 q 603 1153 626 1143 q 546 1164 579 1164 q 485 1145 513 1164 q 432 1083 458 1126 l 407 1090 q 521 1260 450 1204 q 671 1317 592 1317 z "},"Ő":{"ha":1124,"x_min":47,"x_max":1121,"o":"m 47 314 q 132 632 47 471 q 368 898 217 793 q 710 1003 519 1003 q 1012 915 903 1003 q 1121 668 1121 828 q 1035 351 1121 511 q 798 85 950 190 q 457 -19 646 -19 q 156 68 264 -19 q 47 314 47 156 m 697 978 q 528 878 610 978 q 397 619 447 778 q 347 296 347 461 q 381 83 347 161 q 469 6 415 6 q 638 106 557 6 q 769 364 719 206 q 819 688 819 522 q 785 900 819 822 q 697 978 751 978 m 463 1086 q 556 1219 503 1136 q 592 1276 578 1257 q 625 1310 607 1296 q 676 1326 647 1326 q 722 1315 700 1326 q 758 1282 744 1303 q 772 1236 772 1263 q 728 1160 772 1189 q 688 1140 713 1149 q 647 1127 664 1132 q 621 1119 629 1122 q 475 1072 539 1096 l 463 1086 m 778 1086 q 871 1219 818 1136 q 908 1276 893 1257 q 940 1310 922 1296 q 993 1326 964 1326 q 1038 1315 1017 1326 q 1074 1282 1060 1303 q 1089 1236 1089 1260 q 1077 1194 1089 1214 q 1043 1160 1065 1175 q 1003 1140 1028 1149 q 962 1127 979 1132 q 936 1119 944 1122 q 790 1072 854 1096 l 778 1086 z "},"Ō":{"ha":1124,"x_min":47,"x_max":1121,"o":"m 47 314 q 132 632 47 471 q 368 898 217 793 q 710 1003 519 1003 q 1012 915 903 1003 q 1121 668 1121 828 q 1035 351 1121 511 q 798 85 950 190 q 457 -19 646 -19 q 156 68 264 -19 q 47 314 47 156 m 697 978 q 528 878 610 978 q 397 619 447 778 q 347 296 347 461 q 381 83 347 161 q 469 6 415 6 q 638 106 557 6 q 769 364 719 206 q 819 688 819 522 q 785 900 819 822 q 697 978 751 978 m 1008 1138 l 408 1138 l 417 1172 l 1017 1172 l 1008 1138 z "},"Ø":{"ha":1124,"x_min":13,"x_max":1133,"o":"m 1006 921 q 1091 814 1061 878 q 1121 668 1121 750 q 1035 351 1121 511 q 798 85 950 190 q 457 -19 646 -19 q 183 49 288 -19 l 36 -101 l 13 -82 l 158 67 q 47 314 47 154 q 132 632 47 471 q 368 898 217 793 q 710 1003 519 1003 q 982 936 878 1003 l 1113 1074 l 1133 1056 l 1006 921 m 697 978 q 528 878 610 978 q 397 619 447 778 q 347 296 347 461 q 350 221 347 268 l 815 775 q 774 924 806 871 q 697 978 742 978 m 469 6 q 638 106 557 6 q 769 364 719 206 q 819 688 819 522 q 818 735 819 719 l 356 181 q 399 51 368 97 q 469 6 429 6 z "},"Ǿ":{"ha":1124,"x_min":13,"x_max":1133,"o":"m 1032 1169 q 882 1122 985 1144 q 696 1072 757 1092 l 686 1089 q 771 1170 733 1131 q 818 1219 808 1210 q 885 1289 858 1264 q 944 1331 913 1314 q 1008 1347 975 1347 q 1058 1335 1035 1347 q 1094 1299 1081 1324 q 1104 1261 1104 1281 q 1085 1211 1104 1235 q 1032 1169 1065 1188 m 1006 921 q 1091 814 1061 878 q 1121 668 1121 750 q 1035 351 1121 511 q 798 85 950 190 q 457 -19 646 -19 q 183 49 288 -19 l 36 -101 l 13 -82 l 158 67 q 47 314 47 154 q 132 632 47 471 q 368 898 217 793 q 710 1003 519 1003 q 982 936 878 1003 l 1113 1074 l 1133 1056 l 1006 921 m 697 978 q 528 878 610 978 q 397 619 447 778 q 347 296 347 461 q 350 221 347 268 l 815 775 q 774 924 806 871 q 697 978 742 978 m 469 6 q 638 106 557 6 q 769 364 719 206 q 819 688 819 522 q 818 735 819 719 l 356 181 q 399 51 368 97 q 469 6 429 6 z "},"Õ":{"ha":1124,"x_min":47,"x_max":1121,"o":"m 47 314 q 132 632 47 471 q 368 898 217 793 q 710 1003 519 1003 q 1012 915 903 1003 q 1121 668 1121 828 q 1035 351 1121 511 q 798 85 950 190 q 457 -19 646 -19 q 156 68 264 -19 q 47 314 47 156 m 697 978 q 528 878 610 978 q 397 619 447 778 q 347 296 347 461 q 381 83 347 161 q 469 6 415 6 q 638 106 557 6 q 769 364 719 206 q 819 688 819 522 q 785 900 819 822 q 697 978 751 978 m 671 1317 q 758 1302 724 1317 q 833 1260 793 1288 q 893 1226 869 1236 q 950 1215 917 1215 q 1010 1234 983 1215 q 1064 1296 1038 1253 l 1089 1289 q 975 1119 1046 1175 q 825 1063 904 1063 q 738 1077 772 1063 q 663 1119 703 1092 q 603 1153 626 1143 q 546 1164 579 1164 q 485 1145 513 1164 q 432 1083 458 1126 l 407 1090 q 521 1260 450 1204 q 671 1317 592 1317 z "},"Œ":{"ha":1417,"x_min":47,"x_max":1492,"o":"m 1204 979 q 1492 983 1404 979 q 1439 819 1457 892 q 1421 733 1432 789 l 1390 733 q 1400 832 1400 788 q 1371 924 1400 897 q 1278 951 1342 951 l 1218 951 q 1145 944 1169 951 q 1107 913 1121 936 q 1079 836 1093 889 l 992 508 l 1072 508 q 1138 529 1111 508 q 1180 581 1164 550 q 1215 664 1196 611 l 1246 664 q 1208 532 1224 596 l 1199 494 q 1163 325 1183 438 l 1132 325 q 1136 368 1132 347 q 1139 411 1139 399 q 1124 460 1139 442 q 1067 481 1108 478 l 985 481 l 896 147 q 883 79 883 94 q 903 41 883 50 q 975 32 924 32 l 1049 32 q 1158 55 1115 32 q 1233 130 1201 78 q 1297 278 1265 182 l 1328 278 q 1299 178 1317 247 q 1263 0 1275 96 q 949 4 1168 4 q 606 3 718 4 q 457 -19 531 -19 q 156 68 264 -19 q 47 314 47 156 q 132 632 47 471 q 368 898 217 793 q 710 1003 519 1003 q 832 979 771 1003 l 967 979 l 1204 979 m 797 836 q 810 908 810 881 q 788 963 810 947 q 715 978 765 978 q 534 878 619 978 q 398 620 449 779 q 347 296 347 461 q 385 82 347 158 q 492 6 422 6 q 558 22 532 6 q 596 76 585 38 l 797 836 z "},"P":{"ha":943,"x_min":-67,"x_max":1007,"o":"m 363 147 q 353 92 353 111 q 374 46 353 61 q 444 28 394 31 l 439 0 q 197 4 343 4 q -67 0 17 4 l -61 28 q 14 39 -11 31 q 53 71 39 47 q 82 147 68 94 l 265 836 q 275 900 275 882 q 256 940 275 928 q 183 956 236 953 l 190 983 q 444 979 271 979 q 544 981 511 979 l 647 982 q 919 931 831 982 q 1007 772 1007 879 q 934 582 1007 667 q 730 448 861 497 q 428 394 599 399 l 363 147 m 436 424 q 596 491 533 431 q 686 638 658 551 q 714 810 714 724 q 688 919 714 882 q 607 956 663 956 q 576 942 585 956 q 558 885 568 929 q 553 863 556 875 q 546 836 550 850 l 436 424 z "},"Þ":{"ha":969,"x_min":-65,"x_max":975,"o":"m 364 147 q 351 79 351 94 q 372 40 351 50 q 446 28 392 31 l 440 0 q 181 4 351 4 q -65 0 17 4 l -58 28 q 15 39 -10 31 q 53 72 39 47 q 82 147 68 96 l 265 836 q 276 903 276 883 q 256 943 276 933 q 183 956 236 953 l 190 983 q 436 979 268 979 q 697 983 593 979 l 690 956 q 615 944 639 953 q 576 913 590 936 q 547 836 561 889 l 529 769 q 615 771 558 771 q 884 715 793 771 q 975 561 975 658 q 899 368 975 454 q 687 233 824 282 q 374 183 550 183 l 364 147 m 522 744 l 381 211 l 382 211 q 546 264 478 211 q 648 402 614 317 q 682 583 682 488 q 646 699 682 654 q 547 744 610 744 l 522 744 z "},"Q":{"ha":1201,"x_min":-47,"x_max":1192,"o":"m 949 192 q 1053 156 1013 192 q 1093 51 1093 119 q 1042 -97 1093 -25 q 899 -215 992 -169 q 685 -261 806 -261 q 521 -235 594 -261 q 392 -173 447 -210 q 274 -81 338 -136 q 97 -114 167 -114 q -8 -85 31 -114 q -47 4 -47 -56 q -19 95 -47 54 q 56 159 8 136 q 164 182 104 182 q 318 147 240 182 q 500 44 396 111 q 789 308 683 143 q 894 689 894 474 q 845 903 894 828 q 704 978 796 978 q 546 913 615 978 q 439 745 476 847 q 401 538 401 643 q 429 422 401 461 q 533 383 457 383 q 675 424 613 383 q 764 531 738 465 q 781 604 778 565 q 727 531 767 554 q 644 507 688 507 q 556 544 589 507 q 522 636 522 581 q 568 748 522 703 q 678 793 614 793 q 776 749 740 793 q 813 628 813 704 q 765 476 813 542 q 634 374 718 410 q 442 338 550 338 q 201 403 294 338 q 107 588 107 468 q 194 798 107 703 q 428 948 282 893 q 738 1003 574 1003 q 970 968 867 1003 q 1133 870 1074 933 q 1192 725 1192 807 q 1095 491 1192 619 q 845 240 999 363 q 524 28 692 118 q 724 -88 646 -50 q 883 -126 803 -126 q 1047 -25 1006 -126 q 929 -71 1000 -71 q 833 -38 871 -71 q 794 53 794 -6 q 838 153 794 114 q 949 192 881 192 m 106 -90 q 251 -61 161 -90 q 147 15 190 -10 q 54 40 103 40 q 3 26 21 40 q -15 -12 -15 13 q 17 -69 -15 -47 q 106 -90 49 -90 z "},"R":{"ha":1031,"x_min":-67,"x_max":1007,"o":"m 968 168 l 1000 168 l 994 150 q 909 22 967 63 q 751 -19 851 -19 q 601 18 651 -19 q 551 125 551 56 q 554 161 551 136 l 581 319 q 585 365 585 344 q 555 444 585 417 q 450 475 525 471 l 364 147 q 356 117 363 140 q 350 79 350 93 q 371 42 350 54 q 444 28 392 31 l 439 0 q 192 4 343 4 q -67 0 17 4 l -61 28 q 14 39 -11 31 q 53 71 39 47 q 82 147 68 94 l 264 836 q 276 901 276 883 q 256 940 276 928 q 183 956 236 953 l 190 983 q 426 979 271 979 l 560 981 q 639 982 589 982 q 919 938 831 982 q 1007 790 1007 893 q 890 583 1007 664 q 569 483 772 501 q 784 441 708 475 q 860 324 860 407 q 857 290 860 313 l 833 146 q 831 114 831 121 q 875 60 831 60 q 924 82 904 60 q 961 149 944 104 l 968 168 m 631 956 q 585 940 601 956 q 558 883 569 925 l 457 499 q 585 538 524 501 q 688 645 647 574 q 728 819 728 717 q 631 956 728 956 z "},"Ŕ":{"ha":1031,"x_min":-67,"x_max":1007,"o":"m 968 168 l 1000 168 l 994 150 q 909 22 967 63 q 751 -19 851 -19 q 601 18 651 -19 q 551 125 551 56 q 554 161 551 136 l 581 319 q 585 365 585 344 q 555 444 585 417 q 450 475 525 471 l 364 147 q 356 117 363 140 q 350 79 350 93 q 371 42 350 54 q 444 28 392 31 l 439 0 q 192 4 343 4 q -67 0 17 4 l -61 28 q 14 39 -11 31 q 53 71 39 47 q 82 147 68 94 l 264 836 q 276 901 276 883 q 256 940 276 928 q 183 956 236 953 l 190 983 q 426 979 271 979 l 560 981 q 639 982 589 982 q 919 938 831 982 q 1007 790 1007 893 q 890 583 1007 664 q 569 483 772 501 q 784 441 708 475 q 860 324 860 407 q 857 290 860 313 l 833 146 q 831 114 831 121 q 875 60 831 60 q 924 82 904 60 q 961 149 944 104 l 968 168 m 631 956 q 585 940 601 956 q 558 883 569 925 l 457 499 q 585 538 524 501 q 688 645 647 574 q 728 819 728 717 q 631 956 728 956 m 579 1089 q 664 1170 626 1131 q 711 1219 701 1210 q 778 1289 751 1264 q 838 1331 806 1314 q 901 1347 868 1347 q 951 1335 928 1347 q 988 1299 974 1324 q 997 1261 997 1281 q 978 1211 997 1235 q 925 1169 958 1188 q 775 1122 878 1144 q 589 1072 650 1092 l 579 1089 z "},"Ř":{"ha":1031,"x_min":-67,"x_max":1036,"o":"m 968 168 l 1000 168 l 994 150 q 909 22 967 63 q 751 -19 851 -19 q 601 18 651 -19 q 551 125 551 56 q 554 161 551 136 l 581 319 q 585 365 585 344 q 555 444 585 417 q 450 475 525 471 l 364 147 q 356 117 363 140 q 350 79 350 93 q 371 42 350 54 q 444 28 392 31 l 439 0 q 192 4 343 4 q -67 0 17 4 l -61 28 q 14 39 -11 31 q 53 71 39 47 q 82 147 68 94 l 264 836 q 276 901 276 883 q 256 940 276 928 q 183 956 236 953 l 190 983 q 426 979 271 979 l 560 981 q 639 982 589 982 q 919 938 831 982 q 1007 790 1007 893 q 890 583 1007 664 q 569 483 772 501 q 784 441 708 475 q 860 324 860 407 q 857 290 860 313 l 833 146 q 831 114 831 121 q 875 60 831 60 q 924 82 904 60 q 961 149 944 104 l 968 168 m 631 956 q 585 940 601 956 q 558 883 569 925 l 457 499 q 585 538 524 501 q 688 645 647 574 q 728 819 728 717 q 631 956 728 956 m 717 1239 q 1029 1314 851 1285 l 1036 1294 q 803 1191 913 1256 q 626 1056 693 1126 l 601 1056 q 531 1196 574 1140 q 408 1294 488 1251 l 414 1314 q 583 1280 514 1297 q 717 1239 651 1263 z "},"Ŗ":{"ha":1031,"x_min":-67,"x_max":1007,"o":"m 968 168 l 1000 168 l 994 150 q 909 22 967 63 q 751 -19 851 -19 q 601 18 651 -19 q 551 125 551 56 q 554 161 551 136 l 581 319 q 585 365 585 344 q 555 444 585 417 q 450 475 525 471 l 364 147 q 356 117 363 140 q 350 79 350 93 q 371 42 350 54 q 444 28 392 31 l 439 0 q 192 4 343 4 q -67 0 17 4 l -61 28 q 14 39 -11 31 q 53 71 39 47 q 82 147 68 94 l 264 836 q 276 901 276 883 q 256 940 276 928 q 183 956 236 953 l 190 983 q 426 979 271 979 l 560 981 q 639 982 589 982 q 919 938 831 982 q 1007 790 1007 893 q 890 583 1007 664 q 569 483 772 501 q 784 441 708 475 q 860 324 860 407 q 857 290 860 313 l 833 146 q 831 114 831 121 q 875 60 831 60 q 924 82 904 60 q 961 149 944 104 l 968 168 m 631 956 q 585 940 601 956 q 558 883 569 925 l 457 499 q 585 538 524 501 q 688 645 647 574 q 728 819 728 717 q 631 956 728 956 m 451 -58 q 526 -81 494 -58 q 558 -147 558 -103 q 494 -281 558 -231 q 331 -335 431 -332 l 331 -306 q 439 -284 396 -304 q 493 -231 482 -264 q 400 -256 454 -256 q 303 -182 303 -256 q 346 -92 303 -126 q 451 -58 389 -58 z "},"S":{"ha":846,"x_min":-49,"x_max":901,"o":"m 901 993 q 819 710 849 860 l 792 710 q 800 786 800 750 q 747 918 800 871 q 600 965 694 965 q 492 933 535 965 q 450 831 450 900 q 485 713 450 769 q 594 571 521 657 q 681 465 649 508 q 737 369 714 421 q 760 261 760 317 q 695 103 760 167 q 537 10 631 40 q 356 -19 443 -19 q 202 -6 254 -19 q 86 44 150 8 q 39 65 50 65 q 10 51 21 65 q -21 -10 -1 36 l -49 -10 q -5 117 -26 43 q 46 324 17 192 l 74 324 q 61 228 61 289 q 120 67 61 121 q 288 13 179 13 q 414 47 378 13 q 450 140 450 81 q 415 285 450 219 q 308 438 379 350 q 206 585 240 522 q 171 721 171 647 q 227 876 171 813 q 367 972 283 940 q 536 1003 451 1003 q 643 992 596 1003 q 712 972 690 981 q 782 939 733 963 q 805 928 789 936 q 828 919 821 919 q 849 937 839 919 q 874 993 860 954 l 901 993 z "},"Ś":{"ha":846,"x_min":-49,"x_max":967,"o":"m 901 993 q 819 710 849 860 l 792 710 q 800 786 800 750 q 747 918 800 871 q 600 965 694 965 q 492 933 535 965 q 450 831 450 900 q 485 713 450 769 q 594 571 521 657 q 681 465 649 508 q 737 369 714 421 q 760 261 760 317 q 695 103 760 167 q 537 10 631 40 q 356 -19 443 -19 q 202 -6 254 -19 q 86 44 150 8 q 39 65 50 65 q 10 51 21 65 q -21 -10 -1 36 l -49 -10 q -5 117 -26 43 q 46 324 17 192 l 74 324 q 61 228 61 289 q 120 67 61 121 q 288 13 179 13 q 414 47 378 13 q 450 140 450 81 q 415 285 450 219 q 308 438 379 350 q 206 585 240 522 q 171 721 171 647 q 227 876 171 813 q 367 972 283 940 q 536 1003 451 1003 q 643 992 596 1003 q 712 972 690 981 q 782 939 733 963 q 805 928 789 936 q 828 919 821 919 q 849 937 839 919 q 874 993 860 954 l 901 993 m 549 1089 q 633 1170 596 1131 q 681 1219 671 1210 q 748 1289 721 1264 q 807 1331 775 1314 q 871 1347 838 1347 q 920 1335 897 1347 q 957 1299 943 1324 q 967 1261 967 1281 q 947 1211 967 1235 q 894 1169 928 1188 q 744 1122 847 1144 q 558 1072 619 1092 l 549 1089 z "},"Š":{"ha":846,"x_min":-49,"x_max":1006,"o":"m 901 993 q 819 710 849 860 l 792 710 q 800 786 800 750 q 747 918 800 871 q 600 965 694 965 q 492 933 535 965 q 450 831 450 900 q 485 713 450 769 q 594 571 521 657 q 681 465 649 508 q 737 369 714 421 q 760 261 760 317 q 695 103 760 167 q 537 10 631 40 q 356 -19 443 -19 q 202 -6 254 -19 q 86 44 150 8 q 39 65 50 65 q 10 51 21 65 q -21 -10 -1 36 l -49 -10 q -5 117 -26 43 q 46 324 17 192 l 74 324 q 61 228 61 289 q 120 67 61 121 q 288 13 179 13 q 414 47 378 13 q 450 140 450 81 q 415 285 450 219 q 308 438 379 350 q 206 585 240 522 q 171 721 171 647 q 227 876 171 813 q 367 972 283 940 q 536 1003 451 1003 q 643 992 596 1003 q 712 972 690 981 q 782 939 733 963 q 805 928 789 936 q 828 919 821 919 q 849 937 839 919 q 874 993 860 954 l 901 993 m 686 1239 q 999 1314 821 1285 l 1006 1294 q 772 1191 882 1256 q 596 1056 663 1126 l 571 1056 q 500 1196 543 1140 q 378 1294 457 1251 l 383 1314 q 552 1280 483 1297 q 686 1239 621 1263 z "},"Ş":{"ha":846,"x_min":-49,"x_max":901,"o":"m 901 993 q 819 710 849 860 l 792 710 q 800 786 800 750 q 747 918 800 871 q 600 965 694 965 q 492 933 535 965 q 450 831 450 900 q 485 713 450 769 q 594 571 521 657 q 681 465 649 508 q 737 369 714 421 q 760 261 760 317 q 695 103 760 167 q 537 10 631 40 q 356 -19 443 -19 q 202 -6 254 -19 q 86 44 150 8 q 39 65 50 65 q 10 51 21 65 q -21 -10 -1 36 l -49 -10 q -5 117 -26 43 q 46 324 17 192 l 74 324 q 61 228 61 289 q 120 67 61 121 q 288 13 179 13 q 414 47 378 13 q 450 140 450 81 q 415 285 450 219 q 308 438 379 350 q 206 585 240 522 q 171 721 171 647 q 227 876 171 813 q 367 972 283 940 q 536 1003 451 1003 q 643 992 596 1003 q 712 972 690 981 q 782 939 733 963 q 805 928 789 936 q 828 919 821 919 q 849 937 839 919 q 874 993 860 954 l 901 993 m 314 -79 q 400 -62 357 -62 q 478 -81 449 -62 q 507 -136 507 -99 q 433 -231 507 -200 q 256 -261 358 -261 q 165 -253 208 -261 q 94 -236 121 -246 l 103 -214 q 156 -223 122 -218 q 215 -228 189 -228 q 294 -215 260 -228 q 329 -169 329 -203 q 290 -137 329 -137 q 247 -147 268 -137 l 315 10 l 353 10 l 314 -79 z "},"Ŝ":{"ha":846,"x_min":-49,"x_max":901,"o":"m 901 993 q 819 710 849 860 l 792 710 q 800 786 800 750 q 747 918 800 871 q 600 965 694 965 q 492 933 535 965 q 450 831 450 900 q 485 713 450 769 q 594 571 521 657 q 681 465 649 508 q 737 369 714 421 q 760 261 760 317 q 695 103 760 167 q 537 10 631 40 q 356 -19 443 -19 q 202 -6 254 -19 q 86 44 150 8 q 39 65 50 65 q 10 51 21 65 q -21 -10 -1 36 l -49 -10 q -5 117 -26 43 q 46 324 17 192 l 74 324 q 61 228 61 289 q 120 67 61 121 q 288 13 179 13 q 414 47 378 13 q 450 140 450 81 q 415 285 450 219 q 308 438 379 350 q 206 585 240 522 q 171 721 171 647 q 227 876 171 813 q 367 972 283 940 q 536 1003 451 1003 q 643 992 596 1003 q 712 972 690 981 q 782 939 733 963 q 805 928 789 936 q 828 919 821 919 q 849 937 839 919 q 874 993 860 954 l 901 993 m 572 1144 q 260 1069 438 1099 l 253 1089 q 486 1192 376 1128 q 663 1328 596 1257 l 688 1328 q 758 1188 715 1243 q 881 1089 801 1132 l 875 1069 q 706 1103 775 1086 q 572 1144 638 1121 z "},"Ș":{"ha":846,"x_min":-49,"x_max":901,"o":"m 901 993 q 819 710 849 860 l 792 710 q 800 786 800 750 q 747 918 800 871 q 600 965 694 965 q 492 933 535 965 q 450 831 450 900 q 485 713 450 769 q 594 571 521 657 q 681 465 649 508 q 737 369 714 421 q 760 261 760 317 q 695 103 760 167 q 537 10 631 40 q 356 -19 443 -19 q 202 -6 254 -19 q 86 44 150 8 q 39 65 50 65 q 10 51 21 65 q -21 -10 -1 36 l -49 -10 q -5 117 -26 43 q 46 324 17 192 l 74 324 q 61 228 61 289 q 120 67 61 121 q 288 13 179 13 q 414 47 378 13 q 450 140 450 81 q 415 285 450 219 q 308 438 379 350 q 206 585 240 522 q 171 721 171 647 q 227 876 171 813 q 367 972 283 940 q 536 1003 451 1003 q 643 992 596 1003 q 712 972 690 981 q 782 939 733 963 q 805 928 789 936 q 828 919 821 919 q 849 937 839 919 q 874 993 860 954 l 901 993 m 313 -58 q 388 -81 356 -58 q 419 -147 419 -103 q 356 -281 419 -231 q 192 -335 292 -332 l 192 -306 q 300 -284 257 -304 q 354 -231 343 -264 q 261 -256 315 -256 q 164 -182 164 -256 q 207 -92 164 -126 q 313 -58 250 -58 z "},"ẞ":{"ha":988,"x_min":-93,"x_max":960,"o":"m 188 -239 q -93 -261 49 -240 l 146 635 q 668 1003 243 1003 q 884 956 808 1003 q 960 813 960 910 q 847 635 960 713 q 567 519 733 557 q 776 472 696 510 q 891 384 857 435 q 925 281 925 333 q 868 119 925 188 q 709 16 811 51 q 478 -19 607 -19 q 362 10 404 -19 q 319 103 319 39 q 358 215 319 167 q 461 264 396 264 q 538 236 508 264 q 567 164 567 208 q 526 63 567 108 q 429 6 486 17 l 464 3 q 553 39 514 3 q 616 142 593 75 q 639 296 639 208 q 610 439 639 371 q 539 507 582 507 q 499 495 518 500 q 467 490 481 490 q 446 495 453 490 q 439 507 439 500 q 451 527 439 519 q 476 535 463 535 q 510 531 492 535 q 547 522 528 528 q 635 684 597 574 q 674 888 674 794 q 664 962 674 942 q 624 982 654 982 q 538 942 575 982 q 478 822 500 903 l 188 -239 z "},"Ə":{"ha":1083,"x_min":36,"x_max":1072,"o":"m 658 1004 q 960 916 849 1004 q 1072 636 1072 828 q 984 315 1072 467 q 744 72 896 164 q 411 -19 593 -19 q 142 58 247 -19 q 36 286 36 136 q 56 422 36 347 l 718 422 q 744 552 735 482 q 753 681 753 622 q 697 892 753 831 q 538 954 640 954 q 385 918 457 954 q 269 819 311 881 q 190 650 228 758 l 158 650 q 236 983 215 833 l 268 983 q 264 935 264 953 q 281 901 264 901 q 313 913 293 901 q 367 942 321 917 q 492 985 414 967 q 658 1004 569 1004 m 442 13 q 590 102 522 13 q 714 396 657 192 l 343 396 q 307 199 307 288 q 342 63 307 114 q 442 13 376 13 z "},"T":{"ha":965,"x_min":108,"x_max":1233,"o":"m 1097 1231 q 1195 1195 1157 1231 q 1233 1111 1233 1160 q 1117 960 1233 1010 q 876 922 1025 922 q 836 924 850 922 l 635 161 q 625 100 625 128 q 651 48 625 64 q 739 28 676 32 l 733 0 q 443 4 636 4 q 171 0 258 4 l 176 28 q 269 42 236 31 q 320 81 301 54 q 353 161 339 108 l 561 943 q 403 950 464 950 q 244 926 293 950 q 333 883 299 919 q 368 792 368 847 q 329 692 368 732 q 233 653 290 653 q 142 692 175 653 q 108 788 108 732 q 132 874 108 832 q 210 942 156 915 q 396 975 278 975 q 672 961 494 975 q 890 950 831 950 q 1015 961 964 950 q 976 1017 992 983 q 960 1092 960 1050 q 998 1192 960 1154 q 1097 1231 1036 1231 z "},"Ŧ":{"ha":965,"x_min":108,"x_max":1233,"o":"m 1097 1231 q 1195 1195 1157 1231 q 1233 1111 1233 1160 q 1117 960 1233 1010 q 876 922 1025 922 q 836 924 850 922 l 635 161 q 625 100 625 128 q 651 48 625 64 q 739 28 676 32 l 733 0 q 443 4 636 4 q 171 0 258 4 l 176 28 q 269 42 236 31 q 320 81 301 54 q 353 161 339 108 l 561 943 q 403 950 464 950 q 244 926 293 950 q 333 883 299 919 q 368 792 368 847 q 329 692 368 732 q 233 653 290 653 q 142 692 175 653 q 108 788 108 732 q 132 874 108 832 q 210 942 156 915 q 396 975 278 975 q 672 961 494 975 q 890 950 831 950 q 1015 961 964 950 q 976 1017 992 983 q 960 1092 960 1050 q 998 1192 960 1154 q 1097 1231 1036 1231 m 864 474 l 264 474 l 272 508 l 872 508 l 864 474 z "},"Ť":{"ha":965,"x_min":108,"x_max":1233,"o":"m 1097 1231 q 1195 1195 1157 1231 q 1233 1111 1233 1160 q 1117 960 1233 1010 q 876 922 1025 922 q 836 924 850 922 l 635 161 q 625 100 625 128 q 651 48 625 64 q 739 28 676 32 l 733 0 q 443 4 636 4 q 171 0 258 4 l 176 28 q 269 42 236 31 q 320 81 301 54 q 353 161 339 108 l 561 943 q 403 950 464 950 q 244 926 293 950 q 333 883 299 919 q 368 792 368 847 q 329 692 368 732 q 233 653 290 653 q 142 692 175 653 q 108 788 108 732 q 132 874 108 832 q 210 942 156 915 q 396 975 278 975 q 672 961 494 975 q 890 950 831 950 q 1015 961 964 950 q 976 1017 992 983 q 960 1092 960 1050 q 998 1192 960 1154 q 1097 1231 1036 1231 m 796 1239 q 1108 1314 931 1285 l 1115 1294 q 882 1191 992 1256 q 706 1056 772 1126 l 681 1056 q 610 1196 653 1140 q 488 1294 567 1251 l 493 1314 q 662 1280 593 1297 q 796 1239 731 1263 z "},"Ţ":{"ha":965,"x_min":108,"x_max":1233,"o":"m 1097 1231 q 1195 1195 1157 1231 q 1233 1111 1233 1160 q 1117 960 1233 1010 q 876 922 1025 922 q 836 924 850 922 l 635 161 q 625 100 625 128 q 651 48 625 64 q 739 28 676 32 l 733 0 q 443 4 636 4 q 171 0 258 4 l 176 28 q 269 42 236 31 q 320 81 301 54 q 353 161 339 108 l 561 943 q 403 950 464 950 q 244 926 293 950 q 333 883 299 919 q 368 792 368 847 q 329 692 368 732 q 233 653 290 653 q 142 692 175 653 q 108 788 108 732 q 132 874 108 832 q 210 942 156 915 q 396 975 278 975 q 672 961 494 975 q 890 950 831 950 q 1015 961 964 950 q 976 1017 992 983 q 960 1092 960 1050 q 998 1192 960 1154 q 1097 1231 1036 1231 m 428 -79 q 514 -62 471 -62 q 592 -81 563 -62 q 621 -136 621 -99 q 547 -231 621 -200 q 369 -261 472 -261 q 278 -253 322 -261 q 208 -236 235 -246 l 217 -214 q 269 -223 236 -218 q 329 -228 303 -228 q 408 -215 374 -228 q 443 -169 443 -203 q 404 -137 443 -137 q 361 -147 382 -137 l 429 10 l 467 10 l 428 -79 z "},"Ț":{"ha":965,"x_min":108,"x_max":1233,"o":"m 1097 1231 q 1195 1195 1157 1231 q 1233 1111 1233 1160 q 1117 960 1233 1010 q 876 922 1025 922 q 836 924 850 922 l 635 161 q 625 100 625 128 q 651 48 625 64 q 739 28 676 32 l 733 0 q 443 4 636 4 q 171 0 258 4 l 176 28 q 269 42 236 31 q 320 81 301 54 q 353 161 339 108 l 561 943 q 403 950 464 950 q 244 926 293 950 q 333 883 299 919 q 368 792 368 847 q 329 692 368 732 q 233 653 290 653 q 142 692 175 653 q 108 788 108 732 q 132 874 108 832 q 210 942 156 915 q 396 975 278 975 q 672 961 494 975 q 890 950 831 950 q 1015 961 964 950 q 976 1017 992 983 q 960 1092 960 1050 q 998 1192 960 1154 q 1097 1231 1036 1231 m 426 -58 q 501 -81 469 -58 q 533 -147 533 -103 q 469 -281 533 -231 q 306 -335 406 -332 l 306 -306 q 414 -284 371 -304 q 468 -231 457 -264 q 375 -256 429 -256 q 278 -182 278 -256 q 321 -92 278 -126 q 426 -58 364 -58 z "},"U":{"ha":975,"x_min":97,"x_max":1106,"o":"m 904 711 q 926 803 917 761 q 935 868 935 844 q 911 928 935 910 q 826 956 888 947 l 835 983 q 989 979 889 979 q 1106 983 1063 979 l 1097 956 q 1026 926 1051 946 q 982 864 1000 906 q 942 739 964 822 l 856 404 q 719 110 806 213 q 594 15 668 50 q 435 -19 519 -19 q 237 16 314 -19 q 126 113 160 51 q 97 236 97 165 q 124 400 97 299 l 239 836 q 250 903 250 883 q 230 943 250 933 q 157 956 210 953 l 165 983 q 428 979 246 979 q 671 983 572 979 l 663 956 q 587 944 611 953 q 548 913 563 936 q 519 836 533 889 l 397 376 q 363 167 363 246 q 461 29 363 29 q 691 124 607 29 q 819 389 775 218 l 904 711 z "},"Ú":{"ha":975,"x_min":97,"x_max":1106,"o":"m 904 711 q 926 803 917 761 q 935 868 935 844 q 911 928 935 910 q 826 956 888 947 l 835 983 q 989 979 889 979 q 1106 983 1063 979 l 1097 956 q 1026 926 1051 946 q 982 864 1000 906 q 942 739 964 822 l 856 404 q 719 110 806 213 q 594 15 668 50 q 435 -19 519 -19 q 237 16 314 -19 q 126 113 160 51 q 97 236 97 165 q 124 400 97 299 l 239 836 q 250 903 250 883 q 230 943 250 933 q 157 956 210 953 l 165 983 q 428 979 246 979 q 671 983 572 979 l 663 956 q 587 944 611 953 q 548 913 563 936 q 519 836 533 889 l 397 376 q 363 167 363 246 q 461 29 363 29 q 691 124 607 29 q 819 389 775 218 l 904 711 m 671 1089 q 756 1170 718 1131 q 803 1219 793 1210 q 870 1289 843 1264 q 929 1331 897 1314 q 993 1347 960 1347 q 1042 1335 1019 1347 q 1079 1299 1065 1324 q 1089 1261 1089 1281 q 1069 1211 1089 1235 q 1017 1169 1050 1188 q 867 1122 969 1144 q 681 1072 742 1092 l 671 1089 z "},"Ŭ":{"ha":975,"x_min":97,"x_max":1106,"o":"m 904 711 q 926 803 917 761 q 935 868 935 844 q 911 928 935 910 q 826 956 888 947 l 835 983 q 989 979 889 979 q 1106 983 1063 979 l 1097 956 q 1026 926 1051 946 q 982 864 1000 906 q 942 739 964 822 l 856 404 q 719 110 806 213 q 594 15 668 50 q 435 -19 519 -19 q 237 16 314 -19 q 126 113 160 51 q 97 236 97 165 q 124 400 97 299 l 239 836 q 250 903 250 883 q 230 943 250 933 q 157 956 210 953 l 165 983 q 428 979 246 979 q 671 983 572 979 l 663 956 q 587 944 611 953 q 548 913 563 936 q 519 836 533 889 l 397 376 q 363 167 363 246 q 461 29 363 29 q 691 124 607 29 q 819 389 775 218 l 904 711 m 719 1225 q 898 1244 819 1225 q 1043 1303 976 1263 l 1060 1290 q 900 1127 1001 1194 q 690 1060 799 1060 q 538 1122 594 1060 q 463 1286 481 1185 l 483 1297 q 582 1242 528 1260 q 719 1225 636 1225 z "},"Ǔ":{"ha":975,"x_min":97,"x_max":1128,"o":"m 904 711 q 926 803 917 761 q 935 868 935 844 q 911 928 935 910 q 826 956 888 947 l 835 983 q 989 979 889 979 q 1106 983 1063 979 l 1097 956 q 1026 926 1051 946 q 982 864 1000 906 q 942 739 964 822 l 856 404 q 719 110 806 213 q 594 15 668 50 q 435 -19 519 -19 q 237 16 314 -19 q 126 113 160 51 q 97 236 97 165 q 124 400 97 299 l 239 836 q 250 903 250 883 q 230 943 250 933 q 157 956 210 953 l 165 983 q 428 979 246 979 q 671 983 572 979 l 663 956 q 587 944 611 953 q 548 913 563 936 q 519 836 533 889 l 397 376 q 363 167 363 246 q 461 29 363 29 q 691 124 607 29 q 819 389 775 218 l 904 711 m 808 1239 q 1121 1314 943 1285 l 1128 1294 q 894 1191 1004 1256 q 718 1056 785 1126 l 693 1056 q 622 1196 665 1140 q 500 1294 579 1251 l 506 1314 q 674 1280 606 1297 q 808 1239 743 1263 z "},"Û":{"ha":975,"x_min":97,"x_max":1106,"o":"m 904 711 q 926 803 917 761 q 935 868 935 844 q 911 928 935 910 q 826 956 888 947 l 835 983 q 989 979 889 979 q 1106 983 1063 979 l 1097 956 q 1026 926 1051 946 q 982 864 1000 906 q 942 739 964 822 l 856 404 q 719 110 806 213 q 594 15 668 50 q 435 -19 519 -19 q 237 16 314 -19 q 126 113 160 51 q 97 236 97 165 q 124 400 97 299 l 239 836 q 250 903 250 883 q 230 943 250 933 q 157 956 210 953 l 165 983 q 428 979 246 979 q 671 983 572 979 l 663 956 q 587 944 611 953 q 548 913 563 936 q 519 836 533 889 l 397 376 q 363 167 363 246 q 461 29 363 29 q 691 124 607 29 q 819 389 775 218 l 904 711 m 694 1144 q 382 1069 560 1099 l 375 1089 q 608 1192 499 1128 q 785 1328 718 1257 l 810 1328 q 881 1188 838 1243 q 1003 1089 924 1132 l 997 1069 q 828 1103 897 1086 q 694 1144 760 1121 z "},"Ü":{"ha":975,"x_min":97,"x_max":1106,"o":"m 904 711 q 926 803 917 761 q 935 868 935 844 q 911 928 935 910 q 826 956 888 947 l 835 983 q 989 979 889 979 q 1106 983 1063 979 l 1097 956 q 1026 926 1051 946 q 982 864 1000 906 q 942 739 964 822 l 856 404 q 719 110 806 213 q 594 15 668 50 q 435 -19 519 -19 q 237 16 314 -19 q 126 113 160 51 q 97 236 97 165 q 124 400 97 299 l 239 836 q 250 903 250 883 q 230 943 250 933 q 157 956 210 953 l 165 983 q 428 979 246 979 q 671 983 572 979 l 663 956 q 587 944 611 953 q 548 913 563 936 q 519 836 533 889 l 397 376 q 363 167 363 246 q 461 29 363 29 q 691 124 607 29 q 819 389 775 218 l 904 711 m 413 1164 q 452 1266 413 1232 q 550 1300 492 1300 q 628 1271 603 1300 q 654 1192 654 1242 q 613 1092 654 1125 q 515 1058 572 1058 q 438 1086 463 1058 q 413 1164 413 1114 m 771 1164 q 810 1266 771 1232 q 908 1300 850 1300 q 987 1271 961 1300 q 1013 1192 1013 1242 q 972 1092 1013 1125 q 874 1058 931 1058 q 796 1086 821 1058 q 771 1164 771 1114 z "},"Ụ":{"ha":975,"x_min":97,"x_max":1106,"o":"m 904 711 q 926 803 917 761 q 935 868 935 844 q 911 928 935 910 q 826 956 888 947 l 835 983 q 989 979 889 979 q 1106 983 1063 979 l 1097 956 q 1026 926 1051 946 q 982 864 1000 906 q 942 739 964 822 l 856 404 q 719 110 806 213 q 594 15 668 50 q 435 -19 519 -19 q 237 16 314 -19 q 126 113 160 51 q 97 236 97 165 q 124 400 97 299 l 239 836 q 250 903 250 883 q 230 943 250 933 q 157 956 210 953 l 165 983 q 428 979 246 979 q 671 983 572 979 l 663 956 q 587 944 611 953 q 548 913 563 936 q 519 836 533 889 l 397 376 q 363 167 363 246 q 461 29 363 29 q 691 124 607 29 q 819 389 775 218 l 904 711 m 406 -265 q 329 -246 356 -265 q 303 -187 303 -226 q 340 -95 303 -128 q 443 -62 378 -62 q 519 -82 493 -62 q 546 -140 546 -101 q 508 -233 546 -200 q 406 -265 471 -265 z "},"Ù":{"ha":975,"x_min":97,"x_max":1106,"o":"m 904 711 q 926 803 917 761 q 935 868 935 844 q 911 928 935 910 q 826 956 888 947 l 835 983 q 989 979 889 979 q 1106 983 1063 979 l 1097 956 q 1026 926 1051 946 q 982 864 1000 906 q 942 739 964 822 l 856 404 q 719 110 806 213 q 594 15 668 50 q 435 -19 519 -19 q 237 16 314 -19 q 126 113 160 51 q 97 236 97 165 q 124 400 97 299 l 239 836 q 250 903 250 883 q 230 943 250 933 q 157 956 210 953 l 165 983 q 428 979 246 979 q 671 983 572 979 l 663 956 q 587 944 611 953 q 548 913 563 936 q 519 836 533 889 l 397 376 q 363 167 363 246 q 461 29 363 29 q 691 124 607 29 q 819 389 775 218 l 904 711 m 774 1072 q 588 1114 686 1099 q 524 1126 547 1121 q 479 1143 500 1132 q 440 1178 454 1156 q 425 1226 425 1201 q 433 1263 425 1244 q 469 1301 446 1288 q 521 1314 493 1314 q 564 1304 546 1314 q 603 1278 588 1294 q 650 1226 619 1263 q 783 1089 708 1154 l 774 1072 z "},"Ủ":{"ha":975,"x_min":97,"x_max":1106,"o":"m 904 711 q 926 803 917 761 q 935 868 935 844 q 911 928 935 910 q 826 956 888 947 l 835 983 q 989 979 889 979 q 1106 983 1063 979 l 1097 956 q 1026 926 1051 946 q 982 864 1000 906 q 942 739 964 822 l 856 404 q 719 110 806 213 q 594 15 668 50 q 435 -19 519 -19 q 237 16 314 -19 q 126 113 160 51 q 97 236 97 165 q 124 400 97 299 l 239 836 q 250 903 250 883 q 230 943 250 933 q 157 956 210 953 l 165 983 q 428 979 246 979 q 671 983 572 979 l 663 956 q 587 944 611 953 q 548 913 563 936 q 519 836 533 889 l 397 376 q 363 167 363 246 q 461 29 363 29 q 691 124 607 29 q 819 389 775 218 l 904 711 m 681 1026 q 703 1086 688 1064 q 744 1133 718 1108 q 787 1181 774 1160 q 800 1240 800 1203 q 713 1329 800 1329 q 650 1317 672 1329 q 708 1239 708 1293 q 681 1176 708 1200 q 613 1153 653 1153 q 557 1172 578 1153 q 536 1224 536 1192 q 619 1325 536 1286 q 778 1357 688 1357 q 905 1330 858 1357 q 951 1249 951 1303 q 922 1181 951 1203 q 835 1136 893 1158 q 747 1093 778 1115 q 708 1026 715 1071 l 681 1026 z "},"Ư":{"ha":975,"x_min":97,"x_max":1214,"o":"m 1103 1225 q 1181 1194 1149 1225 q 1214 1113 1214 1163 q 1191 1041 1214 1072 q 1128 990 1168 1010 q 997 953 1061 957 l 854 404 q 797 238 829 311 q 719 110 765 164 q 418 -19 608 -19 q 237 17 313 -19 q 126 113 161 53 q 97 235 97 165 q 124 400 97 303 l 239 836 q 250 903 250 883 q 230 943 250 933 q 157 956 210 953 l 165 983 q 422 979 246 979 q 671 983 572 979 l 663 956 q 587 944 611 953 q 548 913 563 936 q 519 836 533 889 l 397 376 q 361 164 361 236 q 392 60 361 92 q 486 29 422 29 q 694 128 610 29 q 819 389 778 228 l 964 950 q 825 956 869 950 l 832 983 l 863 981 q 933 978 910 978 q 1019 982 986 978 q 1081 1000 1053 986 q 1020 1049 1044 1019 q 996 1119 996 1079 q 1027 1196 996 1167 q 1103 1225 1058 1225 z "},"Ứ":{"ha":975,"x_min":97,"x_max":1214,"o":"m 1103 1225 q 1181 1194 1149 1225 q 1214 1113 1214 1163 q 1191 1041 1214 1072 q 1128 990 1168 1010 q 997 953 1061 957 l 854 404 q 797 238 829 311 q 719 110 765 164 q 418 -19 608 -19 q 237 17 313 -19 q 126 113 161 53 q 97 235 97 165 q 124 400 97 303 l 239 836 q 250 903 250 883 q 230 943 250 933 q 157 956 210 953 l 165 983 q 422 979 246 979 q 671 983 572 979 l 663 956 q 587 944 611 953 q 548 913 563 936 q 519 836 533 889 l 397 376 q 361 164 361 236 q 392 60 361 92 q 486 29 422 29 q 694 128 610 29 q 819 389 778 228 l 964 950 q 825 956 869 950 l 832 983 l 863 981 q 933 978 910 978 q 1019 982 986 978 q 1081 1000 1053 986 q 1020 1049 1044 1019 q 996 1119 996 1079 q 1027 1196 996 1167 q 1103 1225 1058 1225 m 671 1089 q 756 1170 718 1131 q 803 1219 793 1210 q 870 1289 843 1264 q 929 1331 897 1314 q 993 1347 960 1347 q 1042 1335 1019 1347 q 1079 1299 1065 1324 q 1089 1261 1089 1281 q 1069 1211 1089 1235 q 1017 1169 1050 1188 q 867 1122 969 1144 q 681 1072 742 1092 l 671 1089 z "},"Ự":{"ha":975,"x_min":97,"x_max":1214,"o":"m 1103 1225 q 1181 1194 1149 1225 q 1214 1113 1214 1163 q 1191 1041 1214 1072 q 1128 990 1168 1010 q 997 953 1061 957 l 854 404 q 797 238 829 311 q 719 110 765 164 q 418 -19 608 -19 q 237 17 313 -19 q 126 113 161 53 q 97 235 97 165 q 124 400 97 303 l 239 836 q 250 903 250 883 q 230 943 250 933 q 157 956 210 953 l 165 983 q 422 979 246 979 q 671 983 572 979 l 663 956 q 587 944 611 953 q 548 913 563 936 q 519 836 533 889 l 397 376 q 361 164 361 236 q 392 60 361 92 q 486 29 422 29 q 694 128 610 29 q 819 389 778 228 l 964 950 q 825 956 869 950 l 832 983 l 863 981 q 933 978 910 978 q 1019 982 986 978 q 1081 1000 1053 986 q 1020 1049 1044 1019 q 996 1119 996 1079 q 1027 1196 996 1167 q 1103 1225 1058 1225 m 406 -265 q 329 -246 356 -265 q 303 -187 303 -226 q 340 -95 303 -128 q 443 -62 378 -62 q 519 -82 493 -62 q 546 -140 546 -101 q 508 -233 546 -200 q 406 -265 471 -265 z "},"Ừ":{"ha":975,"x_min":97,"x_max":1214,"o":"m 1103 1225 q 1181 1194 1149 1225 q 1214 1113 1214 1163 q 1191 1041 1214 1072 q 1128 990 1168 1010 q 997 953 1061 957 l 854 404 q 797 238 829 311 q 719 110 765 164 q 418 -19 608 -19 q 237 17 313 -19 q 126 113 161 53 q 97 235 97 165 q 124 400 97 303 l 239 836 q 250 903 250 883 q 230 943 250 933 q 157 956 210 953 l 165 983 q 422 979 246 979 q 671 983 572 979 l 663 956 q 587 944 611 953 q 548 913 563 936 q 519 836 533 889 l 397 376 q 361 164 361 236 q 392 60 361 92 q 486 29 422 29 q 694 128 610 29 q 819 389 778 228 l 964 950 q 825 956 869 950 l 832 983 l 863 981 q 933 978 910 978 q 1019 982 986 978 q 1081 1000 1053 986 q 1020 1049 1044 1019 q 996 1119 996 1079 q 1027 1196 996 1167 q 1103 1225 1058 1225 m 774 1072 q 588 1114 686 1099 q 524 1126 547 1121 q 479 1143 500 1132 q 440 1178 454 1156 q 425 1226 425 1201 q 433 1263 425 1244 q 469 1301 446 1288 q 521 1314 493 1314 q 564 1304 546 1314 q 603 1278 588 1294 q 650 1226 619 1263 q 783 1089 708 1154 l 774 1072 z "},"Ử":{"ha":975,"x_min":97,"x_max":1214,"o":"m 1103 1225 q 1181 1194 1149 1225 q 1214 1113 1214 1163 q 1191 1041 1214 1072 q 1128 990 1168 1010 q 997 953 1061 957 l 854 404 q 797 238 829 311 q 719 110 765 164 q 418 -19 608 -19 q 237 17 313 -19 q 126 113 161 53 q 97 235 97 165 q 124 400 97 303 l 239 836 q 250 903 250 883 q 230 943 250 933 q 157 956 210 953 l 165 983 q 422 979 246 979 q 671 983 572 979 l 663 956 q 587 944 611 953 q 548 913 563 936 q 519 836 533 889 l 397 376 q 361 164 361 236 q 392 60 361 92 q 486 29 422 29 q 694 128 610 29 q 819 389 778 228 l 964 950 q 825 956 869 950 l 832 983 l 863 981 q 933 978 910 978 q 1019 982 986 978 q 1081 1000 1053 986 q 1020 1049 1044 1019 q 996 1119 996 1079 q 1027 1196 996 1167 q 1103 1225 1058 1225 m 681 1026 q 703 1086 688 1064 q 744 1133 718 1108 q 787 1181 774 1160 q 800 1240 800 1203 q 713 1329 800 1329 q 650 1317 672 1329 q 708 1239 708 1293 q 681 1176 708 1200 q 613 1153 653 1153 q 557 1172 578 1153 q 536 1224 536 1192 q 619 1325 536 1286 q 778 1357 688 1357 q 905 1330 858 1357 q 951 1249 951 1303 q 922 1181 951 1203 q 835 1136 893 1158 q 747 1093 778 1115 q 708 1026 715 1071 l 681 1026 z "},"Ữ":{"ha":975,"x_min":97,"x_max":1214,"o":"m 1103 1225 q 1181 1194 1149 1225 q 1214 1113 1214 1163 q 1191 1041 1214 1072 q 1128 990 1168 1010 q 997 953 1061 957 l 854 404 q 797 238 829 311 q 719 110 765 164 q 418 -19 608 -19 q 237 17 313 -19 q 126 113 161 53 q 97 235 97 165 q 124 400 97 303 l 239 836 q 250 903 250 883 q 230 943 250 933 q 157 956 210 953 l 165 983 q 422 979 246 979 q 671 983 572 979 l 663 956 q 587 944 611 953 q 548 913 563 936 q 519 836 533 889 l 397 376 q 361 164 361 236 q 392 60 361 92 q 486 29 422 29 q 694 128 610 29 q 819 389 778 228 l 964 950 q 825 956 869 950 l 832 983 l 863 981 q 933 978 910 978 q 1019 982 986 978 q 1081 1000 1053 986 q 1020 1049 1044 1019 q 996 1119 996 1079 q 1027 1196 996 1167 q 1103 1225 1058 1225 m 656 1317 q 743 1302 708 1317 q 818 1260 778 1288 q 878 1226 854 1236 q 935 1215 901 1215 q 995 1234 968 1215 q 1049 1296 1022 1253 l 1074 1289 q 960 1119 1031 1175 q 810 1063 889 1063 q 722 1077 757 1063 q 647 1119 688 1092 q 588 1153 611 1143 q 531 1164 564 1164 q 470 1145 497 1164 q 417 1083 443 1126 l 392 1090 q 506 1260 435 1204 q 656 1317 576 1317 z "},"Ű":{"ha":975,"x_min":97,"x_max":1106,"o":"m 904 711 q 926 803 917 761 q 935 868 935 844 q 911 928 935 910 q 826 956 888 947 l 835 983 q 989 979 889 979 q 1106 983 1063 979 l 1097 956 q 1026 926 1051 946 q 982 864 1000 906 q 942 739 964 822 l 856 404 q 719 110 806 213 q 594 15 668 50 q 435 -19 519 -19 q 237 16 314 -19 q 126 113 160 51 q 97 236 97 165 q 124 400 97 299 l 239 836 q 250 903 250 883 q 230 943 250 933 q 157 956 210 953 l 165 983 q 428 979 246 979 q 671 983 572 979 l 663 956 q 587 944 611 953 q 548 913 563 936 q 519 836 533 889 l 397 376 q 363 167 363 246 q 461 29 363 29 q 691 124 607 29 q 819 389 775 218 l 904 711 m 447 1086 q 540 1219 488 1136 q 577 1276 563 1257 q 610 1310 592 1296 q 661 1326 632 1326 q 707 1315 685 1326 q 743 1282 729 1303 q 757 1236 757 1263 q 713 1160 757 1189 q 673 1140 697 1149 q 631 1127 649 1132 q 606 1119 614 1122 q 460 1072 524 1096 l 447 1086 m 763 1086 q 856 1219 803 1136 q 892 1276 878 1257 q 925 1310 907 1296 q 978 1326 949 1326 q 1023 1315 1001 1326 q 1058 1282 1044 1303 q 1074 1236 1074 1260 q 1062 1194 1074 1214 q 1028 1160 1050 1175 q 988 1140 1013 1149 q 947 1127 964 1132 q 921 1119 929 1122 q 775 1072 839 1096 l 763 1086 z "},"Ū":{"ha":975,"x_min":97,"x_max":1106,"o":"m 904 711 q 926 803 917 761 q 935 868 935 844 q 911 928 935 910 q 826 956 888 947 l 835 983 q 989 979 889 979 q 1106 983 1063 979 l 1097 956 q 1026 926 1051 946 q 982 864 1000 906 q 942 739 964 822 l 856 404 q 719 110 806 213 q 594 15 668 50 q 435 -19 519 -19 q 237 16 314 -19 q 126 113 160 51 q 97 236 97 165 q 124 400 97 299 l 239 836 q 250 903 250 883 q 230 943 250 933 q 157 956 210 953 l 165 983 q 428 979 246 979 q 671 983 572 979 l 663 956 q 587 944 611 953 q 548 913 563 936 q 519 836 533 889 l 397 376 q 363 167 363 246 q 461 29 363 29 q 691 124 607 29 q 819 389 775 218 l 904 711 m 993 1138 l 393 1138 l 401 1172 l 1001 1172 l 993 1138 z "},"Ų":{"ha":975,"x_min":97,"x_max":1106,"o":"m 904 711 q 926 803 917 761 q 935 868 935 844 q 911 928 935 910 q 826 956 888 947 l 835 983 q 989 979 889 979 q 1106 983 1063 979 l 1097 956 q 1026 926 1051 946 q 982 864 1000 906 q 942 739 964 822 l 856 404 q 719 110 806 213 q 594 15 668 50 q 435 -19 519 -19 q 237 16 314 -19 q 126 113 160 51 q 97 236 97 165 q 124 400 97 299 l 239 836 q 250 903 250 883 q 230 943 250 933 q 157 956 210 953 l 165 983 q 428 979 246 979 q 671 983 572 979 l 663 956 q 587 944 611 953 q 548 913 563 936 q 519 836 533 889 l 397 376 q 363 167 363 246 q 461 29 363 29 q 691 124 607 29 q 819 389 775 218 l 904 711 m 565 4 q 465 -67 500 -22 q 431 -154 431 -112 q 471 -190 431 -190 q 569 -164 515 -190 l 585 -187 q 367 -261 479 -261 q 274 -239 308 -261 q 240 -176 240 -217 q 325 -70 240 -117 q 540 4 410 -24 l 565 4 z "},"Ů":{"ha":975,"x_min":97,"x_max":1106,"o":"m 904 711 q 926 803 917 761 q 935 868 935 844 q 911 928 935 910 q 826 956 888 947 l 835 983 q 989 979 889 979 q 1106 983 1063 979 l 1097 956 q 1026 926 1051 946 q 982 864 1000 906 q 942 739 964 822 l 856 404 q 719 110 806 213 q 594 15 668 50 q 435 -19 519 -19 q 237 16 314 -19 q 126 113 160 51 q 97 236 97 165 q 124 400 97 299 l 239 836 q 250 903 250 883 q 230 943 250 933 q 157 956 210 953 l 165 983 q 428 979 246 979 q 671 983 572 979 l 663 956 q 587 944 611 953 q 548 913 563 936 q 519 836 533 889 l 397 376 q 363 167 363 246 q 461 29 363 29 q 691 124 607 29 q 819 389 775 218 l 904 711 m 732 1313 q 838 1278 796 1313 q 879 1189 879 1244 q 853 1110 879 1146 q 785 1052 828 1074 q 694 1031 743 1031 q 593 1065 633 1031 q 553 1156 553 1099 q 605 1267 553 1222 q 732 1313 657 1313 m 701 1060 q 800 1097 757 1060 q 843 1186 843 1135 q 808 1258 843 1233 q 728 1283 774 1283 q 631 1244 672 1283 q 590 1156 590 1206 q 624 1085 590 1111 q 701 1060 657 1060 z "},"Ũ":{"ha":975,"x_min":97,"x_max":1106,"o":"m 904 711 q 926 803 917 761 q 935 868 935 844 q 911 928 935 910 q 826 956 888 947 l 835 983 q 989 979 889 979 q 1106 983 1063 979 l 1097 956 q 1026 926 1051 946 q 982 864 1000 906 q 942 739 964 822 l 856 404 q 719 110 806 213 q 594 15 668 50 q 435 -19 519 -19 q 237 16 314 -19 q 126 113 160 51 q 97 236 97 165 q 124 400 97 299 l 239 836 q 250 903 250 883 q 230 943 250 933 q 157 956 210 953 l 165 983 q 428 979 246 979 q 671 983 572 979 l 663 956 q 587 944 611 953 q 548 913 563 936 q 519 836 533 889 l 397 376 q 363 167 363 246 q 461 29 363 29 q 691 124 607 29 q 819 389 775 218 l 904 711 m 656 1317 q 743 1302 708 1317 q 818 1260 778 1288 q 878 1226 854 1236 q 935 1215 901 1215 q 995 1234 968 1215 q 1049 1296 1022 1253 l 1074 1289 q 960 1119 1031 1175 q 810 1063 889 1063 q 722 1077 757 1063 q 647 1119 688 1092 q 588 1153 611 1143 q 531 1164 564 1164 q 470 1145 497 1164 q 417 1083 443 1126 l 392 1090 q 506 1260 435 1204 q 656 1317 576 1317 z "},"V":{"ha":944,"x_min":125,"x_max":1119,"o":"m 1015 979 q 1119 983 1076 979 l 1113 956 q 1022 907 1060 940 q 929 790 983 874 l 411 -7 q 360 -6 394 -6 q 307 -7 325 -6 l 197 867 q 170 933 192 913 q 125 956 149 954 l 132 983 q 365 979 211 979 q 607 983 525 979 l 600 956 q 512 935 536 953 q 488 868 488 918 q 489 839 488 850 l 551 258 l 906 801 q 936 882 936 850 q 903 934 936 917 q 811 956 871 951 l 818 983 q 1015 979 858 979 z "},"W":{"ha":1438,"x_min":119,"x_max":1604,"o":"m 1500 979 q 1604 983 1561 979 l 1597 956 q 1501 907 1540 939 q 1414 790 1463 875 l 960 -7 l 856 -7 l 779 604 l 406 -7 l 301 -7 l 192 867 q 165 933 186 913 q 119 956 143 954 l 126 983 q 360 979 206 979 q 560 983 490 979 l 553 956 q 497 935 513 953 q 482 868 482 918 l 483 839 l 544 276 l 774 646 l 746 867 q 724 933 742 913 q 688 956 707 954 l 694 983 q 914 979 769 979 q 1156 983 1074 979 l 1149 956 q 1060 935 1085 953 q 1036 868 1036 918 q 1038 839 1036 850 l 1097 290 l 1390 801 q 1419 885 1419 854 q 1388 935 1419 919 q 1296 956 1357 951 l 1303 983 q 1500 979 1342 979 z "},"Ẃ":{"ha":1438,"x_min":119,"x_max":1604,"o":"m 1500 979 q 1604 983 1561 979 l 1597 956 q 1501 907 1540 939 q 1414 790 1463 875 l 960 -7 l 856 -7 l 779 604 l 406 -7 l 301 -7 l 192 867 q 165 933 186 913 q 119 956 143 954 l 126 983 q 360 979 206 979 q 560 983 490 979 l 553 956 q 497 935 513 953 q 482 868 482 918 l 483 839 l 544 276 l 774 646 l 746 867 q 724 933 742 913 q 688 956 707 954 l 694 983 q 914 979 769 979 q 1156 983 1074 979 l 1149 956 q 1060 935 1085 953 q 1036 868 1036 918 q 1038 839 1036 850 l 1097 290 l 1390 801 q 1419 885 1419 854 q 1388 935 1419 919 q 1296 956 1357 951 l 1303 983 q 1500 979 1342 979 m 897 1085 q 982 1166 944 1126 q 1029 1215 1019 1206 q 1097 1285 1069 1260 q 1156 1326 1124 1310 q 1219 1343 1186 1343 q 1269 1331 1246 1343 q 1306 1294 1292 1319 q 1315 1257 1315 1276 q 1296 1207 1315 1231 q 1243 1165 1276 1183 q 1093 1118 1196 1140 q 907 1068 968 1088 l 897 1085 z "},"Ŵ":{"ha":1438,"x_min":119,"x_max":1604,"o":"m 1500 979 q 1604 983 1561 979 l 1597 956 q 1501 907 1540 939 q 1414 790 1463 875 l 960 -7 l 856 -7 l 779 604 l 406 -7 l 301 -7 l 192 867 q 165 933 186 913 q 119 956 143 954 l 126 983 q 360 979 206 979 q 560 983 490 979 l 553 956 q 497 935 513 953 q 482 868 482 918 l 483 839 l 544 276 l 774 646 l 746 867 q 724 933 742 913 q 688 956 707 954 l 694 983 q 914 979 769 979 q 1156 983 1074 979 l 1149 956 q 1060 935 1085 953 q 1036 868 1036 918 q 1038 839 1036 850 l 1097 290 l 1390 801 q 1419 885 1419 854 q 1388 935 1419 919 q 1296 956 1357 951 l 1303 983 q 1500 979 1342 979 m 921 1140 q 608 1065 786 1094 l 601 1085 q 835 1188 725 1124 q 1011 1324 944 1253 l 1036 1324 q 1107 1183 1064 1239 q 1229 1085 1150 1128 l 1224 1065 q 1055 1099 1124 1082 q 921 1140 986 1117 z "},"Ẅ":{"ha":1438,"x_min":119,"x_max":1604,"o":"m 1500 979 q 1604 983 1561 979 l 1597 956 q 1501 907 1540 939 q 1414 790 1463 875 l 960 -7 l 856 -7 l 779 604 l 406 -7 l 301 -7 l 192 867 q 165 933 186 913 q 119 956 143 954 l 126 983 q 360 979 206 979 q 560 983 490 979 l 553 956 q 497 935 513 953 q 482 868 482 918 l 483 839 l 544 276 l 774 646 l 746 867 q 724 933 742 913 q 688 956 707 954 l 694 983 q 914 979 769 979 q 1156 983 1074 979 l 1149 956 q 1060 935 1085 953 q 1036 868 1036 918 q 1038 839 1036 850 l 1097 290 l 1390 801 q 1419 885 1419 854 q 1388 935 1419 919 q 1296 956 1357 951 l 1303 983 q 1500 979 1342 979 m 639 1160 q 678 1262 639 1228 q 776 1296 718 1296 q 855 1267 829 1296 q 881 1188 881 1238 q 840 1088 881 1121 q 742 1054 799 1054 q 664 1082 689 1054 q 639 1160 639 1110 m 997 1160 q 1037 1262 997 1228 q 1135 1296 1076 1296 q 1213 1267 1188 1296 q 1239 1188 1239 1238 q 1198 1088 1239 1121 q 1100 1054 1157 1054 q 1022 1082 1047 1054 q 997 1160 997 1110 z "},"Ẁ":{"ha":1438,"x_min":119,"x_max":1604,"o":"m 1500 979 q 1604 983 1561 979 l 1597 956 q 1501 907 1540 939 q 1414 790 1463 875 l 960 -7 l 856 -7 l 779 604 l 406 -7 l 301 -7 l 192 867 q 165 933 186 913 q 119 956 143 954 l 126 983 q 360 979 206 979 q 560 983 490 979 l 553 956 q 497 935 513 953 q 482 868 482 918 l 483 839 l 544 276 l 774 646 l 746 867 q 724 933 742 913 q 688 956 707 954 l 694 983 q 914 979 769 979 q 1156 983 1074 979 l 1149 956 q 1060 935 1085 953 q 1036 868 1036 918 q 1038 839 1036 850 l 1097 290 l 1390 801 q 1419 885 1419 854 q 1388 935 1419 919 q 1296 956 1357 951 l 1303 983 q 1500 979 1342 979 m 1000 1068 q 814 1110 913 1094 q 750 1122 774 1117 q 706 1139 726 1128 q 666 1174 681 1151 q 651 1222 651 1197 q 660 1258 651 1240 q 696 1297 672 1283 q 747 1310 719 1310 q 790 1300 772 1310 q 830 1274 814 1290 q 876 1222 846 1258 q 1010 1085 935 1150 l 1000 1068 z "},"X":{"ha":1068,"x_min":-62,"x_max":1169,"o":"m 1019 1003 q 1128 957 1088 1003 q 1169 842 1169 911 q 1126 725 1169 769 q 1018 681 1082 681 q 935 712 965 681 q 904 797 904 743 q 944 906 904 860 q 1049 968 985 953 q 1013 979 1038 979 q 921 944 968 979 q 813 813 874 904 q 696 594 753 722 l 750 146 q 808 93 758 93 q 890 165 865 93 l 914 236 l 942 236 l 906 129 q 825 15 876 50 q 697 -19 774 -19 q 526 33 578 -19 q 460 197 474 86 l 444 321 q 335 151 394 229 q 218 26 275 72 q 88 -19 156 -19 q -22 26 19 -19 q -62 142 -62 72 q -19 258 -62 214 q 89 303 25 303 q 172 272 142 303 q 203 186 203 240 q 163 77 203 124 q 58 15 122 31 q 94 4 69 4 q 189 39 136 4 q 308 161 240 76 q 439 364 376 246 l 379 844 q 362 888 375 875 q 324 900 349 900 q 239 818 267 900 l 215 747 l 188 747 l 224 854 q 309 968 253 933 q 450 1003 365 1003 q 608 951 557 1003 q 672 786 658 900 l 690 642 q 790 824 736 740 q 893 953 844 908 q 1019 1003 956 1003 z "},"Y":{"ha":1078,"x_min":101,"x_max":1186,"o":"m 1024 1003 q 1141 960 1096 1003 q 1186 854 1186 918 q 1142 749 1186 789 q 1031 708 1097 708 q 940 735 974 708 q 907 811 907 763 q 948 915 907 872 q 1051 968 989 957 q 1017 979 1040 979 q 974 972 994 979 q 928 946 953 964 q 842 847 892 919 q 741 660 792 774 q 653 410 690 547 l 586 147 q 579 97 579 124 q 606 44 579 57 q 696 28 633 31 l 689 0 q 406 4 601 4 q 154 0 236 4 l 161 28 q 236 39 211 31 q 276 72 261 47 q 304 147 292 96 l 376 432 q 315 749 356 615 q 218 883 274 883 q 156 818 178 883 l 132 747 l 101 747 l 131 836 q 222 964 160 925 q 365 1003 285 1003 q 524 949 468 1003 q 606 794 581 894 q 653 513 632 694 q 749 747 696 643 q 858 919 801 851 q 1024 1003 931 1003 z "},"Ý":{"ha":1078,"x_min":101,"x_max":1186,"o":"m 1024 1003 q 1141 960 1096 1003 q 1186 854 1186 918 q 1142 749 1186 789 q 1031 708 1097 708 q 940 735 974 708 q 907 811 907 763 q 948 915 907 872 q 1051 968 989 957 q 1017 979 1040 979 q 974 972 994 979 q 928 946 953 964 q 842 847 892 919 q 741 660 792 774 q 653 410 690 547 l 586 147 q 579 97 579 124 q 606 44 579 57 q 696 28 633 31 l 689 0 q 406 4 601 4 q 154 0 236 4 l 161 28 q 236 39 211 31 q 276 72 261 47 q 304 147 292 96 l 376 432 q 315 749 356 615 q 218 883 274 883 q 156 818 178 883 l 132 747 l 101 747 l 131 836 q 222 964 160 925 q 365 1003 285 1003 q 524 949 468 1003 q 606 794 581 894 q 653 513 632 694 q 749 747 696 643 q 858 919 801 851 q 1024 1003 931 1003 m 657 1089 q 742 1170 704 1131 q 789 1219 779 1210 q 856 1289 829 1264 q 915 1331 883 1314 q 979 1347 946 1347 q 1028 1335 1006 1347 q 1065 1299 1051 1324 q 1075 1261 1075 1281 q 1056 1211 1075 1235 q 1003 1169 1036 1188 q 853 1122 956 1144 q 667 1072 728 1092 l 657 1089 z "},"Ŷ":{"ha":1078,"x_min":101,"x_max":1186,"o":"m 1024 1003 q 1141 960 1096 1003 q 1186 854 1186 918 q 1142 749 1186 789 q 1031 708 1097 708 q 940 735 974 708 q 907 811 907 763 q 948 915 907 872 q 1051 968 989 957 q 1017 979 1040 979 q 974 972 994 979 q 928 946 953 964 q 842 847 892 919 q 741 660 792 774 q 653 410 690 547 l 586 147 q 579 97 579 124 q 606 44 579 57 q 696 28 633 31 l 689 0 q 406 4 601 4 q 154 0 236 4 l 161 28 q 236 39 211 31 q 276 72 261 47 q 304 147 292 96 l 376 432 q 315 749 356 615 q 218 883 274 883 q 156 818 178 883 l 132 747 l 101 747 l 131 836 q 222 964 160 925 q 365 1003 285 1003 q 524 949 468 1003 q 606 794 581 894 q 653 513 632 694 q 749 747 696 643 q 858 919 801 851 q 1024 1003 931 1003 m 681 1144 q 368 1069 546 1099 l 361 1089 q 594 1192 485 1128 q 771 1328 704 1257 l 796 1328 q 867 1188 824 1243 q 989 1089 910 1132 l 983 1069 q 815 1103 883 1086 q 681 1144 746 1121 z "},"Ÿ":{"ha":1078,"x_min":101,"x_max":1186,"o":"m 1024 1003 q 1141 960 1096 1003 q 1186 854 1186 918 q 1142 749 1186 789 q 1031 708 1097 708 q 940 735 974 708 q 907 811 907 763 q 948 915 907 872 q 1051 968 989 957 q 1017 979 1040 979 q 974 972 994 979 q 928 946 953 964 q 842 847 892 919 q 741 660 792 774 q 653 410 690 547 l 586 147 q 579 97 579 124 q 606 44 579 57 q 696 28 633 31 l 689 0 q 406 4 601 4 q 154 0 236 4 l 161 28 q 236 39 211 31 q 276 72 261 47 q 304 147 292 96 l 376 432 q 315 749 356 615 q 218 883 274 883 q 156 818 178 883 l 132 747 l 101 747 l 131 836 q 222 964 160 925 q 365 1003 285 1003 q 524 949 468 1003 q 606 794 581 894 q 653 513 632 694 q 749 747 696 643 q 858 919 801 851 q 1024 1003 931 1003 m 399 1164 q 438 1266 399 1232 q 536 1300 478 1300 q 615 1271 589 1300 q 640 1192 640 1242 q 599 1092 640 1125 q 501 1058 558 1058 q 424 1086 449 1058 q 399 1164 399 1114 m 757 1164 q 797 1266 757 1232 q 894 1300 836 1300 q 973 1271 947 1300 q 999 1192 999 1242 q 958 1092 999 1125 q 860 1058 917 1058 q 782 1086 807 1058 q 757 1164 757 1114 z "},"Ỵ":{"ha":1078,"x_min":101,"x_max":1186,"o":"m 1024 1003 q 1141 960 1096 1003 q 1186 854 1186 918 q 1142 749 1186 789 q 1031 708 1097 708 q 940 735 974 708 q 907 811 907 763 q 948 915 907 872 q 1051 968 989 957 q 1017 979 1040 979 q 974 972 994 979 q 928 946 953 964 q 842 847 892 919 q 741 660 792 774 q 653 410 690 547 l 586 147 q 579 97 579 124 q 606 44 579 57 q 696 28 633 31 l 689 0 q 406 4 601 4 q 154 0 236 4 l 161 28 q 236 39 211 31 q 276 72 261 47 q 304 147 292 96 l 376 432 q 315 749 356 615 q 218 883 274 883 q 156 818 178 883 l 132 747 l 101 747 l 131 836 q 222 964 160 925 q 365 1003 285 1003 q 524 949 468 1003 q 606 794 581 894 q 653 513 632 694 q 749 747 696 643 q 858 919 801 851 q 1024 1003 931 1003 m 364 -265 q 288 -246 314 -265 q 261 -187 261 -226 q 299 -95 261 -128 q 401 -62 336 -62 q 478 -82 451 -62 q 504 -140 504 -101 q 467 -233 504 -200 q 364 -265 429 -265 z "},"Ỳ":{"ha":1078,"x_min":101,"x_max":1186,"o":"m 1024 1003 q 1141 960 1096 1003 q 1186 854 1186 918 q 1142 749 1186 789 q 1031 708 1097 708 q 940 735 974 708 q 907 811 907 763 q 948 915 907 872 q 1051 968 989 957 q 1017 979 1040 979 q 974 972 994 979 q 928 946 953 964 q 842 847 892 919 q 741 660 792 774 q 653 410 690 547 l 586 147 q 579 97 579 124 q 606 44 579 57 q 696 28 633 31 l 689 0 q 406 4 601 4 q 154 0 236 4 l 161 28 q 236 39 211 31 q 276 72 261 47 q 304 147 292 96 l 376 432 q 315 749 356 615 q 218 883 274 883 q 156 818 178 883 l 132 747 l 101 747 l 131 836 q 222 964 160 925 q 365 1003 285 1003 q 524 949 468 1003 q 606 794 581 894 q 653 513 632 694 q 749 747 696 643 q 858 919 801 851 q 1024 1003 931 1003 m 760 1072 q 574 1114 672 1099 q 510 1126 533 1121 q 465 1143 486 1132 q 426 1178 440 1156 q 411 1226 411 1201 q 419 1263 411 1244 q 456 1301 432 1288 q 507 1314 479 1314 q 550 1304 532 1314 q 590 1278 574 1294 q 636 1226 606 1263 q 769 1089 694 1154 l 760 1072 z "},"Ỷ":{"ha":1078,"x_min":101,"x_max":1186,"o":"m 1024 1003 q 1141 960 1096 1003 q 1186 854 1186 918 q 1142 749 1186 789 q 1031 708 1097 708 q 940 735 974 708 q 907 811 907 763 q 948 915 907 872 q 1051 968 989 957 q 1017 979 1040 979 q 974 972 994 979 q 928 946 953 964 q 842 847 892 919 q 741 660 792 774 q 653 410 690 547 l 586 147 q 579 97 579 124 q 606 44 579 57 q 696 28 633 31 l 689 0 q 406 4 601 4 q 154 0 236 4 l 161 28 q 236 39 211 31 q 276 72 261 47 q 304 147 292 96 l 376 432 q 315 749 356 615 q 218 883 274 883 q 156 818 178 883 l 132 747 l 101 747 l 131 836 q 222 964 160 925 q 365 1003 285 1003 q 524 949 468 1003 q 606 794 581 894 q 653 513 632 694 q 749 747 696 643 q 858 919 801 851 q 1024 1003 931 1003 m 667 1026 q 689 1086 674 1064 q 731 1133 704 1108 q 773 1181 760 1160 q 786 1240 786 1203 q 699 1329 786 1329 q 636 1317 658 1329 q 694 1239 694 1293 q 667 1176 694 1200 q 599 1153 639 1153 q 543 1172 564 1153 q 522 1224 522 1192 q 606 1325 522 1286 q 764 1357 674 1357 q 891 1330 844 1357 q 938 1249 938 1303 q 908 1181 938 1203 q 821 1136 879 1158 q 733 1093 764 1115 q 694 1026 701 1071 l 667 1026 z "},"Ỹ":{"ha":1078,"x_min":101,"x_max":1186,"o":"m 1024 1003 q 1141 960 1096 1003 q 1186 854 1186 918 q 1142 749 1186 789 q 1031 708 1097 708 q 940 735 974 708 q 907 811 907 763 q 948 915 907 872 q 1051 968 989 957 q 1017 979 1040 979 q 974 972 994 979 q 928 946 953 964 q 842 847 892 919 q 741 660 792 774 q 653 410 690 547 l 586 147 q 579 97 579 124 q 606 44 579 57 q 696 28 633 31 l 689 0 q 406 4 601 4 q 154 0 236 4 l 161 28 q 236 39 211 31 q 276 72 261 47 q 304 147 292 96 l 376 432 q 315 749 356 615 q 218 883 274 883 q 156 818 178 883 l 132 747 l 101 747 l 131 836 q 222 964 160 925 q 365 1003 285 1003 q 524 949 468 1003 q 606 794 581 894 q 653 513 632 694 q 749 747 696 643 q 858 919 801 851 q 1024 1003 931 1003 m 642 1317 q 729 1302 694 1317 q 804 1260 764 1288 q 864 1226 840 1236 q 921 1215 888 1215 q 981 1234 954 1215 q 1035 1296 1008 1253 l 1060 1289 q 946 1119 1017 1175 q 796 1063 875 1063 q 708 1077 743 1063 q 633 1119 674 1092 q 574 1153 597 1143 q 517 1164 550 1164 q 456 1145 483 1164 q 403 1083 429 1126 l 378 1090 q 492 1260 421 1204 q 642 1317 563 1317 z "},"Z":{"ha":919,"x_min":-42,"x_max":1006,"o":"m 997 990 q 1006 972 1006 985 q 980 930 1006 953 q 901 886 954 907 l 517 508 l 728 508 l 717 481 l 489 481 l 114 113 q 407 253 261 253 q 503 244 463 253 q 599 221 543 236 q 646 208 622 214 q 689 203 669 203 q 729 235 729 203 q 628 300 729 279 l 633 326 q 778 274 719 313 q 836 165 836 235 q 775 32 836 83 q 613 -19 714 -19 q 507 -6 554 -19 q 403 35 460 8 q 297 74 340 61 q 197 88 254 88 q 89 67 151 88 q 35 8 64 31 q -14 -14 7 -14 q -33 -7 -26 -14 q -42 11 -42 -1 q -16 53 -42 31 q 63 97 10 76 l 453 481 l 228 481 l 238 508 l 481 508 l 850 871 q 558 731 703 731 q 463 739 503 731 q 367 763 422 747 q 319 775 343 769 q 276 781 296 781 q 236 749 236 781 q 338 683 236 704 l 331 657 q 186 710 244 671 q 128 818 128 749 q 189 951 128 900 q 351 1003 250 1003 q 457 989 410 1003 q 561 949 504 975 q 667 909 624 922 q 767 896 710 896 q 875 917 813 896 q 928 975 900 953 q 978 997 957 997 q 997 990 990 997 z "},"Ź":{"ha":919,"x_min":-42,"x_max":1006,"o":"m 997 990 q 1006 972 1006 985 q 980 930 1006 953 q 901 886 954 907 l 517 508 l 728 508 l 717 481 l 489 481 l 114 113 q 407 253 261 253 q 503 244 463 253 q 599 221 543 236 q 646 208 622 214 q 689 203 669 203 q 729 235 729 203 q 628 300 729 279 l 633 326 q 778 274 719 313 q 836 165 836 235 q 775 32 836 83 q 613 -19 714 -19 q 507 -6 554 -19 q 403 35 460 8 q 297 74 340 61 q 197 88 254 88 q 89 67 151 88 q 35 8 64 31 q -14 -14 7 -14 q -33 -7 -26 -14 q -42 11 -42 -1 q -16 53 -42 31 q 63 97 10 76 l 453 481 l 228 481 l 238 508 l 481 508 l 850 871 q 558 731 703 731 q 463 739 503 731 q 367 763 422 747 q 319 775 343 769 q 276 781 296 781 q 236 749 236 781 q 338 683 236 704 l 331 657 q 186 710 244 671 q 128 818 128 749 q 189 951 128 900 q 351 1003 250 1003 q 457 989 410 1003 q 561 949 504 975 q 667 909 624 922 q 767 896 710 896 q 875 917 813 896 q 928 975 900 953 q 978 997 957 997 q 997 990 990 997 m 578 1089 q 663 1170 625 1131 q 710 1219 700 1210 q 777 1289 750 1264 q 836 1331 804 1314 q 900 1347 867 1347 q 949 1335 926 1347 q 986 1299 972 1324 q 996 1261 996 1281 q 976 1211 996 1235 q 924 1169 957 1188 q 774 1122 876 1144 q 588 1072 649 1092 l 578 1089 z "},"Ž":{"ha":919,"x_min":-42,"x_max":1035,"o":"m 997 990 q 1006 972 1006 985 q 980 930 1006 953 q 901 886 954 907 l 517 508 l 728 508 l 717 481 l 489 481 l 114 113 q 407 253 261 253 q 503 244 463 253 q 599 221 543 236 q 646 208 622 214 q 689 203 669 203 q 729 235 729 203 q 628 300 729 279 l 633 326 q 778 274 719 313 q 836 165 836 235 q 775 32 836 83 q 613 -19 714 -19 q 507 -6 554 -19 q 403 35 460 8 q 297 74 340 61 q 197 88 254 88 q 89 67 151 88 q 35 8 64 31 q -14 -14 7 -14 q -33 -7 -26 -14 q -42 11 -42 -1 q -16 53 -42 31 q 63 97 10 76 l 453 481 l 228 481 l 238 508 l 481 508 l 850 871 q 558 731 703 731 q 463 739 503 731 q 367 763 422 747 q 319 775 343 769 q 276 781 296 781 q 236 749 236 781 q 338 683 236 704 l 331 657 q 186 710 244 671 q 128 818 128 749 q 189 951 128 900 q 351 1003 250 1003 q 457 989 410 1003 q 561 949 504 975 q 667 909 624 922 q 767 896 710 896 q 875 917 813 896 q 928 975 900 953 q 978 997 957 997 q 997 990 990 997 m 715 1239 q 1028 1314 850 1285 l 1035 1294 q 801 1191 911 1256 q 625 1056 692 1126 l 600 1056 q 529 1196 572 1140 q 407 1294 486 1251 l 413 1314 q 581 1280 513 1297 q 715 1239 650 1263 z "},"Ż":{"ha":919,"x_min":-42,"x_max":1006,"o":"m 997 990 q 1006 972 1006 985 q 980 930 1006 953 q 901 886 954 907 l 517 508 l 728 508 l 717 481 l 489 481 l 114 113 q 407 253 261 253 q 503 244 463 253 q 599 221 543 236 q 646 208 622 214 q 689 203 669 203 q 729 235 729 203 q 628 300 729 279 l 633 326 q 778 274 719 313 q 836 165 836 235 q 775 32 836 83 q 613 -19 714 -19 q 507 -6 554 -19 q 403 35 460 8 q 297 74 340 61 q 197 88 254 88 q 89 67 151 88 q 35 8 64 31 q -14 -14 7 -14 q -33 -7 -26 -14 q -42 11 -42 -1 q -16 53 -42 31 q 63 97 10 76 l 453 481 l 228 481 l 238 508 l 481 508 l 850 871 q 558 731 703 731 q 463 739 503 731 q 367 763 422 747 q 319 775 343 769 q 276 781 296 781 q 236 749 236 781 q 338 683 236 704 l 331 657 q 186 710 244 671 q 128 818 128 749 q 189 951 128 900 q 351 1003 250 1003 q 457 989 410 1003 q 561 949 504 975 q 667 909 624 922 q 767 896 710 896 q 875 917 813 896 q 928 975 900 953 q 978 997 957 997 q 997 990 990 997 m 474 1147 q 520 1257 474 1219 q 643 1294 567 1294 q 735 1271 704 1294 q 767 1200 767 1247 q 718 1096 767 1136 q 596 1056 669 1056 q 505 1079 536 1056 q 474 1147 474 1103 z "},"a":{"ha":808,"x_min":-10,"x_max":792,"o":"m 724 225 l 750 225 l 715 124 q 517 -19 665 -19 q 396 29 432 -19 q 372 114 372 64 q 374 138 372 129 q 288 17 340 53 q 163 -19 235 -19 q 33 25 76 -19 q -10 154 -10 69 q 60 422 -10 285 q 235 650 131 560 q 436 740 340 740 q 522 661 515 740 l 540 719 q 792 740 675 721 l 604 118 q 599 85 599 100 q 621 60 599 60 q 694 147 661 60 l 724 225 m 283 75 q 342 119 313 75 q 408 279 371 164 l 508 613 q 510 633 510 619 q 483 672 510 672 q 388 592 444 672 q 292 389 332 511 q 251 149 251 267 q 258 92 251 108 q 283 75 265 75 z "},"á":{"ha":808,"x_min":-10,"x_max":810,"o":"m 724 225 l 750 225 l 715 124 q 517 -19 665 -19 q 396 29 432 -19 q 372 114 372 64 q 374 138 372 129 q 288 17 340 53 q 163 -19 235 -19 q 33 25 76 -19 q -10 154 -10 69 q 60 422 -10 285 q 235 650 131 560 q 436 740 340 740 q 522 661 515 740 l 540 719 q 792 740 675 721 l 604 118 q 599 85 599 100 q 621 60 599 60 q 694 147 661 60 l 724 225 m 283 75 q 342 119 313 75 q 408 279 371 164 l 508 613 q 510 633 510 619 q 483 672 510 672 q 388 592 444 672 q 292 389 332 511 q 251 149 251 267 q 258 92 251 108 q 283 75 265 75 m 456 846 q 546 1010 506 928 q 590 1094 572 1064 q 633 1150 608 1125 q 674 1178 650 1168 q 722 1189 699 1189 q 786 1163 760 1189 q 810 1110 810 1139 q 764 1022 810 1068 q 713 981 742 1000 q 632 933 683 963 q 469 832 528 874 l 456 846 z "},"ă":{"ha":808,"x_min":-10,"x_max":861,"o":"m 724 225 l 750 225 l 715 124 q 517 -19 665 -19 q 396 29 432 -19 q 372 114 372 64 q 374 138 372 129 q 288 17 340 53 q 163 -19 235 -19 q 33 25 76 -19 q -10 154 -10 69 q 60 422 -10 285 q 235 650 131 560 q 436 740 340 740 q 522 661 515 740 l 540 719 q 792 740 675 721 l 604 118 q 599 85 599 100 q 621 60 599 60 q 694 147 661 60 l 724 225 m 283 75 q 342 119 313 75 q 408 279 371 164 l 508 613 q 510 633 510 619 q 483 672 510 672 q 388 592 444 672 q 292 389 332 511 q 251 149 251 267 q 258 92 251 108 q 283 75 265 75 m 567 1017 q 844 1094 726 1017 l 861 1082 q 720 919 810 986 q 533 851 631 851 q 418 914 461 851 q 361 1078 375 976 l 382 1089 q 457 1033 417 1050 q 567 1017 497 1017 z "},"ắ":{"ha":808,"x_min":-10,"x_max":885,"o":"m 724 225 l 750 225 l 715 124 q 517 -19 665 -19 q 396 29 432 -19 q 372 114 372 64 q 374 138 372 129 q 288 17 340 53 q 163 -19 235 -19 q 33 25 76 -19 q -10 154 -10 69 q 60 422 -10 285 q 235 650 131 560 q 436 740 340 740 q 522 661 515 740 l 540 719 q 792 740 675 721 l 604 118 q 599 85 599 100 q 621 60 599 60 q 694 147 661 60 l 724 225 m 283 75 q 342 119 313 75 q 408 279 371 164 l 508 613 q 510 633 510 619 q 483 672 510 672 q 388 592 444 672 q 292 389 332 511 q 251 149 251 267 q 258 92 251 108 q 283 75 265 75 m 567 1017 q 844 1094 726 1017 l 861 1082 q 720 919 810 986 q 533 851 631 851 q 418 914 461 851 q 361 1078 375 976 l 382 1089 q 457 1033 417 1050 q 567 1017 497 1017 m 531 1142 q 621 1306 581 1224 q 665 1390 647 1360 q 708 1446 683 1421 q 749 1474 725 1464 q 797 1485 774 1485 q 861 1458 835 1485 q 885 1406 885 1435 q 839 1318 885 1364 q 788 1277 817 1296 q 707 1229 758 1258 q 544 1128 603 1169 l 531 1142 z "},"ặ":{"ha":808,"x_min":-10,"x_max":861,"o":"m 724 225 l 750 225 l 715 124 q 517 -19 665 -19 q 396 29 432 -19 q 372 114 372 64 q 374 138 372 129 q 288 17 340 53 q 163 -19 235 -19 q 33 25 76 -19 q -10 154 -10 69 q 60 422 -10 285 q 235 650 131 560 q 436 740 340 740 q 522 661 515 740 l 540 719 q 792 740 675 721 l 604 118 q 599 85 599 100 q 621 60 599 60 q 694 147 661 60 l 724 225 m 283 75 q 342 119 313 75 q 408 279 371 164 l 508 613 q 510 633 510 619 q 483 672 510 672 q 388 592 444 672 q 292 389 332 511 q 251 149 251 267 q 258 92 251 108 q 283 75 265 75 m 567 1017 q 844 1094 726 1017 l 861 1082 q 720 919 810 986 q 533 851 631 851 q 418 914 461 851 q 361 1078 375 976 l 382 1089 q 457 1033 417 1050 q 567 1017 497 1017 m 271 -265 q 194 -246 221 -265 q 168 -187 168 -226 q 206 -95 168 -128 q 308 -62 243 -62 q 385 -82 358 -62 q 411 -140 411 -101 q 374 -233 411 -200 q 271 -265 336 -265 z "},"ằ":{"ha":808,"x_min":-10,"x_max":861,"o":"m 724 225 l 750 225 l 715 124 q 517 -19 665 -19 q 396 29 432 -19 q 372 114 372 64 q 374 138 372 129 q 288 17 340 53 q 163 -19 235 -19 q 33 25 76 -19 q -10 154 -10 69 q 60 422 -10 285 q 235 650 131 560 q 436 740 340 740 q 522 661 515 740 l 540 719 q 792 740 675 721 l 604 118 q 599 85 599 100 q 621 60 599 60 q 694 147 661 60 l 724 225 m 283 75 q 342 119 313 75 q 408 279 371 164 l 508 613 q 510 633 510 619 q 483 672 510 672 q 388 592 444 672 q 292 389 332 511 q 251 149 251 267 q 258 92 251 108 q 283 75 265 75 m 567 1017 q 844 1094 726 1017 l 861 1082 q 720 919 810 986 q 533 851 631 851 q 418 914 461 851 q 361 1078 375 976 l 382 1089 q 457 1033 417 1050 q 567 1017 497 1017 m 613 1128 q 476 1261 557 1190 q 428 1304 446 1286 q 399 1343 411 1322 q 383 1396 383 1369 q 422 1468 383 1443 q 469 1482 444 1482 q 519 1469 496 1482 q 556 1436 543 1457 q 576 1389 569 1414 q 588 1324 583 1364 q 604 1232 596 1272 q 629 1138 613 1192 l 613 1128 z "},"ẳ":{"ha":808,"x_min":-10,"x_max":861,"o":"m 724 225 l 750 225 l 715 124 q 517 -19 665 -19 q 396 29 432 -19 q 372 114 372 64 q 374 138 372 129 q 288 17 340 53 q 163 -19 235 -19 q 33 25 76 -19 q -10 154 -10 69 q 60 422 -10 285 q 235 650 131 560 q 436 740 340 740 q 522 661 515 740 l 540 719 q 792 740 675 721 l 604 118 q 599 85 599 100 q 621 60 599 60 q 694 147 661 60 l 724 225 m 283 75 q 342 119 313 75 q 408 279 371 164 l 508 613 q 510 633 510 619 q 483 672 510 672 q 388 592 444 672 q 292 389 332 511 q 251 149 251 267 q 258 92 251 108 q 283 75 265 75 m 567 1017 q 844 1094 726 1017 l 861 1082 q 720 919 810 986 q 533 851 631 851 q 418 914 461 851 q 361 1078 375 976 l 382 1089 q 457 1033 417 1050 q 567 1017 497 1017 m 586 1129 q 608 1189 593 1167 q 650 1236 624 1211 q 692 1284 679 1263 q 706 1343 706 1306 q 618 1432 706 1432 q 556 1419 578 1432 q 614 1342 614 1396 q 586 1279 614 1303 q 518 1256 558 1256 q 463 1275 483 1256 q 442 1326 442 1294 q 525 1428 442 1389 q 683 1460 593 1460 q 810 1433 764 1460 q 857 1351 857 1406 q 828 1283 857 1306 q 740 1239 799 1261 q 652 1196 683 1218 q 614 1129 621 1174 l 586 1129 z "},"ẵ":{"ha":808,"x_min":-10,"x_max":928,"o":"m 724 225 l 750 225 l 715 124 q 517 -19 665 -19 q 396 29 432 -19 q 372 114 372 64 q 374 138 372 129 q 288 17 340 53 q 163 -19 235 -19 q 33 25 76 -19 q -10 154 -10 69 q 60 422 -10 285 q 235 650 131 560 q 436 740 340 740 q 522 661 515 740 l 540 719 q 792 740 675 721 l 604 118 q 599 85 599 100 q 621 60 599 60 q 694 147 661 60 l 724 225 m 283 75 q 342 119 313 75 q 408 279 371 164 l 508 613 q 510 633 510 619 q 483 672 510 672 q 388 592 444 672 q 292 389 332 511 q 251 149 251 267 q 258 92 251 108 q 283 75 265 75 m 567 1017 q 844 1094 726 1017 l 861 1082 q 720 919 810 986 q 533 851 631 851 q 418 914 461 851 q 361 1078 375 976 l 382 1089 q 457 1033 417 1050 q 567 1017 497 1017 m 593 1404 q 660 1390 633 1404 q 717 1347 686 1375 q 760 1314 742 1325 q 803 1303 779 1303 q 856 1322 832 1303 q 903 1383 879 1340 l 928 1376 q 826 1206 889 1263 q 692 1150 763 1150 q 625 1165 651 1150 q 568 1207 599 1179 q 524 1240 543 1229 q 482 1251 506 1251 q 429 1233 453 1251 q 382 1171 406 1214 l 357 1178 q 459 1348 396 1292 q 593 1404 522 1404 z "},"ǎ":{"ha":808,"x_min":-10,"x_max":893,"o":"m 724 225 l 750 225 l 715 124 q 517 -19 665 -19 q 396 29 432 -19 q 372 114 372 64 q 374 138 372 129 q 288 17 340 53 q 163 -19 235 -19 q 33 25 76 -19 q -10 154 -10 69 q 60 422 -10 285 q 235 650 131 560 q 436 740 340 740 q 522 661 515 740 l 540 719 q 792 740 675 721 l 604 118 q 599 85 599 100 q 621 60 599 60 q 694 147 661 60 l 724 225 m 283 75 q 342 119 313 75 q 408 279 371 164 l 508 613 q 510 633 510 619 q 483 672 510 672 q 388 592 444 672 q 292 389 332 511 q 251 149 251 267 q 258 92 251 108 q 283 75 265 75 m 629 1081 q 886 1156 735 1125 l 893 1136 q 692 1010 786 1089 q 539 842 597 931 l 514 842 q 454 1016 492 947 q 349 1136 417 1085 l 354 1156 q 509 1122 446 1139 q 629 1081 572 1104 z "},"â":{"ha":808,"x_min":-10,"x_max":794,"o":"m 724 225 l 750 225 l 715 124 q 517 -19 665 -19 q 396 29 432 -19 q 372 114 372 64 q 374 138 372 129 q 288 17 340 53 q 163 -19 235 -19 q 33 25 76 -19 q -10 154 -10 69 q 60 422 -10 285 q 235 650 131 560 q 436 740 340 740 q 522 661 515 740 l 540 719 q 792 740 675 721 l 604 118 q 599 85 599 100 q 621 60 599 60 q 694 147 661 60 l 724 225 m 283 75 q 342 119 313 75 q 408 279 371 164 l 508 613 q 510 633 510 619 q 483 672 510 672 q 388 592 444 672 q 292 389 332 511 q 251 149 251 267 q 258 92 251 108 q 283 75 265 75 m 514 917 q 257 842 408 872 l 250 861 q 451 988 357 908 q 604 1156 546 1067 l 629 1156 q 689 981 651 1050 q 794 861 726 913 l 789 842 q 634 876 697 858 q 514 917 571 893 z "},"ấ":{"ha":808,"x_min":-10,"x_max":893,"o":"m 724 225 l 750 225 l 715 124 q 517 -19 665 -19 q 396 29 432 -19 q 372 114 372 64 q 374 138 372 129 q 288 17 340 53 q 163 -19 235 -19 q 33 25 76 -19 q -10 154 -10 69 q 60 422 -10 285 q 235 650 131 560 q 436 740 340 740 q 522 661 515 740 l 540 719 q 792 740 675 721 l 604 118 q 599 85 599 100 q 621 60 599 60 q 694 147 661 60 l 724 225 m 283 75 q 342 119 313 75 q 408 279 371 164 l 508 613 q 510 633 510 619 q 483 672 510 672 q 388 592 444 672 q 292 389 332 511 q 251 149 251 267 q 258 92 251 108 q 283 75 265 75 m 514 917 q 257 842 408 872 l 250 861 q 451 988 357 908 q 604 1156 546 1067 l 629 1156 q 689 981 651 1050 q 794 861 726 913 l 789 842 q 634 876 697 858 q 514 917 571 893 m 539 1178 q 629 1342 589 1260 q 674 1426 656 1396 q 717 1482 692 1457 q 758 1510 733 1500 q 806 1521 782 1521 q 869 1494 843 1521 q 893 1442 893 1471 q 847 1354 893 1400 q 796 1313 825 1332 q 715 1265 767 1294 q 553 1164 611 1206 l 539 1178 z "},"ậ":{"ha":808,"x_min":-10,"x_max":794,"o":"m 724 225 l 750 225 l 715 124 q 517 -19 665 -19 q 396 29 432 -19 q 372 114 372 64 q 374 138 372 129 q 288 17 340 53 q 163 -19 235 -19 q 33 25 76 -19 q -10 154 -10 69 q 60 422 -10 285 q 235 650 131 560 q 436 740 340 740 q 522 661 515 740 l 540 719 q 792 740 675 721 l 604 118 q 599 85 599 100 q 621 60 599 60 q 694 147 661 60 l 724 225 m 283 75 q 342 119 313 75 q 408 279 371 164 l 508 613 q 510 633 510 619 q 483 672 510 672 q 388 592 444 672 q 292 389 332 511 q 251 149 251 267 q 258 92 251 108 q 283 75 265 75 m 514 917 q 257 842 408 872 l 250 861 q 451 988 357 908 q 604 1156 546 1067 l 629 1156 q 689 981 651 1050 q 794 861 726 913 l 789 842 q 634 876 697 858 q 514 917 571 893 m 271 -265 q 194 -246 221 -265 q 168 -187 168 -226 q 206 -95 168 -128 q 308 -62 243 -62 q 385 -82 358 -62 q 411 -140 411 -101 q 374 -233 411 -200 q 271 -265 336 -265 z "},"ầ":{"ha":808,"x_min":-10,"x_max":794,"o":"m 724 225 l 750 225 l 715 124 q 517 -19 665 -19 q 396 29 432 -19 q 372 114 372 64 q 374 138 372 129 q 288 17 340 53 q 163 -19 235 -19 q 33 25 76 -19 q -10 154 -10 69 q 60 422 -10 285 q 235 650 131 560 q 436 740 340 740 q 522 661 515 740 l 540 719 q 792 740 675 721 l 604 118 q 599 85 599 100 q 621 60 599 60 q 694 147 661 60 l 724 225 m 283 75 q 342 119 313 75 q 408 279 371 164 l 508 613 q 510 633 510 619 q 483 672 510 672 q 388 592 444 672 q 292 389 332 511 q 251 149 251 267 q 258 92 251 108 q 283 75 265 75 m 514 917 q 257 842 408 872 l 250 861 q 451 988 357 908 q 604 1156 546 1067 l 629 1156 q 689 981 651 1050 q 794 861 726 913 l 789 842 q 634 876 697 858 q 514 917 571 893 m 621 1164 q 485 1297 565 1226 q 437 1340 454 1322 q 407 1379 419 1358 q 392 1432 392 1406 q 431 1504 392 1479 q 478 1518 453 1518 q 528 1506 504 1518 q 564 1472 551 1493 q 585 1425 578 1450 q 596 1360 592 1400 q 613 1268 604 1308 q 638 1174 621 1228 l 621 1164 z "},"ẩ":{"ha":808,"x_min":-10,"x_max":1025,"o":"m 724 225 l 750 225 l 715 124 q 517 -19 665 -19 q 396 29 432 -19 q 372 114 372 64 q 374 138 372 129 q 288 17 340 53 q 163 -19 235 -19 q 33 25 76 -19 q -10 154 -10 69 q 60 422 -10 285 q 235 650 131 560 q 436 740 340 740 q 522 661 515 740 l 540 719 q 792 740 675 721 l 604 118 q 599 85 599 100 q 621 60 599 60 q 694 147 661 60 l 724 225 m 283 75 q 342 119 313 75 q 408 279 371 164 l 508 613 q 510 633 510 619 q 483 672 510 672 q 388 592 444 672 q 292 389 332 511 q 251 149 251 267 q 258 92 251 108 q 283 75 265 75 m 514 917 q 257 842 408 872 l 250 861 q 451 988 357 908 q 604 1156 546 1067 l 629 1156 q 689 981 651 1050 q 794 861 726 913 l 789 842 q 634 876 697 858 q 514 917 571 893 m 754 1124 q 776 1183 761 1161 q 818 1231 792 1206 q 860 1278 847 1257 q 874 1338 874 1300 q 786 1426 874 1426 q 724 1414 746 1426 q 782 1336 782 1390 q 754 1274 782 1297 q 686 1250 726 1250 q 631 1269 651 1250 q 610 1321 610 1289 q 693 1422 610 1383 q 851 1454 761 1454 q 978 1427 932 1454 q 1025 1346 1025 1400 q 996 1278 1025 1300 q 908 1233 967 1256 q 820 1190 851 1213 q 782 1124 789 1168 l 754 1124 z "},"ẫ":{"ha":808,"x_min":-10,"x_max":936,"o":"m 724 225 l 750 225 l 715 124 q 517 -19 665 -19 q 396 29 432 -19 q 372 114 372 64 q 374 138 372 129 q 288 17 340 53 q 163 -19 235 -19 q 33 25 76 -19 q -10 154 -10 69 q 60 422 -10 285 q 235 650 131 560 q 436 740 340 740 q 522 661 515 740 l 540 719 q 792 740 675 721 l 604 118 q 599 85 599 100 q 621 60 599 60 q 694 147 661 60 l 724 225 m 283 75 q 342 119 313 75 q 408 279 371 164 l 508 613 q 510 633 510 619 q 483 672 510 672 q 388 592 444 672 q 292 389 332 511 q 251 149 251 267 q 258 92 251 108 q 283 75 265 75 m 514 917 q 257 842 408 872 l 250 861 q 451 988 357 908 q 604 1156 546 1067 l 629 1156 q 689 981 651 1050 q 794 861 726 913 l 789 842 q 634 876 697 858 q 514 917 571 893 m 601 1440 q 668 1426 642 1440 q 725 1383 694 1411 q 769 1350 750 1361 q 811 1339 788 1339 q 864 1358 840 1339 q 911 1419 888 1376 l 936 1413 q 834 1242 897 1299 q 700 1186 771 1186 q 633 1201 660 1186 q 576 1243 607 1215 q 533 1276 551 1265 q 490 1288 514 1288 q 438 1269 461 1288 q 390 1207 414 1250 l 365 1214 q 467 1384 404 1328 q 601 1440 531 1440 z "},"ä":{"ha":808,"x_min":-10,"x_max":853,"o":"m 724 225 l 750 225 l 715 124 q 517 -19 665 -19 q 396 29 432 -19 q 372 114 372 64 q 374 138 372 129 q 288 17 340 53 q 163 -19 235 -19 q 33 25 76 -19 q -10 154 -10 69 q 60 422 -10 285 q 235 650 131 560 q 436 740 340 740 q 522 661 515 740 l 540 719 q 792 740 675 721 l 604 118 q 599 85 599 100 q 621 60 599 60 q 694 147 661 60 l 724 225 m 283 75 q 342 119 313 75 q 408 279 371 164 l 508 613 q 510 633 510 619 q 483 672 510 672 q 388 592 444 672 q 292 389 332 511 q 251 149 251 267 q 258 92 251 108 q 283 75 265 75 m 281 936 q 320 1038 281 1004 q 418 1072 360 1072 q 497 1043 471 1072 q 522 964 522 1014 q 481 864 522 897 q 383 831 440 831 q 306 858 331 831 q 281 936 281 886 m 611 936 q 651 1038 611 1004 q 749 1072 690 1072 q 827 1043 801 1072 q 853 964 853 1014 q 812 864 853 897 q 714 831 771 831 q 636 858 661 831 q 611 936 611 886 z "},"ạ":{"ha":808,"x_min":-10,"x_max":792,"o":"m 724 225 l 750 225 l 715 124 q 517 -19 665 -19 q 396 29 432 -19 q 372 114 372 64 q 374 138 372 129 q 288 17 340 53 q 163 -19 235 -19 q 33 25 76 -19 q -10 154 -10 69 q 60 422 -10 285 q 235 650 131 560 q 436 740 340 740 q 522 661 515 740 l 540 719 q 792 740 675 721 l 604 118 q 599 85 599 100 q 621 60 599 60 q 694 147 661 60 l 724 225 m 283 75 q 342 119 313 75 q 408 279 371 164 l 508 613 q 510 633 510 619 q 483 672 510 672 q 388 592 444 672 q 292 389 332 511 q 251 149 251 267 q 258 92 251 108 q 283 75 265 75 m 271 -265 q 194 -246 221 -265 q 168 -187 168 -226 q 206 -95 168 -128 q 308 -62 243 -62 q 385 -82 358 -62 q 411 -140 411 -101 q 374 -233 411 -200 q 271 -265 336 -265 z "},"à":{"ha":808,"x_min":-10,"x_max":792,"o":"m 724 225 l 750 225 l 715 124 q 517 -19 665 -19 q 396 29 432 -19 q 372 114 372 64 q 374 138 372 129 q 288 17 340 53 q 163 -19 235 -19 q 33 25 76 -19 q -10 154 -10 69 q 60 422 -10 285 q 235 650 131 560 q 436 740 340 740 q 522 661 515 740 l 540 719 q 792 740 675 721 l 604 118 q 599 85 599 100 q 621 60 599 60 q 694 147 661 60 l 724 225 m 283 75 q 342 119 313 75 q 408 279 371 164 l 508 613 q 510 633 510 619 q 483 672 510 672 q 388 592 444 672 q 292 389 332 511 q 251 149 251 267 q 258 92 251 108 q 283 75 265 75 m 538 832 q 401 965 482 894 q 353 1008 371 990 q 324 1047 336 1026 q 308 1100 308 1074 q 347 1172 308 1147 q 394 1186 369 1186 q 444 1174 421 1186 q 481 1140 468 1161 q 501 1093 494 1118 q 513 1028 508 1068 q 529 936 521 976 q 554 842 538 896 l 538 832 z "},"ả":{"ha":808,"x_min":-10,"x_max":792,"o":"m 724 225 l 750 225 l 715 124 q 517 -19 665 -19 q 396 29 432 -19 q 372 114 372 64 q 374 138 372 129 q 288 17 340 53 q 163 -19 235 -19 q 33 25 76 -19 q -10 154 -10 69 q 60 422 -10 285 q 235 650 131 560 q 436 740 340 740 q 522 661 515 740 l 540 719 q 792 740 675 721 l 604 118 q 599 85 599 100 q 621 60 599 60 q 694 147 661 60 l 724 225 m 283 75 q 342 119 313 75 q 408 279 371 164 l 508 613 q 510 633 510 619 q 483 672 510 672 q 388 592 444 672 q 292 389 332 511 q 251 149 251 267 q 258 92 251 108 q 283 75 265 75 m 511 833 q 533 893 518 871 q 575 940 549 915 q 617 988 604 967 q 631 1047 631 1010 q 543 1136 631 1136 q 481 1124 503 1136 q 539 1046 539 1100 q 511 983 539 1007 q 443 960 483 960 q 388 979 408 960 q 367 1031 367 999 q 450 1132 367 1093 q 608 1164 518 1164 q 735 1137 689 1164 q 782 1056 782 1110 q 753 988 782 1010 q 665 943 724 965 q 577 900 608 922 q 539 833 546 878 l 511 833 z "},"ā":{"ha":808,"x_min":-10,"x_max":813,"o":"m 724 225 l 750 225 l 715 124 q 517 -19 665 -19 q 396 29 432 -19 q 372 114 372 64 q 374 138 372 129 q 288 17 340 53 q 163 -19 235 -19 q 33 25 76 -19 q -10 154 -10 69 q 60 422 -10 285 q 235 650 131 560 q 436 740 340 740 q 522 661 515 740 l 540 719 q 792 740 675 721 l 604 118 q 599 85 599 100 q 621 60 599 60 q 694 147 661 60 l 724 225 m 283 75 q 342 119 313 75 q 408 279 371 164 l 508 613 q 510 633 510 619 q 483 672 510 672 q 388 592 444 672 q 292 389 332 511 q 251 149 251 267 q 258 92 251 108 q 283 75 265 75 m 804 954 l 315 954 l 324 989 l 813 989 l 804 954 z "},"ą":{"ha":808,"x_min":-10,"x_max":792,"o":"m 724 225 l 750 225 l 715 124 q 517 -19 665 -19 q 396 29 432 -19 q 372 114 372 64 q 374 138 372 129 q 288 17 340 53 q 163 -19 235 -19 q 33 25 76 -19 q -10 154 -10 69 q 60 422 -10 285 q 235 650 131 560 q 436 740 340 740 q 522 661 515 740 l 540 719 q 792 740 675 721 l 604 118 q 599 85 599 100 q 621 60 599 60 q 694 147 661 60 l 724 225 m 283 75 q 342 119 313 75 q 408 279 371 164 l 508 613 q 510 633 510 619 q 483 672 510 672 q 388 592 444 672 q 292 389 332 511 q 251 149 251 267 q 258 92 251 108 q 283 75 265 75 m 619 4 q 519 -67 554 -22 q 485 -157 485 -112 q 517 -190 485 -190 q 557 -178 535 -190 q 599 -149 579 -167 l 619 -167 q 529 -237 581 -214 q 421 -261 478 -261 q 328 -239 363 -261 q 294 -176 294 -217 q 379 -70 294 -117 q 594 4 464 -24 l 619 4 z "},"å":{"ha":808,"x_min":-10,"x_max":792,"o":"m 724 225 l 750 225 l 715 124 q 517 -19 665 -19 q 396 29 432 -19 q 372 114 372 64 q 374 138 372 129 q 288 17 340 53 q 163 -19 235 -19 q 33 25 76 -19 q -10 154 -10 69 q 60 422 -10 285 q 235 650 131 560 q 436 740 340 740 q 522 661 515 740 l 540 719 q 792 740 675 721 l 604 118 q 599 85 599 100 q 621 60 599 60 q 694 147 661 60 l 724 225 m 283 75 q 342 119 313 75 q 408 279 371 164 l 508 613 q 510 633 510 619 q 483 672 510 672 q 388 592 444 672 q 292 389 332 511 q 251 149 251 267 q 258 92 251 108 q 283 75 265 75 m 590 1113 q 696 1078 654 1113 q 738 989 738 1044 q 712 910 738 946 q 644 852 686 874 q 553 831 601 831 q 451 865 492 831 q 411 956 411 899 q 463 1067 411 1022 q 590 1113 515 1113 m 560 860 q 658 897 615 860 q 701 986 701 935 q 667 1058 701 1033 q 586 1083 632 1083 q 490 1044 531 1083 q 449 956 449 1006 q 482 885 449 911 q 560 860 515 860 z "},"ã":{"ha":808,"x_min":-10,"x_max":853,"o":"m 724 225 l 750 225 l 715 124 q 517 -19 665 -19 q 396 29 432 -19 q 372 114 372 64 q 374 138 372 129 q 288 17 340 53 q 163 -19 235 -19 q 33 25 76 -19 q -10 154 -10 69 q 60 422 -10 285 q 235 650 131 560 q 436 740 340 740 q 522 661 515 740 l 540 719 q 792 740 675 721 l 604 118 q 599 85 599 100 q 621 60 599 60 q 694 147 661 60 l 724 225 m 283 75 q 342 119 313 75 q 408 279 371 164 l 508 613 q 510 633 510 619 q 483 672 510 672 q 388 592 444 672 q 292 389 332 511 q 251 149 251 267 q 258 92 251 108 q 283 75 265 75 m 518 1108 q 585 1094 558 1108 q 642 1051 611 1079 q 685 1018 667 1029 q 728 1007 704 1007 q 781 1026 757 1007 q 828 1088 804 1044 l 853 1081 q 751 910 814 967 q 617 854 688 854 q 550 869 576 854 q 493 911 524 883 q 449 944 468 933 q 407 956 431 956 q 354 937 378 956 q 307 875 331 918 l 282 882 q 384 1052 321 996 q 518 1108 447 1108 z "},"æ":{"ha":1090,"x_min":-17,"x_max":1100,"o":"m 1100 618 q 970 415 1100 501 q 661 286 840 328 q 657 215 657 249 q 686 110 657 139 q 772 81 715 81 q 862 104 807 81 q 967 178 917 128 l 989 167 q 846 34 936 88 q 638 -19 756 -19 q 499 11 560 -19 q 413 99 438 42 q 297 10 365 40 q 156 -19 229 -19 q 26 25 69 -19 q -17 154 -17 69 q 72 410 -17 279 q 297 627 160 542 q 568 713 433 713 q 674 667 644 713 q 928 740 792 740 q 1053 709 1006 740 q 1100 618 1100 678 m 897 714 q 810 653 858 714 q 722 499 763 593 q 665 310 682 404 q 790 388 747 349 q 886 518 853 443 q 919 679 919 593 q 897 714 919 714 m 397 176 q 467 442 397 311 q 651 653 536 574 q 603 672 633 672 q 443 599 528 672 q 301 406 358 525 q 244 163 244 288 q 265 97 244 119 q 313 75 285 75 q 358 85 338 75 q 406 119 379 94 q 397 176 397 147 z "},"b":{"ha":799,"x_min":-44,"x_max":767,"o":"m 576 740 q 719 682 672 740 q 767 514 767 624 q 712 275 767 400 q 554 65 657 150 q 318 -19 451 -19 q 256 -11 285 -19 q 207 11 226 -3 q 153 18 179 18 q -24 -22 81 18 l -44 -12 q -14 69 -28 21 l 242 926 q 249 965 249 951 q 227 1006 249 993 q 154 1018 206 1018 l 164 1047 q 363 1063 274 1049 q 536 1104 451 1076 l 388 600 q 474 706 428 672 q 576 740 519 740 m 256 26 q 374 113 315 26 q 471 328 433 200 q 508 568 508 456 q 501 631 508 614 q 475 647 493 647 q 419 613 449 647 q 363 518 390 579 l 219 32 q 256 26 242 26 z "},"c":{"ha":672,"x_min":3,"x_max":693,"o":"m 531 713 q 401 638 463 713 q 301 447 339 564 q 263 208 263 329 q 292 101 263 136 q 374 67 321 67 q 458 92 418 67 q 540 178 499 117 l 568 167 q 250 -19 449 -19 q 71 35 139 -19 q 3 200 3 90 q 67 449 3 324 q 247 658 131 575 q 513 740 364 740 q 644 699 596 740 q 693 596 693 657 q 671 509 693 551 q 611 440 649 467 q 531 414 574 414 q 464 440 492 414 q 436 511 436 465 q 478 627 436 576 q 578 696 519 678 q 531 713 560 713 z "},"ć":{"ha":672,"x_min":3,"x_max":760,"o":"m 531 713 q 401 638 463 713 q 301 447 339 564 q 263 208 263 329 q 292 101 263 136 q 374 67 321 67 q 458 92 418 67 q 540 178 499 117 l 568 167 q 250 -19 449 -19 q 71 35 139 -19 q 3 200 3 90 q 67 449 3 324 q 247 658 131 575 q 513 740 364 740 q 644 699 596 740 q 693 596 693 657 q 671 509 693 551 q 611 440 649 467 q 531 414 574 414 q 464 440 492 414 q 436 511 436 465 q 478 627 436 576 q 578 696 519 678 q 531 713 560 713 m 406 844 q 496 1008 456 926 q 540 1093 522 1063 q 583 1149 558 1124 q 624 1177 600 1167 q 672 1188 649 1188 q 736 1161 710 1188 q 760 1108 760 1138 q 714 1021 760 1067 q 663 980 692 999 q 582 932 633 961 q 419 831 478 872 l 406 844 z "},"č":{"ha":672,"x_min":3,"x_max":843,"o":"m 531 713 q 401 638 463 713 q 301 447 339 564 q 263 208 263 329 q 292 101 263 136 q 374 67 321 67 q 458 92 418 67 q 540 178 499 117 l 568 167 q 250 -19 449 -19 q 71 35 139 -19 q 3 200 3 90 q 67 449 3 324 q 247 658 131 575 q 513 740 364 740 q 644 699 596 740 q 693 596 693 657 q 671 509 693 551 q 611 440 649 467 q 531 414 574 414 q 464 440 492 414 q 436 511 436 465 q 478 627 436 576 q 578 696 519 678 q 531 713 560 713 m 579 1079 q 836 1154 685 1124 l 843 1135 q 642 1008 736 1088 q 489 840 547 929 l 464 840 q 404 1015 442 946 q 299 1135 367 1083 l 304 1154 q 459 1120 396 1138 q 579 1079 522 1103 z "},"ç":{"ha":672,"x_min":-8,"x_max":693,"o":"m 531 713 q 401 638 463 713 q 301 447 339 564 q 263 208 263 329 q 292 101 263 136 q 374 67 321 67 q 458 92 418 67 q 540 178 499 117 l 568 167 q 250 -19 449 -19 q 71 35 139 -19 q 3 200 3 90 q 67 449 3 324 q 247 658 131 575 q 513 740 364 740 q 644 699 596 740 q 693 596 693 657 q 671 509 693 551 q 611 440 649 467 q 531 414 574 414 q 464 440 492 414 q 436 511 436 465 q 478 627 436 576 q 578 696 519 678 q 531 713 560 713 m 204 -93 q 290 -76 254 -76 q 362 -92 333 -76 q 390 -136 390 -107 q 312 -231 390 -200 q 125 -261 233 -261 q 49 -253 85 -261 q -8 -236 14 -246 l 0 -214 q 85 -228 46 -228 q 162 -215 125 -228 q 199 -169 199 -203 q 188 -147 199 -156 q 160 -137 178 -137 q 117 -147 136 -137 l 233 0 l 274 0 l 204 -93 z "},"ĉ":{"ha":672,"x_min":3,"x_max":744,"o":"m 531 713 q 401 638 463 713 q 301 447 339 564 q 263 208 263 329 q 292 101 263 136 q 374 67 321 67 q 458 92 418 67 q 540 178 499 117 l 568 167 q 250 -19 449 -19 q 71 35 139 -19 q 3 200 3 90 q 67 449 3 324 q 247 658 131 575 q 513 740 364 740 q 644 699 596 740 q 693 596 693 657 q 671 509 693 551 q 611 440 649 467 q 531 414 574 414 q 464 440 492 414 q 436 511 436 465 q 478 627 436 576 q 578 696 519 678 q 531 713 560 713 m 464 915 q 207 840 358 871 l 200 860 q 401 986 307 907 q 554 1154 496 1065 l 579 1154 q 639 980 601 1049 q 744 860 676 911 l 739 840 q 584 874 647 857 q 464 915 521 892 z "},"ċ":{"ha":672,"x_min":3,"x_max":693,"o":"m 531 713 q 401 638 463 713 q 301 447 339 564 q 263 208 263 329 q 292 101 263 136 q 374 67 321 67 q 458 92 418 67 q 540 178 499 117 l 568 167 q 250 -19 449 -19 q 71 35 139 -19 q 3 200 3 90 q 67 449 3 324 q 247 658 131 575 q 513 740 364 740 q 644 699 596 740 q 693 596 693 657 q 671 509 693 551 q 611 440 649 467 q 531 414 574 414 q 464 440 492 414 q 436 511 436 465 q 478 627 436 576 q 578 696 519 678 q 531 713 560 713 m 369 938 q 416 1047 369 1010 q 539 1085 463 1085 q 631 1061 600 1085 q 663 990 663 1038 q 614 886 663 926 q 492 846 565 846 q 401 869 432 846 q 369 938 369 893 z "},"d":{"ha":838,"x_min":-1,"x_max":911,"o":"m 758 225 l 785 225 l 750 124 q 551 -19 700 -19 q 426 33 463 -19 q 406 113 406 65 q 413 172 406 135 q 315 27 369 74 q 178 -19 261 -19 q 49 31 100 -19 q -1 183 -1 81 q 55 424 -1 293 q 219 648 111 556 q 469 740 326 740 q 554 706 536 740 l 613 926 q 619 965 619 951 q 598 1006 619 993 q 525 1018 576 1018 l 535 1047 q 736 1063 646 1049 q 911 1104 826 1076 l 639 118 q 632 86 632 101 q 656 60 632 60 q 729 147 696 60 l 758 225 m 292 67 q 369 139 322 67 q 461 357 417 211 l 546 674 q 531 700 540 692 q 501 708 521 708 q 400 626 458 708 q 300 413 342 543 q 258 146 258 283 q 265 85 258 104 q 292 67 272 67 z "},"ð":{"ha":772,"x_min":8,"x_max":739,"o":"m 536 947 q 685 761 632 867 q 739 539 739 656 q 683 272 739 400 q 517 62 626 143 q 256 -19 407 -19 q 76 37 143 -19 q 8 218 8 93 q 61 450 8 329 q 210 652 114 571 q 432 733 307 733 q 469 731 447 733 q 418 894 454 824 l 193 794 l 185 819 l 406 917 q 264 1063 356 1000 l 281 1086 q 514 965 415 1043 l 717 1056 l 725 1031 l 536 947 m 293 8 q 384 100 340 8 q 454 327 428 192 q 481 585 481 463 q 474 703 481 643 q 453 706 460 706 q 351 608 393 706 q 288 367 310 510 q 267 93 267 224 q 272 24 267 39 q 293 8 276 8 z "},"ď":{"ha":838,"x_min":-1,"x_max":1183,"o":"m 758 225 l 785 225 l 750 124 q 551 -19 700 -19 q 426 33 463 -19 q 406 113 406 65 q 413 172 406 135 q 315 27 369 74 q 178 -19 261 -19 q 49 31 100 -19 q -1 183 -1 81 q 55 424 -1 293 q 219 648 111 556 q 469 740 326 740 q 554 706 536 740 l 613 926 q 619 965 619 951 q 598 1006 619 993 q 525 1018 576 1018 l 535 1047 q 736 1063 646 1049 q 911 1104 826 1076 l 639 118 q 632 86 632 101 q 656 60 632 60 q 729 147 696 60 l 758 225 m 292 67 q 369 139 322 67 q 461 357 417 211 l 546 674 q 531 700 540 692 q 501 708 521 708 q 400 626 458 708 q 300 413 342 543 q 258 146 258 283 q 265 85 258 104 q 292 67 272 67 m 911 750 q 975 915 954 843 q 996 1018 996 986 q 978 1044 996 1044 l 982 1074 l 1026 1072 q 1182 1089 1104 1072 q 1183 1072 1183 1086 q 1115 933 1183 1021 q 931 744 1047 844 l 911 750 z "},"đ":{"ha":838,"x_min":-1,"x_max":946,"o":"m 758 225 l 785 225 l 750 124 q 551 -19 700 -19 q 426 33 463 -19 q 406 113 406 65 q 413 172 406 135 q 315 27 369 74 q 178 -19 261 -19 q 49 31 100 -19 q -1 183 -1 81 q 55 424 -1 293 q 219 648 111 556 q 469 740 326 740 q 554 706 536 740 l 613 926 q 619 965 619 951 q 598 1006 619 993 q 525 1018 576 1018 l 535 1047 q 736 1063 646 1049 q 911 1104 826 1076 l 639 118 q 632 86 632 101 q 656 60 632 60 q 729 147 696 60 l 758 225 m 292 67 q 369 139 322 67 q 461 357 417 211 l 546 674 q 531 700 540 692 q 501 708 521 708 q 400 626 458 708 q 300 413 342 543 q 258 146 258 283 q 265 85 258 104 q 292 67 272 67 m 938 844 l 363 844 l 371 872 l 946 872 l 938 844 z "},"e":{"ha":689,"x_min":-4,"x_max":699,"o":"m 699 618 q 569 415 699 501 q 260 286 439 328 q 256 215 256 249 q 285 110 256 139 q 371 81 314 81 q 460 104 406 81 q 565 178 515 128 l 588 167 q 444 34 535 88 q 236 -19 354 -19 q 65 32 133 -19 q -4 176 -4 83 q 66 444 -4 313 q 258 658 136 575 q 526 740 379 740 q 651 709 604 740 q 699 618 699 678 m 496 714 q 409 654 457 714 q 321 500 361 594 q 264 311 281 406 q 392 406 338 354 q 484 532 450 463 q 518 679 518 601 q 496 714 518 714 z "},"é":{"ha":689,"x_min":-4,"x_max":781,"o":"m 699 618 q 569 415 699 501 q 260 286 439 328 q 256 215 256 249 q 285 110 256 139 q 371 81 314 81 q 460 104 406 81 q 565 178 515 128 l 588 167 q 444 34 535 88 q 236 -19 354 -19 q 65 32 133 -19 q -4 176 -4 83 q 66 444 -4 313 q 258 658 136 575 q 526 740 379 740 q 651 709 604 740 q 699 618 699 678 m 496 714 q 409 654 457 714 q 321 500 361 594 q 264 311 281 406 q 392 406 338 354 q 484 532 450 463 q 518 679 518 601 q 496 714 518 714 m 426 846 q 517 1010 476 928 q 561 1094 543 1064 q 604 1150 579 1125 q 645 1178 621 1168 q 693 1189 669 1189 q 757 1163 731 1189 q 781 1110 781 1139 q 735 1022 781 1068 q 683 981 713 1000 q 603 933 654 963 q 440 832 499 874 l 426 846 z "},"ĕ":{"ha":689,"x_min":-4,"x_max":832,"o":"m 699 618 q 569 415 699 501 q 260 286 439 328 q 256 215 256 249 q 285 110 256 139 q 371 81 314 81 q 460 104 406 81 q 565 178 515 128 l 588 167 q 444 34 535 88 q 236 -19 354 -19 q 65 32 133 -19 q -4 176 -4 83 q 66 444 -4 313 q 258 658 136 575 q 526 740 379 740 q 651 709 604 740 q 699 618 699 678 m 496 714 q 409 654 457 714 q 321 500 361 594 q 264 311 281 406 q 392 406 338 354 q 484 532 450 463 q 518 679 518 601 q 496 714 518 714 m 538 1017 q 815 1094 697 1017 l 832 1082 q 691 919 781 986 q 504 851 601 851 q 389 914 432 851 q 332 1078 346 976 l 353 1089 q 428 1033 388 1050 q 538 1017 468 1017 z "},"ě":{"ha":689,"x_min":-4,"x_max":864,"o":"m 699 618 q 569 415 699 501 q 260 286 439 328 q 256 215 256 249 q 285 110 256 139 q 371 81 314 81 q 460 104 406 81 q 565 178 515 128 l 588 167 q 444 34 535 88 q 236 -19 354 -19 q 65 32 133 -19 q -4 176 -4 83 q 66 444 -4 313 q 258 658 136 575 q 526 740 379 740 q 651 709 604 740 q 699 618 699 678 m 496 714 q 409 654 457 714 q 321 500 361 594 q 264 311 281 406 q 392 406 338 354 q 484 532 450 463 q 518 679 518 601 q 496 714 518 714 m 600 1081 q 857 1156 706 1125 l 864 1136 q 663 1010 757 1089 q 510 842 568 931 l 485 842 q 425 1016 463 947 q 319 1136 388 1085 l 325 1156 q 480 1122 417 1139 q 600 1081 543 1104 z "},"ê":{"ha":689,"x_min":-4,"x_max":765,"o":"m 699 618 q 569 415 699 501 q 260 286 439 328 q 256 215 256 249 q 285 110 256 139 q 371 81 314 81 q 460 104 406 81 q 565 178 515 128 l 588 167 q 444 34 535 88 q 236 -19 354 -19 q 65 32 133 -19 q -4 176 -4 83 q 66 444 -4 313 q 258 658 136 575 q 526 740 379 740 q 651 709 604 740 q 699 618 699 678 m 496 714 q 409 654 457 714 q 321 500 361 594 q 264 311 281 406 q 392 406 338 354 q 484 532 450 463 q 518 679 518 601 q 496 714 518 714 m 485 917 q 228 842 379 872 l 221 861 q 422 988 328 908 q 575 1156 517 1067 l 600 1156 q 660 981 622 1050 q 765 861 697 913 l 760 842 q 605 876 668 858 q 485 917 542 893 z "},"ế":{"ha":689,"x_min":-4,"x_max":864,"o":"m 699 618 q 569 415 699 501 q 260 286 439 328 q 256 215 256 249 q 285 110 256 139 q 371 81 314 81 q 460 104 406 81 q 565 178 515 128 l 588 167 q 444 34 535 88 q 236 -19 354 -19 q 65 32 133 -19 q -4 176 -4 83 q 66 444 -4 313 q 258 658 136 575 q 526 740 379 740 q 651 709 604 740 q 699 618 699 678 m 496 714 q 409 654 457 714 q 321 500 361 594 q 264 311 281 406 q 392 406 338 354 q 484 532 450 463 q 518 679 518 601 q 496 714 518 714 m 485 917 q 228 842 379 872 l 221 861 q 422 988 328 908 q 575 1156 517 1067 l 600 1156 q 660 981 622 1050 q 765 861 697 913 l 760 842 q 605 876 668 858 q 485 917 542 893 m 510 1178 q 600 1342 560 1260 q 644 1426 626 1396 q 688 1482 663 1457 q 728 1510 704 1500 q 776 1521 753 1521 q 840 1494 814 1521 q 864 1442 864 1471 q 818 1354 864 1400 q 767 1313 796 1332 q 686 1265 738 1294 q 524 1164 582 1206 l 510 1178 z "},"ệ":{"ha":689,"x_min":-4,"x_max":765,"o":"m 699 618 q 569 415 699 501 q 260 286 439 328 q 256 215 256 249 q 285 110 256 139 q 371 81 314 81 q 460 104 406 81 q 565 178 515 128 l 588 167 q 444 34 535 88 q 236 -19 354 -19 q 65 32 133 -19 q -4 176 -4 83 q 66 444 -4 313 q 258 658 136 575 q 526 740 379 740 q 651 709 604 740 q 699 618 699 678 m 496 714 q 409 654 457 714 q 321 500 361 594 q 264 311 281 406 q 392 406 338 354 q 484 532 450 463 q 518 679 518 601 q 496 714 518 714 m 485 917 q 228 842 379 872 l 221 861 q 422 988 328 908 q 575 1156 517 1067 l 600 1156 q 660 981 622 1050 q 765 861 697 913 l 760 842 q 605 876 668 858 q 485 917 542 893 m 224 -265 q 147 -246 174 -265 q 121 -187 121 -226 q 158 -95 121 -128 q 261 -62 196 -62 q 338 -82 311 -62 q 364 -140 364 -101 q 326 -233 364 -200 q 224 -265 289 -265 z "},"ề":{"ha":689,"x_min":-4,"x_max":765,"o":"m 699 618 q 569 415 699 501 q 260 286 439 328 q 256 215 256 249 q 285 110 256 139 q 371 81 314 81 q 460 104 406 81 q 565 178 515 128 l 588 167 q 444 34 535 88 q 236 -19 354 -19 q 65 32 133 -19 q -4 176 -4 83 q 66 444 -4 313 q 258 658 136 575 q 526 740 379 740 q 651 709 604 740 q 699 618 699 678 m 496 714 q 409 654 457 714 q 321 500 361 594 q 264 311 281 406 q 392 406 338 354 q 484 532 450 463 q 518 679 518 601 q 496 714 518 714 m 485 917 q 228 842 379 872 l 221 861 q 422 988 328 908 q 575 1156 517 1067 l 600 1156 q 660 981 622 1050 q 765 861 697 913 l 760 842 q 605 876 668 858 q 485 917 542 893 m 592 1164 q 456 1297 536 1226 q 408 1340 425 1322 q 378 1379 390 1358 q 363 1432 363 1406 q 401 1504 363 1479 q 449 1518 424 1518 q 499 1506 475 1518 q 535 1472 522 1493 q 556 1425 549 1450 q 567 1360 563 1400 q 583 1268 575 1308 q 608 1174 592 1228 l 592 1164 z "},"ể":{"ha":689,"x_min":-4,"x_max":996,"o":"m 699 618 q 569 415 699 501 q 260 286 439 328 q 256 215 256 249 q 285 110 256 139 q 371 81 314 81 q 460 104 406 81 q 565 178 515 128 l 588 167 q 444 34 535 88 q 236 -19 354 -19 q 65 32 133 -19 q -4 176 -4 83 q 66 444 -4 313 q 258 658 136 575 q 526 740 379 740 q 651 709 604 740 q 699 618 699 678 m 496 714 q 409 654 457 714 q 321 500 361 594 q 264 311 281 406 q 392 406 338 354 q 484 532 450 463 q 518 679 518 601 q 496 714 518 714 m 485 917 q 228 842 379 872 l 221 861 q 422 988 328 908 q 575 1156 517 1067 l 600 1156 q 660 981 622 1050 q 765 861 697 913 l 760 842 q 605 876 668 858 q 485 917 542 893 m 725 1124 q 747 1183 732 1161 q 789 1231 763 1206 q 831 1278 818 1257 q 844 1338 844 1300 q 757 1426 844 1426 q 694 1414 717 1426 q 753 1336 753 1390 q 725 1274 753 1297 q 657 1250 697 1250 q 601 1269 622 1250 q 581 1321 581 1289 q 664 1422 581 1383 q 822 1454 732 1454 q 949 1427 903 1454 q 996 1346 996 1400 q 967 1278 996 1300 q 879 1233 938 1256 q 791 1190 822 1213 q 753 1124 760 1168 l 725 1124 z "},"ễ":{"ha":689,"x_min":-4,"x_max":907,"o":"m 699 618 q 569 415 699 501 q 260 286 439 328 q 256 215 256 249 q 285 110 256 139 q 371 81 314 81 q 460 104 406 81 q 565 178 515 128 l 588 167 q 444 34 535 88 q 236 -19 354 -19 q 65 32 133 -19 q -4 176 -4 83 q 66 444 -4 313 q 258 658 136 575 q 526 740 379 740 q 651 709 604 740 q 699 618 699 678 m 496 714 q 409 654 457 714 q 321 500 361 594 q 264 311 281 406 q 392 406 338 354 q 484 532 450 463 q 518 679 518 601 q 496 714 518 714 m 485 917 q 228 842 379 872 l 221 861 q 422 988 328 908 q 575 1156 517 1067 l 600 1156 q 660 981 622 1050 q 765 861 697 913 l 760 842 q 605 876 668 858 q 485 917 542 893 m 572 1440 q 639 1426 613 1440 q 696 1383 665 1411 q 740 1350 721 1361 q 782 1339 758 1339 q 835 1358 811 1339 q 882 1419 858 1376 l 907 1413 q 805 1242 868 1299 q 671 1186 742 1186 q 604 1201 631 1186 q 547 1243 578 1215 q 503 1276 522 1265 q 461 1288 485 1288 q 408 1269 432 1288 q 361 1207 385 1250 l 336 1214 q 438 1384 375 1328 q 572 1440 501 1440 z "},"ë":{"ha":689,"x_min":-4,"x_max":824,"o":"m 699 618 q 569 415 699 501 q 260 286 439 328 q 256 215 256 249 q 285 110 256 139 q 371 81 314 81 q 460 104 406 81 q 565 178 515 128 l 588 167 q 444 34 535 88 q 236 -19 354 -19 q 65 32 133 -19 q -4 176 -4 83 q 66 444 -4 313 q 258 658 136 575 q 526 740 379 740 q 651 709 604 740 q 699 618 699 678 m 496 714 q 409 654 457 714 q 321 500 361 594 q 264 311 281 406 q 392 406 338 354 q 484 532 450 463 q 518 679 518 601 q 496 714 518 714 m 251 936 q 291 1038 251 1004 q 389 1072 331 1072 q 467 1043 442 1072 q 493 964 493 1014 q 452 864 493 897 q 354 831 411 831 q 276 858 301 831 q 251 936 251 886 m 582 936 q 622 1038 582 1004 q 719 1072 661 1072 q 798 1043 772 1072 q 824 964 824 1014 q 783 864 824 897 q 685 831 742 831 q 607 858 632 831 q 582 936 582 886 z "},"ė":{"ha":689,"x_min":-4,"x_max":699,"o":"m 699 618 q 569 415 699 501 q 260 286 439 328 q 256 215 256 249 q 285 110 256 139 q 371 81 314 81 q 460 104 406 81 q 565 178 515 128 l 588 167 q 444 34 535 88 q 236 -19 354 -19 q 65 32 133 -19 q -4 176 -4 83 q 66 444 -4 313 q 258 658 136 575 q 526 740 379 740 q 651 709 604 740 q 699 618 699 678 m 496 714 q 409 654 457 714 q 321 500 361 594 q 264 311 281 406 q 392 406 338 354 q 484 532 450 463 q 518 679 518 601 q 496 714 518 714 m 390 939 q 437 1049 390 1011 q 560 1086 483 1086 q 652 1063 621 1086 q 683 992 683 1039 q 635 888 683 928 q 513 847 586 847 q 422 871 453 847 q 390 939 390 894 z "},"ẹ":{"ha":689,"x_min":-4,"x_max":699,"o":"m 699 618 q 569 415 699 501 q 260 286 439 328 q 256 215 256 249 q 285 110 256 139 q 371 81 314 81 q 460 104 406 81 q 565 178 515 128 l 588 167 q 444 34 535 88 q 236 -19 354 -19 q 65 32 133 -19 q -4 176 -4 83 q 66 444 -4 313 q 258 658 136 575 q 526 740 379 740 q 651 709 604 740 q 699 618 699 678 m 496 714 q 409 654 457 714 q 321 500 361 594 q 264 311 281 406 q 392 406 338 354 q 484 532 450 463 q 518 679 518 601 q 496 714 518 714 m 224 -265 q 147 -246 174 -265 q 121 -187 121 -226 q 158 -95 121 -128 q 261 -62 196 -62 q 338 -82 311 -62 q 364 -140 364 -101 q 326 -233 364 -200 q 224 -265 289 -265 z "}}}
